<svg width="1440" height="400" viewBox="0 0 1440 400" fill="none" xmlns="http://www.w3.org/2000/svg">
<rect width="1440" height="400" fill="#2D59E3"/>
<circle cx="501.4" cy="234.6" r="6.59986" fill="#F5F5F5"/>
<circle r="6.59986" transform="matrix(-1 0 0 1 459.6 255.502)" fill="#F3694C"/>
<circle cx="501.4" cy="276.4" r="6.59986" fill="#F3694C"/>
<rect x="453.001" y="228" width="36.2992" height="13.1997" fill="#F3694C"/>
<rect width="36.2992" height="13.1997" transform="matrix(-1 0 0 1 507.999 248.902)" fill="#F5F5F5"/>
<rect x="453.001" y="269.8" width="36.2992" height="13.1997" fill="#F5F5F5"/>
<path d="M208 228H233V228C233 241.807 221.807 253 208 253V253V228Z" fill="#F5F5F5"/>
<path d="M238 253L238 228V228C251.807 228 263 239.193 263 253V253L238 253Z" fill="#F5F5F5"/>
<path d="M238 258H263V258C263 271.807 251.807 283 238 283V283V258Z" fill="#F5F5F5"/>
<path d="M233 258H208V258C208 271.807 219.193 283 233 283V283V258Z" fill="#F3694C"/>
<path d="M1228 110.5L1173 110.5V110.5C1173 95.3122 1185.31 83 1200.5 83V83C1215.69 83 1228 95.3122 1228 110.5V110.5Z" fill="#F3694C"/>
<path d="M1228 137.999L1173 137.999V137.999C1173 122.812 1185.31 110.499 1200.5 110.499V110.499C1215.69 110.499 1228 122.812 1228 137.999V137.999Z" fill="#F5F5F5"/>
<path d="M948.679 83L958.5 110.009L968.322 83H948.679Z" fill="#F3694C"/>
<path d="M979.616 91.8615L958.5 110.031L986 112.487L979.616 91.8615Z" fill="#F5F5F5"/>
<path d="M965.375 138L958.5 110.009L982.071 125.723L965.375 138Z" fill="#F5F5F5"/>
<path d="M934.929 125.723L958.5 110.009L951.134 138L934.929 125.723Z" fill="#F5F5F5"/>
<path d="M937.384 91.8376L958.5 110.007L931 111.48L937.384 91.8376Z" fill="#F5F5F5"/>
<circle cx="697.5" cy="90.5" r="7.5" fill="#F5F5F5"/>
<circle cx="697.5" cy="110.5" r="7.5" fill="#F5F5F5"/>
<circle cx="697.5" cy="130.5" r="7.5" fill="#F5F5F5"/>
<circle cx="717.5" cy="90.5" r="7.5" fill="#F5F5F5"/>
<circle cx="717.5" cy="110.5" r="7.5" fill="#F5F5F5"/>
<circle cx="717.5" cy="130.5" r="7.5" fill="#F5F5F5"/>
<circle cx="737.5" cy="90.5" r="7.5" fill="#F5F5F5"/>
<circle cx="737.5" cy="110.5" r="7.5" fill="#F3694C"/>
<circle cx="737.5" cy="130.5" r="7.5" fill="#F5F5F5"/>
<path d="M463.5 113C461.028 113 458.611 113.733 456.555 115.107C454.5 116.48 452.898 118.432 451.952 120.716C451.005 123.001 450.758 125.514 451.24 127.939C451.722 130.363 452.913 132.591 454.661 134.339C456.409 136.087 458.637 137.277 461.061 137.76C463.486 138.242 465.999 137.995 468.284 137.048C470.568 136.102 472.52 134.5 473.893 132.445C475.267 130.389 476 127.972 476 125.5L463.5 125.5L463.5 113Z" fill="#F5F5F5"/>
<path d="M493.5 108C491.028 108 488.611 107.267 486.555 105.893C484.5 104.52 482.898 102.568 481.952 100.284C481.005 97.9995 480.758 95.4861 481.24 93.0614C481.723 90.6366 482.913 88.4093 484.661 86.6612C486.409 84.913 488.637 83.7225 491.061 83.2402C493.486 82.7579 495.999 83.0054 498.284 83.9515C500.568 84.8976 502.52 86.4998 503.893 88.5554C505.267 90.611 506 93.0278 506 95.5L493.5 95.5L493.5 108Z" fill="#F5F5F5"/>
<path d="M493.5 138C495.972 138 498.389 137.267 500.445 135.893C502.5 134.52 504.102 132.568 505.048 130.284C505.995 127.999 506.242 125.486 505.76 123.061C505.278 120.637 504.087 118.409 502.339 116.661C500.591 114.913 498.363 113.722 495.939 113.24C493.514 112.758 491.001 113.005 488.716 113.952C486.432 114.898 484.48 116.5 483.107 118.555C481.733 120.611 481 123.028 481 125.5L493.5 125.5L493.5 138Z" fill="#F3694C"/>
<path d="M463.5 83C465.972 83 468.389 83.7331 470.445 85.1066C472.5 86.4801 474.102 88.4324 475.048 90.7165C475.995 93.0005 476.242 95.5139 475.76 97.9386C475.277 100.363 474.087 102.591 472.339 104.339C470.591 106.087 468.363 107.278 465.939 107.76C463.514 108.242 461.001 107.995 458.716 107.048C456.432 106.102 454.48 104.5 453.107 102.445C451.733 100.389 451 97.9723 451 95.5L463.5 95.5L463.5 83Z" fill="#F5F5F5"/>
<path fill-rule="evenodd" clip-rule="evenodd" d="M208.001 109.002C223.961 109.002 236.909 96.0329 237 80C237.092 96.0329 250.04 109.002 266 109.002L266 109.002C250.04 109.002 237.092 121.971 237 138.003C236.909 121.971 223.961 109.002 208.001 109.002C208.001 109.002 208 109.002 208 109.002V109.002C208 109.002 208.001 109.002 208.001 109.002Z" fill="#F3694C"/>
<circle cx="717" cy="240.5" r="12.5" fill="#F3694C"/>
<path d="M742 258C742 261.283 741.353 264.534 740.097 267.567C738.841 270.6 736.999 273.356 734.678 275.678C732.356 277.999 729.6 279.841 726.567 281.097C723.534 282.353 720.283 283 717 283C713.717 283 710.466 282.353 707.433 281.097C704.4 279.841 701.644 277.999 699.322 275.678C697.001 273.356 695.159 270.6 693.903 267.567C692.647 264.534 692 261.283 692 258L717 258H742Z" fill="#F1F1F1"/>
<circle cx="957" cy="240.5" r="12.5" fill="#F3694C"/>
<path fill-rule="evenodd" clip-rule="evenodd" d="M982 283C982 269.193 970.807 258 957 258C943.193 258 932 269.193 932 283H982Z" fill="#F1F1F1"/>
<circle cx="1199.5" cy="240.5" r="12.5" fill="#F3694C"/>
<path d="M1202 283C1202 269.193 1213.19 258 1227 258V258L1227 283L1202 283V283Z" fill="#F1F1F1"/>
<path d="M1172 258C1185.81 258 1197 269.193 1197 283V283L1172 283L1172 258V258Z" fill="#F1F1F1"/>
<path d="M222.174 173.234C221.358 173.234 220.596 173.084 219.888 172.784C219.192 172.472 218.586 172.022 218.07 171.434C217.554 170.846 217.152 170.132 216.864 169.292C216.576 168.44 216.432 167.48 216.432 166.412C216.432 165.344 216.576 164.39 216.864 163.55C217.164 162.698 217.572 161.978 218.088 161.39C218.616 160.79 219.234 160.334 219.942 160.022C220.662 159.71 221.442 159.554 222.282 159.554C222.678 159.554 223.056 159.602 223.416 159.698C223.776 159.782 224.106 159.902 224.406 160.058C224.718 160.214 224.994 160.388 225.234 160.58C225.486 160.772 225.708 160.976 225.9 161.192L225 162.272C224.652 161.9 224.256 161.6 223.812 161.372C223.38 161.132 222.876 161.012 222.3 161.012C221.676 161.012 221.106 161.138 220.59 161.39C220.086 161.63 219.648 161.984 219.276 162.452C218.916 162.908 218.634 163.466 218.43 164.126C218.238 164.786 218.142 165.53 218.142 166.358C218.142 167.186 218.238 167.936 218.43 168.608C218.622 169.28 218.892 169.85 219.24 170.318C219.6 170.786 220.032 171.146 220.536 171.398C221.04 171.65 221.61 171.776 222.246 171.776C222.882 171.776 223.446 171.644 223.938 171.38C224.43 171.116 224.886 170.756 225.306 170.3L226.224 171.344C225.696 171.956 225.102 172.424 224.442 172.748C223.794 173.072 223.038 173.234 222.174 173.234ZM228.522 173V158.672H230.16V173H228.522ZM237.386 173.234C236.738 173.234 236.126 173.12 235.55 172.892C234.986 172.664 234.494 172.334 234.074 171.902C233.654 171.458 233.318 170.918 233.066 170.282C232.826 169.646 232.706 168.926 232.706 168.122C232.706 167.33 232.826 166.616 233.066 165.98C233.318 165.344 233.648 164.804 234.056 164.36C234.464 163.916 234.932 163.574 235.46 163.334C236 163.094 236.552 162.974 237.116 162.974C237.74 162.974 238.292 163.082 238.772 163.298C239.252 163.514 239.654 163.826 239.978 164.234C240.314 164.63 240.566 165.11 240.734 165.674C240.914 166.238 241.004 166.868 241.004 167.564C241.004 167.744 240.998 167.918 240.986 168.086C240.974 168.242 240.956 168.38 240.932 168.5H234.344C234.404 169.556 234.722 170.39 235.298 171.002C235.886 171.614 236.648 171.92 237.584 171.92C238.064 171.92 238.502 171.854 238.898 171.722C239.294 171.578 239.672 171.386 240.032 171.146L240.626 172.226C240.194 172.502 239.714 172.742 239.186 172.946C238.658 173.138 238.058 173.234 237.386 173.234ZM239.564 167.33C239.564 166.334 239.348 165.578 238.916 165.062C238.496 164.546 237.902 164.288 237.134 164.288C236.786 164.288 236.45 164.36 236.126 164.504C235.814 164.636 235.532 164.834 235.28 165.098C235.028 165.35 234.818 165.668 234.65 166.052C234.482 166.424 234.374 166.85 234.326 167.33H239.564ZM245.362 173.234C244.954 173.234 244.576 173.168 244.228 173.036C243.88 172.904 243.58 172.718 243.328 172.478C243.076 172.226 242.878 171.926 242.734 171.578C242.59 171.218 242.518 170.816 242.518 170.372C242.518 169.112 243.034 168.212 244.066 167.672C245.11 167.12 246.598 166.832 248.53 166.808C248.53 166.496 248.5 166.19 248.44 165.89C248.38 165.59 248.272 165.326 248.116 165.098C247.972 164.87 247.768 164.69 247.504 164.558C247.24 164.414 246.91 164.342 246.514 164.342C245.938 164.342 245.386 164.438 244.858 164.63C244.33 164.81 243.874 165.032 243.49 165.296L242.842 164.126C243.298 163.838 243.868 163.574 244.552 163.334C245.248 163.094 245.992 162.974 246.784 162.974C247.372 162.974 247.882 163.07 248.314 163.262C248.746 163.454 249.094 163.73 249.358 164.09C249.634 164.438 249.838 164.858 249.97 165.35C250.102 165.842 250.168 166.388 250.168 166.988V173H248.818L248.674 171.956H248.62C248.152 172.34 247.642 172.652 247.09 172.892C246.55 173.12 245.974 173.234 245.362 173.234ZM245.83 171.92C246.31 171.92 246.76 171.836 247.18 171.668C247.6 171.5 248.05 171.206 248.53 170.786V167.888C247.666 167.948 246.946 168.038 246.37 168.158C245.806 168.266 245.356 168.416 245.02 168.608C244.684 168.8 244.45 169.034 244.318 169.31C244.186 169.574 244.12 169.892 244.12 170.264C244.12 170.828 244.282 171.248 244.606 171.524C244.93 171.788 245.338 171.92 245.83 171.92ZM253.29 163.226H254.64L254.784 165.008H254.838C255.186 164.384 255.594 163.892 256.062 163.532C256.542 163.16 257.058 162.974 257.61 162.974C257.826 162.974 258.012 162.992 258.168 163.028C258.336 163.052 258.498 163.106 258.654 163.19L258.348 164.63C258.18 164.57 258.03 164.528 257.898 164.504C257.766 164.48 257.598 164.468 257.394 164.468C257.19 164.468 256.974 164.51 256.746 164.594C256.53 164.666 256.314 164.792 256.098 164.972C255.882 165.14 255.672 165.368 255.468 165.656C255.264 165.944 255.084 166.298 254.928 166.718V173H253.29V163.226Z" fill="white"/>
<path d="M451.863 167.636L451.233 165.62C450.993 164.864 450.765 164.126 450.549 163.406C450.333 162.674 450.117 161.924 449.901 161.156H449.829C449.625 161.936 449.415 162.686 449.199 163.406C448.983 164.126 448.755 164.864 448.515 165.62L447.867 167.636H451.863ZM452.277 168.968H447.453L446.175 173H444.483L448.965 159.806H450.819L455.301 173H453.537L452.277 168.968ZM460.87 173.234C460.222 173.234 459.616 173.12 459.052 172.892C458.5 172.664 458.014 172.334 457.594 171.902C457.186 171.458 456.862 170.924 456.622 170.3C456.394 169.664 456.28 168.938 456.28 168.122C456.28 167.306 456.406 166.58 456.658 165.944C456.922 165.308 457.27 164.768 457.702 164.324C458.134 163.88 458.632 163.544 459.196 163.316C459.772 163.088 460.372 162.974 460.996 162.974C461.644 162.974 462.196 163.088 462.652 163.316C463.108 163.544 463.51 163.814 463.858 164.126L463.012 165.224C462.724 164.96 462.424 164.75 462.112 164.594C461.8 164.426 461.446 164.342 461.05 164.342C460.606 164.342 460.198 164.432 459.826 164.612C459.454 164.792 459.13 165.05 458.854 165.386C458.59 165.722 458.38 166.124 458.224 166.592C458.068 167.048 457.99 167.558 457.99 168.122C457.99 168.686 458.062 169.202 458.206 169.67C458.35 170.126 458.554 170.516 458.818 170.84C459.094 171.164 459.412 171.416 459.772 171.596C460.144 171.776 460.558 171.866 461.014 171.866C461.47 171.866 461.89 171.776 462.274 171.596C462.658 171.404 463.006 171.17 463.318 170.894L464.02 171.992C463.588 172.388 463.102 172.694 462.562 172.91C462.022 173.126 461.458 173.234 460.87 173.234ZM469.589 173.234C468.941 173.234 468.335 173.12 467.771 172.892C467.219 172.664 466.733 172.334 466.313 171.902C465.905 171.458 465.581 170.924 465.341 170.3C465.113 169.664 464.999 168.938 464.999 168.122C464.999 167.306 465.125 166.58 465.377 165.944C465.641 165.308 465.989 164.768 466.421 164.324C466.853 163.88 467.351 163.544 467.915 163.316C468.491 163.088 469.091 162.974 469.715 162.974C470.363 162.974 470.915 163.088 471.371 163.316C471.827 163.544 472.229 163.814 472.577 164.126L471.731 165.224C471.443 164.96 471.143 164.75 470.831 164.594C470.519 164.426 470.165 164.342 469.769 164.342C469.325 164.342 468.917 164.432 468.545 164.612C468.173 164.792 467.849 165.05 467.573 165.386C467.309 165.722 467.099 166.124 466.943 166.592C466.787 167.048 466.709 167.558 466.709 168.122C466.709 168.686 466.781 169.202 466.925 169.67C467.069 170.126 467.273 170.516 467.537 170.84C467.813 171.164 468.131 171.416 468.491 171.596C468.863 171.776 469.277 171.866 469.733 171.866C470.189 171.866 470.609 171.776 470.993 171.596C471.377 171.404 471.725 171.17 472.037 170.894L472.739 171.992C472.307 172.388 471.821 172.694 471.281 172.91C470.741 173.126 470.177 173.234 469.589 173.234ZM477.739 173.234C476.707 173.234 475.951 172.91 475.471 172.262C475.003 171.614 474.769 170.666 474.769 169.418V163.226H476.407V169.22C476.407 170.132 476.551 170.792 476.839 171.2C477.127 171.608 477.595 171.812 478.243 171.812C478.747 171.812 479.197 171.686 479.593 171.434C479.989 171.17 480.421 170.744 480.889 170.156V163.226H482.527V173H481.159L481.033 171.47H480.979C480.523 171.998 480.037 172.424 479.521 172.748C479.005 173.072 478.411 173.234 477.739 173.234ZM485.829 163.226H487.179L487.323 165.008H487.377C487.725 164.384 488.133 163.892 488.601 163.532C489.081 163.16 489.597 162.974 490.149 162.974C490.365 162.974 490.551 162.992 490.707 163.028C490.875 163.052 491.037 163.106 491.193 163.19L490.887 164.63C490.719 164.57 490.569 164.528 490.437 164.504C490.305 164.48 490.137 164.468 489.933 164.468C489.729 164.468 489.513 164.51 489.285 164.594C489.069 164.666 488.853 164.792 488.637 164.972C488.421 165.14 488.211 165.368 488.007 165.656C487.803 165.944 487.623 166.298 487.467 166.718V173H485.829V163.226ZM494.547 173.234C494.139 173.234 493.761 173.168 493.413 173.036C493.065 172.904 492.765 172.718 492.513 172.478C492.261 172.226 492.063 171.926 491.919 171.578C491.775 171.218 491.703 170.816 491.703 170.372C491.703 169.112 492.219 168.212 493.251 167.672C494.295 167.12 495.783 166.832 497.715 166.808C497.715 166.496 497.685 166.19 497.625 165.89C497.565 165.59 497.457 165.326 497.301 165.098C497.157 164.87 496.953 164.69 496.689 164.558C496.425 164.414 496.095 164.342 495.699 164.342C495.123 164.342 494.571 164.438 494.043 164.63C493.515 164.81 493.059 165.032 492.675 165.296L492.027 164.126C492.483 163.838 493.053 163.574 493.737 163.334C494.433 163.094 495.177 162.974 495.969 162.974C496.557 162.974 497.067 163.07 497.499 163.262C497.931 163.454 498.279 163.73 498.543 164.09C498.819 164.438 499.023 164.858 499.155 165.35C499.287 165.842 499.353 166.388 499.353 166.988V173H498.003L497.859 171.956H497.805C497.337 172.34 496.827 172.652 496.275 172.892C495.735 173.12 495.159 173.234 494.547 173.234ZM495.015 171.92C495.495 171.92 495.945 171.836 496.365 171.668C496.785 171.5 497.235 171.206 497.715 170.786V167.888C496.851 167.948 496.131 168.038 495.555 168.158C494.991 168.266 494.541 168.416 494.205 168.608C493.869 168.8 493.635 169.034 493.503 169.31C493.371 169.574 493.305 169.892 493.305 170.264C493.305 170.828 493.467 171.248 493.791 171.524C494.115 171.788 494.523 171.92 495.015 171.92ZM505.553 173.234C505.025 173.234 504.581 173.156 504.221 173C503.873 172.844 503.591 172.628 503.375 172.352C503.159 172.064 503.003 171.722 502.907 171.326C502.811 170.918 502.763 170.468 502.763 169.976V164.558H501.305V163.316L502.835 163.226L503.033 160.49H504.401V163.226H507.047V164.558H504.401V170.012C504.401 170.624 504.509 171.092 504.725 171.416C504.941 171.74 505.337 171.902 505.913 171.902C506.081 171.902 506.267 171.878 506.471 171.83C506.675 171.77 506.861 171.71 507.029 171.65L507.353 172.874C507.077 172.97 506.783 173.054 506.471 173.126C506.159 173.198 505.853 173.234 505.553 173.234ZM513.202 173.234C512.554 173.234 511.942 173.12 511.366 172.892C510.802 172.664 510.31 172.334 509.89 171.902C509.47 171.458 509.134 170.918 508.882 170.282C508.642 169.646 508.522 168.926 508.522 168.122C508.522 167.33 508.642 166.616 508.882 165.98C509.134 165.344 509.464 164.804 509.872 164.36C510.28 163.916 510.748 163.574 511.276 163.334C511.816 163.094 512.368 162.974 512.932 162.974C513.556 162.974 514.108 163.082 514.588 163.298C515.068 163.514 515.47 163.826 515.794 164.234C516.13 164.63 516.382 165.11 516.55 165.674C516.73 166.238 516.82 166.868 516.82 167.564C516.82 167.744 516.814 167.918 516.802 168.086C516.79 168.242 516.772 168.38 516.748 168.5H510.16C510.22 169.556 510.538 170.39 511.114 171.002C511.702 171.614 512.464 171.92 513.4 171.92C513.88 171.92 514.318 171.854 514.714 171.722C515.11 171.578 515.488 171.386 515.848 171.146L516.442 172.226C516.01 172.502 515.53 172.742 515.002 172.946C514.474 173.138 513.874 173.234 513.202 173.234ZM515.38 167.33C515.38 166.334 515.164 165.578 514.732 165.062C514.312 164.546 513.718 164.288 512.95 164.288C512.602 164.288 512.266 164.36 511.942 164.504C511.63 164.636 511.348 164.834 511.096 165.098C510.844 165.35 510.634 165.668 510.466 166.052C510.298 166.424 510.19 166.85 510.142 167.33H515.38Z" fill="white"/>
<path d="M691.042 159.806H692.716V173H691.042V159.806ZM696.172 163.226H697.522L697.666 164.63H697.72C698.188 164.174 698.68 163.784 699.196 163.46C699.724 163.136 700.324 162.974 700.996 162.974C702.028 162.974 702.784 163.298 703.264 163.946C703.744 164.594 703.984 165.548 703.984 166.808V173H702.346V167.024C702.346 166.1 702.196 165.434 701.896 165.026C701.608 164.618 701.14 164.414 700.492 164.414C699.988 164.414 699.538 164.54 699.142 164.792C698.746 165.044 698.302 165.416 697.81 165.908V173H696.172V163.226ZM709.732 173.234C709.036 173.234 708.37 173.108 707.734 172.856C707.098 172.592 706.546 172.268 706.078 171.884L706.888 170.804C707.308 171.152 707.746 171.434 708.202 171.65C708.67 171.854 709.198 171.956 709.786 171.956C710.434 171.956 710.914 171.806 711.226 171.506C711.55 171.206 711.712 170.846 711.712 170.426C711.712 170.174 711.646 169.958 711.514 169.778C711.382 169.598 711.208 169.436 710.992 169.292C710.788 169.148 710.548 169.022 710.272 168.914C710.008 168.794 709.744 168.68 709.48 168.572C709.132 168.452 708.784 168.314 708.436 168.158C708.1 168.002 707.788 167.816 707.5 167.6C707.224 167.372 706.996 167.114 706.816 166.826C706.648 166.526 706.564 166.166 706.564 165.746C706.564 165.362 706.636 165.002 706.78 164.666C706.936 164.33 707.158 164.036 707.446 163.784C707.734 163.532 708.088 163.334 708.508 163.19C708.928 163.046 709.402 162.974 709.93 162.974C710.542 162.974 711.106 163.082 711.622 163.298C712.138 163.514 712.588 163.772 712.972 164.072L712.18 165.134C711.832 164.882 711.478 164.678 711.118 164.522C710.77 164.354 710.374 164.27 709.93 164.27C709.318 164.27 708.868 164.408 708.58 164.684C708.292 164.96 708.148 165.29 708.148 165.674C708.148 165.914 708.208 166.118 708.328 166.286C708.448 166.442 708.61 166.586 708.814 166.718C709.018 166.838 709.246 166.952 709.498 167.06C709.762 167.156 710.032 167.258 710.308 167.366C710.668 167.498 711.022 167.642 711.37 167.798C711.73 167.954 712.048 168.146 712.324 168.374C712.612 168.59 712.846 168.854 713.026 169.166C713.206 169.478 713.296 169.868 713.296 170.336C713.296 170.732 713.218 171.11 713.062 171.47C712.906 171.818 712.678 172.124 712.378 172.388C712.078 172.64 711.706 172.844 711.262 173C710.818 173.156 710.308 173.234 709.732 173.234ZM715.595 163.226H717.233V173H715.595V163.226ZM716.423 161.21C716.099 161.21 715.829 161.114 715.613 160.922C715.397 160.718 715.289 160.46 715.289 160.148C715.289 159.812 715.397 159.554 715.613 159.374C715.829 159.182 716.099 159.086 716.423 159.086C716.747 159.086 717.017 159.182 717.233 159.374C717.449 159.554 717.557 159.812 717.557 160.148C717.557 160.46 717.449 160.718 717.233 160.922C717.017 161.114 716.747 161.21 716.423 161.21ZM723.846 177.5C723.246 177.5 722.694 177.44 722.19 177.32C721.698 177.212 721.272 177.044 720.912 176.816C720.564 176.6 720.288 176.324 720.084 175.988C719.892 175.664 719.796 175.292 719.796 174.872C719.796 174.452 719.922 174.05 720.174 173.666C720.438 173.294 720.798 172.958 721.254 172.658V172.586C720.99 172.43 720.774 172.22 720.606 171.956C720.438 171.692 720.354 171.368 720.354 170.984C720.354 170.576 720.474 170.216 720.714 169.904C720.954 169.592 721.2 169.346 721.452 169.166V169.094C721.128 168.83 720.834 168.476 720.57 168.032C720.306 167.576 720.174 167.054 720.174 166.466C720.174 165.926 720.27 165.446 720.462 165.026C720.666 164.594 720.936 164.228 721.272 163.928C721.608 163.616 721.998 163.382 722.442 163.226C722.886 163.058 723.354 162.974 723.846 162.974C724.122 162.974 724.374 163.004 724.602 163.064C724.842 163.112 725.046 163.166 725.214 163.226H728.616V164.486H726.618C726.858 164.714 727.05 165.002 727.194 165.35C727.338 165.698 727.41 166.082 727.41 166.502C727.41 167.03 727.314 167.504 727.122 167.924C726.942 168.332 726.69 168.686 726.366 168.986C726.042 169.286 725.664 169.514 725.232 169.67C724.8 169.826 724.338 169.904 723.846 169.904C723.33 169.904 722.844 169.79 722.388 169.562C722.208 169.718 722.058 169.886 721.938 170.066C721.818 170.234 721.758 170.456 721.758 170.732C721.758 171.044 721.878 171.302 722.118 171.506C722.358 171.698 722.808 171.794 723.468 171.794H725.376C726.516 171.794 727.368 171.98 727.932 172.352C728.496 172.724 728.778 173.312 728.778 174.116C728.778 174.572 728.664 175.004 728.436 175.412C728.208 175.82 727.878 176.18 727.446 176.492C727.014 176.804 726.492 177.05 725.88 177.23C725.28 177.41 724.602 177.5 723.846 177.5ZM723.846 168.788C724.122 168.788 724.386 168.734 724.638 168.626C724.89 168.518 725.106 168.362 725.286 168.158C725.478 167.954 725.628 167.714 725.736 167.438C725.856 167.15 725.916 166.826 725.916 166.466C725.916 165.746 725.712 165.188 725.304 164.792C724.908 164.384 724.422 164.18 723.846 164.18C723.27 164.18 722.778 164.384 722.37 164.792C721.962 165.188 721.758 165.746 721.758 166.466C721.758 166.826 721.812 167.15 721.92 167.438C722.04 167.714 722.19 167.954 722.37 168.158C722.562 168.362 722.784 168.518 723.036 168.626C723.288 168.734 723.558 168.788 723.846 168.788ZM724.08 176.384C724.548 176.384 724.974 176.324 725.358 176.204C725.742 176.096 726.066 175.946 726.33 175.754C726.606 175.574 726.816 175.358 726.96 175.106C727.116 174.866 727.194 174.62 727.194 174.368C727.194 173.912 727.02 173.594 726.672 173.414C726.336 173.246 725.844 173.162 725.196 173.162H723.504C723.324 173.162 723.12 173.15 722.892 173.126C722.676 173.102 722.46 173.06 722.244 173C721.896 173.252 721.638 173.516 721.47 173.792C721.314 174.08 721.236 174.368 721.236 174.656C721.236 175.184 721.482 175.604 721.974 175.916C722.478 176.228 723.18 176.384 724.08 176.384ZM730.695 158.672H732.333V162.596L732.279 164.612C732.735 164.156 733.221 163.772 733.737 163.46C734.253 163.136 734.847 162.974 735.519 162.974C736.551 162.974 737.307 163.298 737.787 163.946C738.267 164.594 738.507 165.548 738.507 166.808V173H736.869V167.024C736.869 166.1 736.719 165.434 736.419 165.026C736.131 164.618 735.663 164.414 735.015 164.414C734.511 164.414 734.061 164.54 733.665 164.792C733.269 165.044 732.825 165.416 732.333 165.908V173H730.695V158.672ZM744.707 173.234C744.179 173.234 743.735 173.156 743.375 173C743.027 172.844 742.745 172.628 742.529 172.352C742.313 172.064 742.157 171.722 742.061 171.326C741.965 170.918 741.917 170.468 741.917 169.976V164.558H740.459V163.316L741.989 163.226L742.187 160.49H743.555V163.226H746.201V164.558H743.555V170.012C743.555 170.624 743.663 171.092 743.879 171.416C744.095 171.74 744.491 171.902 745.067 171.902C745.235 171.902 745.421 171.878 745.625 171.83C745.829 171.77 746.015 171.71 746.183 171.65L746.507 172.874C746.231 172.97 745.937 173.054 745.625 173.126C745.313 173.198 745.007 173.234 744.707 173.234Z" fill="white"/>
<path d="M939.137 173.234C938.321 173.234 937.559 173.084 936.851 172.784C936.155 172.472 935.549 172.022 935.033 171.434C934.517 170.846 934.115 170.132 933.827 169.292C933.539 168.44 933.395 167.48 933.395 166.412C933.395 165.344 933.539 164.39 933.827 163.55C934.127 162.698 934.535 161.978 935.051 161.39C935.579 160.79 936.197 160.334 936.905 160.022C937.625 159.71 938.405 159.554 939.245 159.554C939.641 159.554 940.019 159.602 940.379 159.698C940.739 159.782 941.069 159.902 941.369 160.058C941.681 160.214 941.957 160.388 942.197 160.58C942.449 160.772 942.671 160.976 942.863 161.192L941.963 162.272C941.615 161.9 941.219 161.6 940.775 161.372C940.343 161.132 939.839 161.012 939.263 161.012C938.639 161.012 938.069 161.138 937.553 161.39C937.049 161.63 936.611 161.984 936.239 162.452C935.879 162.908 935.597 163.466 935.393 164.126C935.201 164.786 935.105 165.53 935.105 166.358C935.105 167.186 935.201 167.936 935.393 168.608C935.585 169.28 935.855 169.85 936.203 170.318C936.563 170.786 936.995 171.146 937.499 171.398C938.003 171.65 938.573 171.776 939.209 171.776C939.845 171.776 940.409 171.644 940.901 171.38C941.393 171.116 941.849 170.756 942.269 170.3L943.187 171.344C942.659 171.956 942.065 172.424 941.405 172.748C940.757 173.072 940.001 173.234 939.137 173.234ZM949.283 173.234C948.683 173.234 948.107 173.12 947.555 172.892C947.015 172.664 946.535 172.334 946.115 171.902C945.695 171.458 945.359 170.924 945.107 170.3C944.867 169.664 944.747 168.938 944.747 168.122C944.747 167.306 944.867 166.58 945.107 165.944C945.359 165.308 945.695 164.768 946.115 164.324C946.535 163.88 947.015 163.544 947.555 163.316C948.107 163.088 948.683 162.974 949.283 162.974C949.883 162.974 950.453 163.088 950.993 163.316C951.545 163.544 952.031 163.88 952.451 164.324C952.871 164.768 953.201 165.308 953.441 165.944C953.693 166.58 953.819 167.306 953.819 168.122C953.819 168.938 953.693 169.664 953.441 170.3C953.201 170.924 952.871 171.458 952.451 171.902C952.031 172.334 951.545 172.664 950.993 172.892C950.453 173.12 949.883 173.234 949.283 173.234ZM949.283 171.866C949.703 171.866 950.087 171.776 950.435 171.596C950.783 171.416 951.083 171.164 951.335 170.84C951.587 170.516 951.779 170.126 951.911 169.67C952.055 169.202 952.127 168.686 952.127 168.122C952.127 167.558 952.055 167.048 951.911 166.592C951.779 166.124 951.587 165.722 951.335 165.386C951.083 165.05 950.783 164.792 950.435 164.612C950.087 164.432 949.703 164.342 949.283 164.342C948.863 164.342 948.479 164.432 948.131 164.612C947.783 164.792 947.483 165.05 947.231 165.386C946.991 165.722 946.799 166.124 946.655 166.592C946.523 167.048 946.457 167.558 946.457 168.122C946.457 168.686 946.523 169.202 946.655 169.67C946.799 170.126 946.991 170.516 947.231 170.84C947.483 171.164 947.783 171.416 948.131 171.596C948.479 171.776 948.863 171.866 949.283 171.866ZM956.401 163.226H957.751L957.895 164.648H957.949C958.369 164.18 958.831 163.784 959.335 163.46C959.851 163.136 960.403 162.974 960.991 162.974C961.747 162.974 962.335 163.142 962.755 163.478C963.175 163.814 963.487 164.27 963.691 164.846C964.195 164.294 964.705 163.844 965.221 163.496C965.749 163.148 966.313 162.974 966.913 162.974C967.933 162.974 968.683 163.298 969.163 163.946C969.643 164.594 969.883 165.548 969.883 166.808V173H968.245V167.024C968.245 166.1 968.095 165.434 967.795 165.026C967.507 164.618 967.051 164.414 966.427 164.414C965.695 164.414 964.873 164.912 963.961 165.908V173H962.323V167.024C962.323 166.1 962.173 165.434 961.873 165.026C961.585 164.618 961.129 164.414 960.505 164.414C959.749 164.414 958.927 164.912 958.039 165.908V173H956.401V163.226ZM977.457 160.004C977.085 159.836 976.719 159.752 976.359 159.752C975.435 159.752 974.973 160.394 974.973 161.678V163.226H977.043V164.558H974.973V173H973.335V164.558H972.003V163.316L973.335 163.226V161.66C973.335 160.664 973.563 159.878 974.019 159.302C974.487 158.726 975.207 158.438 976.179 158.438C976.479 158.438 976.767 158.468 977.043 158.528C977.319 158.588 977.577 158.666 977.817 158.762L977.457 160.004ZM979.909 177.212L981.439 172.91L977.515 163.226H979.225L981.223 168.554C981.367 168.974 981.517 169.424 981.673 169.904C981.841 170.384 982.003 170.846 982.159 171.29H982.249C982.381 170.846 982.519 170.39 982.663 169.922C982.807 169.442 982.945 168.986 983.077 168.554L984.823 163.226H986.425L981.439 177.212H979.909Z" fill="white"/>
<path d="M216.221 304.806H217.895V318H216.221V304.806ZM221.35 308.226H222.7L222.844 309.63H222.898C223.366 309.174 223.858 308.784 224.374 308.46C224.902 308.136 225.502 307.974 226.174 307.974C227.206 307.974 227.962 308.298 228.442 308.946C228.922 309.594 229.162 310.548 229.162 311.808V318H227.524V312.024C227.524 311.1 227.374 310.434 227.074 310.026C226.786 309.618 226.318 309.414 225.67 309.414C225.166 309.414 224.716 309.54 224.32 309.792C223.924 310.044 223.48 310.416 222.988 310.908V318H221.35V308.226ZM232.354 308.226H233.704L233.848 309.342H233.902C234.346 308.982 234.832 308.664 235.36 308.388C235.888 308.112 236.44 307.974 237.016 307.974C237.64 307.974 238.192 308.094 238.672 308.334C239.164 308.574 239.572 308.91 239.896 309.342C240.232 309.774 240.484 310.296 240.652 310.908C240.82 311.52 240.904 312.204 240.904 312.96C240.904 313.8 240.784 314.55 240.544 315.21C240.316 315.858 240.004 316.41 239.608 316.866C239.224 317.31 238.774 317.652 238.258 317.892C237.754 318.12 237.22 318.234 236.656 318.234C236.212 318.234 235.762 318.138 235.306 317.946C234.85 317.742 234.4 317.46 233.956 317.1L233.992 318.81V322.122H232.354V308.226ZM236.386 316.866C236.794 316.866 237.166 316.776 237.502 316.596C237.85 316.416 238.15 316.164 238.402 315.84C238.654 315.504 238.846 315.096 238.978 314.616C239.122 314.136 239.194 313.59 239.194 312.978C239.194 312.438 239.146 311.946 239.05 311.502C238.954 311.058 238.804 310.68 238.6 310.368C238.396 310.044 238.132 309.798 237.808 309.63C237.484 309.45 237.088 309.36 236.62 309.36C236.2 309.36 235.774 309.474 235.342 309.702C234.922 309.93 234.472 310.266 233.992 310.71V315.84C234.436 316.224 234.862 316.494 235.27 316.65C235.69 316.794 236.062 316.866 236.386 316.866ZM246.36 318.234C245.328 318.234 244.572 317.91 244.092 317.262C243.624 316.614 243.39 315.666 243.39 314.418V308.226H245.028V314.22C245.028 315.132 245.172 315.792 245.46 316.2C245.748 316.608 246.216 316.812 246.864 316.812C247.368 316.812 247.818 316.686 248.214 316.434C248.61 316.17 249.042 315.744 249.51 315.156V308.226H251.148V318H249.78L249.654 316.47H249.6C249.144 316.998 248.658 317.424 248.142 317.748C247.626 318.072 247.032 318.234 246.36 318.234ZM257.528 318.234C257 318.234 256.556 318.156 256.196 318C255.848 317.844 255.566 317.628 255.35 317.352C255.134 317.064 254.978 316.722 254.882 316.326C254.786 315.918 254.738 315.468 254.738 314.976V309.558H253.28V308.316L254.81 308.226L255.008 305.49H256.376V308.226H259.022V309.558H256.376V315.012C256.376 315.624 256.484 316.092 256.7 316.416C256.916 316.74 257.312 316.902 257.888 316.902C258.056 316.902 258.242 316.878 258.446 316.83C258.65 316.77 258.836 316.71 259.004 316.65L259.328 317.874C259.052 317.97 258.758 318.054 258.446 318.126C258.134 318.198 257.828 318.234 257.528 318.234Z" fill="white"/>
<path d="M458.747 311.052H460.961C462.005 311.052 462.797 310.848 463.337 310.44C463.889 310.02 464.165 309.378 464.165 308.514C464.165 307.638 463.889 307.026 463.337 306.678C462.797 306.33 462.005 306.156 460.961 306.156H458.747V311.052ZM464.327 318L461.123 312.402H458.747V318H457.073V304.806H461.213C461.885 304.806 462.503 304.872 463.067 305.004C463.631 305.124 464.117 305.334 464.525 305.634C464.933 305.922 465.251 306.306 465.479 306.786C465.707 307.254 465.821 307.83 465.821 308.514C465.821 309.546 465.545 310.368 464.993 310.98C464.453 311.592 463.733 312.006 462.833 312.222L466.217 318H464.327ZM472.297 318.234C471.649 318.234 471.037 318.12 470.461 317.892C469.897 317.664 469.405 317.334 468.985 316.902C468.565 316.458 468.229 315.918 467.977 315.282C467.737 314.646 467.617 313.926 467.617 313.122C467.617 312.33 467.737 311.616 467.977 310.98C468.229 310.344 468.559 309.804 468.967 309.36C469.375 308.916 469.843 308.574 470.371 308.334C470.911 308.094 471.463 307.974 472.027 307.974C472.651 307.974 473.203 308.082 473.683 308.298C474.163 308.514 474.565 308.826 474.889 309.234C475.225 309.63 475.477 310.11 475.645 310.674C475.825 311.238 475.915 311.868 475.915 312.564C475.915 312.744 475.909 312.918 475.897 313.086C475.885 313.242 475.867 313.38 475.843 313.5H469.255C469.315 314.556 469.633 315.39 470.209 316.002C470.797 316.614 471.559 316.92 472.495 316.92C472.975 316.92 473.413 316.854 473.809 316.722C474.205 316.578 474.583 316.386 474.943 316.146L475.537 317.226C475.105 317.502 474.625 317.742 474.097 317.946C473.569 318.138 472.969 318.234 472.297 318.234ZM474.475 312.33C474.475 311.334 474.259 310.578 473.827 310.062C473.407 309.546 472.813 309.288 472.045 309.288C471.697 309.288 471.361 309.36 471.037 309.504C470.725 309.636 470.443 309.834 470.191 310.098C469.939 310.35 469.729 310.668 469.561 311.052C469.393 311.424 469.285 311.85 469.237 312.33H474.475ZM480.878 318.234C480.182 318.234 479.516 318.108 478.88 317.856C478.244 317.592 477.692 317.268 477.224 316.884L478.034 315.804C478.454 316.152 478.892 316.434 479.348 316.65C479.816 316.854 480.344 316.956 480.932 316.956C481.58 316.956 482.06 316.806 482.372 316.506C482.696 316.206 482.858 315.846 482.858 315.426C482.858 315.174 482.792 314.958 482.66 314.778C482.528 314.598 482.354 314.436 482.138 314.292C481.934 314.148 481.694 314.022 481.418 313.914C481.154 313.794 480.89 313.68 480.626 313.572C480.278 313.452 479.93 313.314 479.582 313.158C479.246 313.002 478.934 312.816 478.646 312.6C478.37 312.372 478.142 312.114 477.962 311.826C477.794 311.526 477.71 311.166 477.71 310.746C477.71 310.362 477.782 310.002 477.926 309.666C478.082 309.33 478.304 309.036 478.592 308.784C478.88 308.532 479.234 308.334 479.654 308.19C480.074 308.046 480.548 307.974 481.076 307.974C481.688 307.974 482.252 308.082 482.768 308.298C483.284 308.514 483.734 308.772 484.118 309.072L483.326 310.134C482.978 309.882 482.624 309.678 482.264 309.522C481.916 309.354 481.52 309.27 481.076 309.27C480.464 309.27 480.014 309.408 479.726 309.684C479.438 309.96 479.294 310.29 479.294 310.674C479.294 310.914 479.354 311.118 479.474 311.286C479.594 311.442 479.756 311.586 479.96 311.718C480.164 311.838 480.392 311.952 480.644 312.06C480.908 312.156 481.178 312.258 481.454 312.366C481.814 312.498 482.168 312.642 482.516 312.798C482.876 312.954 483.194 313.146 483.47 313.374C483.758 313.59 483.992 313.854 484.172 314.166C484.352 314.478 484.442 314.868 484.442 315.336C484.442 315.732 484.364 316.11 484.208 316.47C484.052 316.818 483.824 317.124 483.524 317.388C483.224 317.64 482.852 317.844 482.408 318C481.964 318.156 481.454 318.234 480.878 318.234ZM489.586 318.234C488.554 318.234 487.798 317.91 487.318 317.262C486.85 316.614 486.616 315.666 486.616 314.418V308.226H488.254V314.22C488.254 315.132 488.398 315.792 488.686 316.2C488.974 316.608 489.442 316.812 490.09 316.812C490.594 316.812 491.044 316.686 491.44 316.434C491.836 316.17 492.268 315.744 492.736 315.156V308.226H494.374V318H493.006L492.88 316.47H492.826C492.37 316.998 491.884 317.424 491.368 317.748C490.852 318.072 490.258 318.234 489.586 318.234ZM497.676 318V303.672H499.314V318H497.676ZM505.675 318.234C505.147 318.234 504.703 318.156 504.343 318C503.995 317.844 503.713 317.628 503.497 317.352C503.281 317.064 503.125 316.722 503.029 316.326C502.933 315.918 502.885 315.468 502.885 314.976V309.558H501.427V308.316L502.957 308.226L503.155 305.49H504.523V308.226H507.169V309.558H504.523V315.012C504.523 315.624 504.631 316.092 504.847 316.416C505.063 316.74 505.459 316.902 506.035 316.902C506.203 316.902 506.389 316.878 506.593 316.83C506.797 316.77 506.983 316.71 507.151 316.65L507.475 317.874C507.199 317.97 506.905 318.054 506.593 318.126C506.281 318.198 505.975 318.234 505.675 318.234Z" fill="white"/>
<path d="M706.076 316.234C705.26 316.234 704.498 316.084 703.79 315.784C703.094 315.472 702.488 315.022 701.972 314.434C701.456 313.846 701.054 313.132 700.766 312.292C700.478 311.44 700.334 310.48 700.334 309.412C700.334 308.344 700.478 307.39 700.766 306.55C701.066 305.698 701.474 304.978 701.99 304.39C702.518 303.79 703.136 303.334 703.844 303.022C704.564 302.71 705.344 302.554 706.184 302.554C706.58 302.554 706.958 302.602 707.318 302.698C707.678 302.782 708.008 302.902 708.308 303.058C708.62 303.214 708.896 303.388 709.136 303.58C709.388 303.772 709.61 303.976 709.802 304.192L708.902 305.272C708.554 304.9 708.158 304.6 707.714 304.372C707.282 304.132 706.778 304.012 706.202 304.012C705.578 304.012 705.008 304.138 704.492 304.39C703.988 304.63 703.55 304.984 703.178 305.452C702.818 305.908 702.536 306.466 702.332 307.126C702.14 307.786 702.044 308.53 702.044 309.358C702.044 310.186 702.14 310.936 702.332 311.608C702.524 312.28 702.794 312.85 703.142 313.318C703.502 313.786 703.934 314.146 704.438 314.398C704.942 314.65 705.512 314.776 706.148 314.776C706.784 314.776 707.348 314.644 707.84 314.38C708.332 314.116 708.788 313.756 709.208 313.3L710.126 314.344C709.598 314.956 709.004 315.424 708.344 315.748C707.696 316.072 706.94 316.234 706.076 316.234ZM712.569 302.806H720.183V304.21H714.243V308.35H719.247V309.772H714.243V314.578H720.381V316H712.569V302.806ZM728.029 316.234C727.201 316.234 726.439 316.078 725.743 315.766C725.059 315.442 724.465 314.986 723.961 314.398C723.469 313.798 723.085 313.072 722.809 312.22C722.533 311.368 722.395 310.414 722.395 309.358C722.395 308.302 722.533 307.354 722.809 306.514C723.085 305.674 723.469 304.96 723.961 304.372C724.465 303.784 725.059 303.334 725.743 303.022C726.439 302.71 727.201 302.554 728.029 302.554C728.857 302.554 729.613 302.71 730.297 303.022C730.993 303.334 731.587 303.784 732.079 304.372C732.583 304.96 732.973 305.674 733.249 306.514C733.525 307.354 733.663 308.302 733.663 309.358C733.663 310.414 733.525 311.368 733.249 312.22C732.973 313.072 732.583 313.798 732.079 314.398C731.587 314.986 730.993 315.442 730.297 315.766C729.613 316.078 728.857 316.234 728.029 316.234ZM728.029 314.776C728.617 314.776 729.151 314.65 729.631 314.398C730.123 314.134 730.537 313.768 730.873 313.3C731.221 312.832 731.485 312.268 731.665 311.608C731.857 310.936 731.953 310.186 731.953 309.358C731.953 308.53 731.857 307.786 731.665 307.126C731.485 306.466 731.221 305.908 730.873 305.452C730.537 304.984 730.123 304.63 729.631 304.39C729.151 304.138 728.617 304.012 728.029 304.012C727.429 304.012 726.889 304.138 726.409 304.39C725.929 304.63 725.515 304.984 725.167 305.452C724.831 305.908 724.567 306.466 724.375 307.126C724.195 307.786 724.105 308.53 724.105 309.358C724.105 310.186 724.195 310.936 724.375 311.608C724.567 312.268 724.831 312.832 725.167 313.3C725.515 313.768 725.929 314.134 726.409 314.398C726.889 314.65 727.429 314.776 728.029 314.776Z" fill="white"/>
<path d="M945.81 300.806H949.572C950.316 300.806 950.988 300.872 951.588 301.004C952.2 301.136 952.722 301.358 953.154 301.67C953.586 301.97 953.922 302.366 954.162 302.858C954.402 303.35 954.522 303.956 954.522 304.676C954.522 305.372 954.402 305.978 954.162 306.494C953.934 307.01 953.604 307.436 953.172 307.772C952.74 308.108 952.224 308.36 951.624 308.528C951.036 308.684 950.382 308.762 949.662 308.762H947.484V314H945.81V300.806ZM949.446 307.412C950.61 307.412 951.468 307.196 952.02 306.764C952.584 306.32 952.866 305.624 952.866 304.676C952.866 303.728 952.572 303.074 951.984 302.714C951.408 302.342 950.538 302.156 949.374 302.156H947.484V307.412H949.446ZM957.183 300.806H959.199L961.737 307.862C961.893 308.318 962.043 308.78 962.187 309.248C962.343 309.704 962.505 310.16 962.673 310.616H962.763C962.919 310.16 963.069 309.704 963.213 309.248C963.357 308.78 963.507 308.318 963.663 307.862L966.183 300.806H968.199V314H966.633V306.692C966.633 306.404 966.639 306.098 966.651 305.774C966.663 305.438 966.681 305.102 966.705 304.766C966.729 304.418 966.753 304.076 966.777 303.74C966.801 303.404 966.825 303.092 966.849 302.804H966.777L965.733 305.81L963.231 312.668H962.115L959.613 305.81L958.569 302.804H958.497C958.509 303.092 958.527 303.404 958.551 303.74C958.575 304.076 958.599 304.418 958.623 304.766C958.647 305.102 958.665 305.438 958.677 305.774C958.689 306.098 958.695 306.404 958.695 306.692V314H957.183V300.806Z" fill="white"/>
<path d="M1158.99 300.806H1162.3C1164.34 300.806 1165.89 301.37 1166.94 302.498C1168 303.626 1168.53 305.246 1168.53 307.358C1168.53 308.402 1168.39 309.338 1168.11 310.166C1167.85 310.982 1167.45 311.678 1166.93 312.254C1166.41 312.818 1165.77 313.25 1165 313.55C1164.24 313.85 1163.37 314 1162.37 314H1158.99V300.806ZM1162.16 312.632C1163.72 312.632 1164.88 312.17 1165.65 311.246C1166.42 310.322 1166.8 309.026 1166.8 307.358C1166.8 305.678 1166.42 304.394 1165.65 303.506C1164.89 302.606 1163.73 302.156 1162.16 302.156H1160.66V312.632H1162.16ZM1175.14 314.234C1174.5 314.234 1173.88 314.12 1173.31 313.892C1172.74 313.664 1172.25 313.334 1171.83 312.902C1171.41 312.458 1171.08 311.918 1170.82 311.282C1170.58 310.646 1170.46 309.926 1170.46 309.122C1170.46 308.33 1170.58 307.616 1170.82 306.98C1171.08 306.344 1171.41 305.804 1171.81 305.36C1172.22 304.916 1172.69 304.574 1173.22 304.334C1173.76 304.094 1174.31 303.974 1174.87 303.974C1175.5 303.974 1176.05 304.082 1176.53 304.298C1177.01 304.514 1177.41 304.826 1177.74 305.234C1178.07 305.63 1178.32 306.11 1178.49 306.674C1178.67 307.238 1178.76 307.868 1178.76 308.564C1178.76 308.744 1178.76 308.918 1178.74 309.086C1178.73 309.242 1178.71 309.38 1178.69 309.5H1172.1C1172.16 310.556 1172.48 311.39 1173.06 312.002C1173.64 312.614 1174.41 312.92 1175.34 312.92C1175.82 312.92 1176.26 312.854 1176.66 312.722C1177.05 312.578 1177.43 312.386 1177.79 312.146L1178.38 313.226C1177.95 313.502 1177.47 313.742 1176.94 313.946C1176.42 314.138 1175.82 314.234 1175.14 314.234ZM1177.32 308.33C1177.32 307.334 1177.11 306.578 1176.67 306.062C1176.25 305.546 1175.66 305.288 1174.89 305.288C1174.54 305.288 1174.21 305.36 1173.88 305.504C1173.57 305.636 1173.29 305.834 1173.04 306.098C1172.79 306.35 1172.58 306.668 1172.41 307.052C1172.24 307.424 1172.13 307.85 1172.08 308.33H1177.32ZM1179.75 304.226H1181.46L1183.29 309.788C1183.45 310.268 1183.6 310.754 1183.74 311.246C1183.9 311.738 1184.05 312.212 1184.21 312.668H1184.28C1184.43 312.212 1184.58 311.738 1184.73 311.246C1184.89 310.754 1185.04 310.268 1185.18 309.788L1187.04 304.226H1188.66L1185.18 314H1183.27L1179.75 304.226ZM1194.5 314.234C1193.85 314.234 1193.24 314.12 1192.66 313.892C1192.1 313.664 1191.61 313.334 1191.19 312.902C1190.77 312.458 1190.43 311.918 1190.18 311.282C1189.94 310.646 1189.82 309.926 1189.82 309.122C1189.82 308.33 1189.94 307.616 1190.18 306.98C1190.43 306.344 1190.76 305.804 1191.17 305.36C1191.58 304.916 1192.04 304.574 1192.57 304.334C1193.11 304.094 1193.66 303.974 1194.23 303.974C1194.85 303.974 1195.4 304.082 1195.88 304.298C1196.36 304.514 1196.77 304.826 1197.09 305.234C1197.43 305.63 1197.68 306.11 1197.85 306.674C1198.03 307.238 1198.12 307.868 1198.12 308.564C1198.12 308.744 1198.11 308.918 1198.1 309.086C1198.09 309.242 1198.07 309.38 1198.04 309.5H1191.46C1191.52 310.556 1191.83 311.39 1192.41 312.002C1193 312.614 1193.76 312.92 1194.7 312.92C1195.18 312.92 1195.61 312.854 1196.01 312.722C1196.41 312.578 1196.78 312.386 1197.14 312.146L1197.74 313.226C1197.31 313.502 1196.83 313.742 1196.3 313.946C1195.77 314.138 1195.17 314.234 1194.5 314.234ZM1196.68 308.33C1196.68 307.334 1196.46 306.578 1196.03 306.062C1195.61 305.546 1195.01 305.288 1194.25 305.288C1193.9 305.288 1193.56 305.36 1193.24 305.504C1192.93 305.636 1192.64 305.834 1192.39 306.098C1192.14 306.35 1191.93 306.668 1191.76 307.052C1191.59 307.424 1191.49 307.85 1191.44 308.33H1196.68ZM1200.52 314V299.672H1202.16V314H1200.52ZM1209.24 314.234C1208.64 314.234 1208.07 314.12 1207.51 313.892C1206.97 313.664 1206.49 313.334 1206.07 312.902C1205.65 312.458 1205.32 311.924 1205.07 311.3C1204.83 310.664 1204.71 309.938 1204.71 309.122C1204.71 308.306 1204.83 307.58 1205.07 306.944C1205.32 306.308 1205.65 305.768 1206.07 305.324C1206.49 304.88 1206.97 304.544 1207.51 304.316C1208.07 304.088 1208.64 303.974 1209.24 303.974C1209.84 303.974 1210.41 304.088 1210.95 304.316C1211.5 304.544 1211.99 304.88 1212.41 305.324C1212.83 305.768 1213.16 306.308 1213.4 306.944C1213.65 307.58 1213.78 308.306 1213.78 309.122C1213.78 309.938 1213.65 310.664 1213.4 311.3C1213.16 311.924 1212.83 312.458 1212.41 312.902C1211.99 313.334 1211.5 313.664 1210.95 313.892C1210.41 314.12 1209.84 314.234 1209.24 314.234ZM1209.24 312.866C1209.66 312.866 1210.05 312.776 1210.39 312.596C1210.74 312.416 1211.04 312.164 1211.29 311.84C1211.55 311.516 1211.74 311.126 1211.87 310.67C1212.01 310.202 1212.09 309.686 1212.09 309.122C1212.09 308.558 1212.01 308.048 1211.87 307.592C1211.74 307.124 1211.55 306.722 1211.29 306.386C1211.04 306.05 1210.74 305.792 1210.39 305.612C1210.05 305.432 1209.66 305.342 1209.24 305.342C1208.82 305.342 1208.44 305.432 1208.09 305.612C1207.74 305.792 1207.44 306.05 1207.19 306.386C1206.95 306.722 1206.76 307.124 1206.61 307.592C1206.48 308.048 1206.42 308.558 1206.42 309.122C1206.42 309.686 1206.48 310.202 1206.61 310.67C1206.76 311.126 1206.95 311.516 1207.19 311.84C1207.44 312.164 1207.74 312.416 1208.09 312.596C1208.44 312.776 1208.82 312.866 1209.24 312.866ZM1216.36 304.226H1217.71L1217.85 305.342H1217.91C1218.35 304.982 1218.84 304.664 1219.37 304.388C1219.89 304.112 1220.45 303.974 1221.02 303.974C1221.65 303.974 1222.2 304.094 1222.68 304.334C1223.17 304.574 1223.58 304.91 1223.9 305.342C1224.24 305.774 1224.49 306.296 1224.66 306.908C1224.83 307.52 1224.91 308.204 1224.91 308.96C1224.91 309.8 1224.79 310.55 1224.55 311.21C1224.32 311.858 1224.01 312.41 1223.61 312.866C1223.23 313.31 1222.78 313.652 1222.26 313.892C1221.76 314.12 1221.23 314.234 1220.66 314.234C1220.22 314.234 1219.77 314.138 1219.31 313.946C1218.86 313.742 1218.41 313.46 1217.96 313.1L1218 314.81V318.122H1216.36V304.226ZM1220.39 312.866C1220.8 312.866 1221.17 312.776 1221.51 312.596C1221.86 312.416 1222.16 312.164 1222.41 311.84C1222.66 311.504 1222.85 311.096 1222.98 310.616C1223.13 310.136 1223.2 309.59 1223.2 308.978C1223.2 308.438 1223.15 307.946 1223.06 307.502C1222.96 307.058 1222.81 306.68 1222.61 306.368C1222.4 306.044 1222.14 305.798 1221.81 305.63C1221.49 305.45 1221.09 305.36 1220.63 305.36C1220.21 305.36 1219.78 305.474 1219.35 305.702C1218.93 305.93 1218.48 306.266 1218 306.71V311.84C1218.44 312.224 1218.87 312.494 1219.28 312.65C1219.7 312.794 1220.07 312.866 1220.39 312.866ZM1231.46 314.234C1230.82 314.234 1230.2 314.12 1229.63 313.892C1229.06 313.664 1228.57 313.334 1228.15 312.902C1227.73 312.458 1227.4 311.918 1227.14 311.282C1226.9 310.646 1226.78 309.926 1226.78 309.122C1226.78 308.33 1226.9 307.616 1227.14 306.98C1227.4 306.344 1227.73 305.804 1228.13 305.36C1228.54 304.916 1229.01 304.574 1229.54 304.334C1230.08 304.094 1230.63 303.974 1231.19 303.974C1231.82 303.974 1232.37 304.082 1232.85 304.298C1233.33 304.514 1233.73 304.826 1234.06 305.234C1234.39 305.63 1234.64 306.11 1234.81 306.674C1234.99 307.238 1235.08 307.868 1235.08 308.564C1235.08 308.744 1235.08 308.918 1235.06 309.086C1235.05 309.242 1235.03 309.38 1235.01 309.5H1228.42C1228.48 310.556 1228.8 311.39 1229.38 312.002C1229.96 312.614 1230.73 312.92 1231.66 312.92C1232.14 312.92 1232.58 312.854 1232.98 312.722C1233.37 312.578 1233.75 312.386 1234.11 312.146L1234.7 313.226C1234.27 313.502 1233.79 313.742 1233.26 313.946C1232.74 314.138 1232.14 314.234 1231.46 314.234ZM1233.64 308.33C1233.64 307.334 1233.43 306.578 1232.99 306.062C1232.57 305.546 1231.98 305.288 1231.21 305.288C1230.86 305.288 1230.53 305.36 1230.2 305.504C1229.89 305.636 1229.61 305.834 1229.36 306.098C1229.11 306.35 1228.9 306.668 1228.73 307.052C1228.56 307.424 1228.45 307.85 1228.4 308.33H1233.64ZM1237.49 304.226H1238.84L1238.98 306.008H1239.04C1239.39 305.384 1239.79 304.892 1240.26 304.532C1240.74 304.16 1241.26 303.974 1241.81 303.974C1242.03 303.974 1242.21 303.992 1242.37 304.028C1242.54 304.052 1242.7 304.106 1242.85 304.19L1242.55 305.63C1242.38 305.57 1242.23 305.528 1242.1 305.504C1241.97 305.48 1241.8 305.468 1241.59 305.468C1241.39 305.468 1241.17 305.51 1240.95 305.594C1240.73 305.666 1240.51 305.792 1240.3 305.972C1240.08 306.14 1239.87 306.368 1239.67 306.656C1239.46 306.944 1239.28 307.298 1239.13 307.718V314H1237.49V304.226Z" fill="white"/>
<path d="M1175.97 171.234C1175.3 171.234 1174.68 171.138 1174.1 170.946C1173.53 170.754 1173.02 170.436 1172.59 169.992C1172.17 169.536 1171.84 168.948 1171.6 168.228C1171.36 167.508 1171.24 166.614 1171.24 165.546V157.806H1172.91V165.6C1172.91 166.392 1172.99 167.058 1173.15 167.598C1173.3 168.126 1173.52 168.552 1173.8 168.876C1174.07 169.2 1174.4 169.434 1174.77 169.578C1175.14 169.71 1175.54 169.776 1175.97 169.776C1176.42 169.776 1176.83 169.71 1177.22 169.578C1177.6 169.434 1177.93 169.2 1178.21 168.876C1178.49 168.552 1178.72 168.126 1178.87 167.598C1179.04 167.058 1179.12 166.392 1179.12 165.6V157.806H1180.73V165.546C1180.73 166.614 1180.61 167.508 1180.37 168.228C1180.13 168.948 1179.79 169.536 1179.36 169.992C1178.94 170.436 1178.43 170.754 1177.85 170.946C1177.27 171.138 1176.65 171.234 1175.97 171.234ZM1184.12 161.226H1185.47L1185.62 162.342H1185.67C1186.11 161.982 1186.6 161.664 1187.13 161.388C1187.66 161.112 1188.21 160.974 1188.78 160.974C1189.41 160.974 1189.96 161.094 1190.44 161.334C1190.93 161.574 1191.34 161.91 1191.66 162.342C1192 162.774 1192.25 163.296 1192.42 163.908C1192.59 164.52 1192.67 165.204 1192.67 165.96C1192.67 166.8 1192.55 167.55 1192.31 168.21C1192.08 168.858 1191.77 169.41 1191.38 169.866C1190.99 170.31 1190.54 170.652 1190.03 170.892C1189.52 171.12 1188.99 171.234 1188.42 171.234C1187.98 171.234 1187.53 171.138 1187.07 170.946C1186.62 170.742 1186.17 170.46 1185.72 170.1L1185.76 171.81V175.122H1184.12V161.226ZM1188.15 169.866C1188.56 169.866 1188.93 169.776 1189.27 169.596C1189.62 169.416 1189.92 169.164 1190.17 168.84C1190.42 168.504 1190.61 168.096 1190.75 167.616C1190.89 167.136 1190.96 166.59 1190.96 165.978C1190.96 165.438 1190.91 164.946 1190.82 164.502C1190.72 164.058 1190.57 163.68 1190.37 163.368C1190.16 163.044 1189.9 162.798 1189.58 162.63C1189.25 162.45 1188.86 162.36 1188.39 162.36C1187.97 162.36 1187.54 162.474 1187.11 162.702C1186.69 162.93 1186.24 163.266 1185.76 163.71V168.84C1186.2 169.224 1186.63 169.494 1187.04 169.65C1187.46 169.794 1187.83 169.866 1188.15 169.866ZM1195.28 171V156.672H1196.92V171H1195.28ZM1204 171.234C1203.4 171.234 1202.83 171.12 1202.28 170.892C1201.74 170.664 1201.26 170.334 1200.84 169.902C1200.42 169.458 1200.08 168.924 1199.83 168.3C1199.59 167.664 1199.47 166.938 1199.47 166.122C1199.47 165.306 1199.59 164.58 1199.83 163.944C1200.08 163.308 1200.42 162.768 1200.84 162.324C1201.26 161.88 1201.74 161.544 1202.28 161.316C1202.83 161.088 1203.4 160.974 1204 160.974C1204.6 160.974 1205.17 161.088 1205.71 161.316C1206.27 161.544 1206.75 161.88 1207.17 162.324C1207.59 162.768 1207.92 163.308 1208.16 163.944C1208.41 164.58 1208.54 165.306 1208.54 166.122C1208.54 166.938 1208.41 167.664 1208.16 168.3C1207.92 168.924 1207.59 169.458 1207.17 169.902C1206.75 170.334 1206.27 170.664 1205.71 170.892C1205.17 171.12 1204.6 171.234 1204 171.234ZM1204 169.866C1204.42 169.866 1204.81 169.776 1205.16 169.596C1205.5 169.416 1205.8 169.164 1206.06 168.84C1206.31 168.516 1206.5 168.126 1206.63 167.67C1206.78 167.202 1206.85 166.686 1206.85 166.122C1206.85 165.558 1206.78 165.048 1206.63 164.592C1206.5 164.124 1206.31 163.722 1206.06 163.386C1205.8 163.05 1205.5 162.792 1205.16 162.612C1204.81 162.432 1204.42 162.342 1204 162.342C1203.58 162.342 1203.2 162.432 1202.85 162.612C1202.5 162.792 1202.2 163.05 1201.95 163.386C1201.71 163.722 1201.52 164.124 1201.38 164.592C1201.24 165.048 1201.18 165.558 1201.18 166.122C1201.18 166.686 1201.24 167.202 1201.38 167.67C1201.52 168.126 1201.71 168.516 1201.95 168.84C1202.2 169.164 1202.5 169.416 1202.85 169.596C1203.2 169.776 1203.58 169.866 1204 169.866ZM1213.07 171.234C1212.66 171.234 1212.29 171.168 1211.94 171.036C1211.59 170.904 1211.29 170.718 1211.04 170.478C1210.79 170.226 1210.59 169.926 1210.44 169.578C1210.3 169.218 1210.23 168.816 1210.23 168.372C1210.23 167.112 1210.74 166.212 1211.78 165.672C1212.82 165.12 1214.31 164.832 1216.24 164.808C1216.24 164.496 1216.21 164.19 1216.15 163.89C1216.09 163.59 1215.98 163.326 1215.83 163.098C1215.68 162.87 1215.48 162.69 1215.21 162.558C1214.95 162.414 1214.62 162.342 1214.22 162.342C1213.65 162.342 1213.1 162.438 1212.57 162.63C1212.04 162.81 1211.58 163.032 1211.2 163.296L1210.55 162.126C1211.01 161.838 1211.58 161.574 1212.26 161.334C1212.96 161.094 1213.7 160.974 1214.49 160.974C1215.08 160.974 1215.59 161.07 1216.02 161.262C1216.46 161.454 1216.8 161.73 1217.07 162.09C1217.34 162.438 1217.55 162.858 1217.68 163.35C1217.81 163.842 1217.88 164.388 1217.88 164.988V171H1216.53L1216.38 169.956H1216.33C1215.86 170.34 1215.35 170.652 1214.8 170.892C1214.26 171.12 1213.68 171.234 1213.07 171.234ZM1213.54 169.92C1214.02 169.92 1214.47 169.836 1214.89 169.668C1215.31 169.5 1215.76 169.206 1216.24 168.786V165.888C1215.38 165.948 1214.66 166.038 1214.08 166.158C1213.52 166.266 1213.07 166.416 1212.73 166.608C1212.39 166.8 1212.16 167.034 1212.03 167.31C1211.9 167.574 1211.83 167.892 1211.83 168.264C1211.83 168.828 1211.99 169.248 1212.32 169.524C1212.64 169.788 1213.05 169.92 1213.54 169.92ZM1224.33 171.234C1223.72 171.234 1223.16 171.12 1222.66 170.892C1222.16 170.664 1221.74 170.334 1221.4 169.902C1221.05 169.47 1220.78 168.936 1220.59 168.3C1220.39 167.664 1220.3 166.938 1220.3 166.122C1220.3 165.33 1220.41 164.616 1220.64 163.98C1220.88 163.344 1221.19 162.804 1221.58 162.36C1221.96 161.916 1222.4 161.574 1222.91 161.334C1223.42 161.094 1223.96 160.974 1224.53 160.974C1225.1 160.974 1225.6 161.076 1226 161.28C1226.42 161.484 1226.85 161.766 1227.28 162.126L1227.19 160.434V156.672H1228.83V171H1227.5L1227.34 169.848H1227.3C1226.92 170.232 1226.47 170.562 1225.97 170.838C1225.46 171.102 1224.92 171.234 1224.33 171.234ZM1224.69 169.866C1225.15 169.866 1225.57 169.758 1225.97 169.542C1226.38 169.314 1226.78 168.972 1227.19 168.516V163.386C1226.77 163.014 1226.37 162.75 1225.99 162.594C1225.61 162.438 1225.22 162.36 1224.82 162.36C1224.42 162.36 1224.05 162.45 1223.7 162.63C1223.36 162.81 1223.06 163.068 1222.8 163.404C1222.55 163.728 1222.35 164.124 1222.21 164.592C1222.06 165.048 1221.99 165.552 1221.99 166.104C1221.99 167.292 1222.22 168.216 1222.69 168.876C1223.16 169.536 1223.83 169.866 1224.69 169.866Z" fill="white"/>
</svg>
