<svg width="810" height="820" viewBox="0 0 810 820" fill="none" xmlns="http://www.w3.org/2000/svg">
<g clip-path="url(#clip0_656_7961)">
<rect width="810" height="823" fill="#4A73F3"/>
<rect width="810" height="823" fill="url(#paint0_linear_656_7961)" fill-opacity="0.3"/>
<path d="M353.822 531L381.5 607.116L409.179 531H353.822Z" fill="#F3694C"/>
<path d="M441.009 555.973L381.5 607.178L459 614.098L441.009 555.973Z" fill="#F5F5F5"/>
<path d="M400.875 685.999L381.5 607.115L447.929 651.401L400.875 685.999Z" fill="#F5F5F5"/>
<path d="M315.072 651.401L381.5 607.115L360.741 685.999L315.072 651.401Z" fill="#F5F5F5"/>
<path d="M321.991 555.905L381.5 607.111L304 611.263L321.991 555.905Z" fill="#F5F5F5"/>
<g clip-path="url(#clip1_656_7961)">
<rect width="382" height="823" fill="#07145A"/>
<path fill-rule="evenodd" clip-rule="evenodd" d="M77.0029 667.525C120.471 667.525 155.74 632.201 156.001 588.526C156.263 632.201 191.532 667.525 235 667.525V667.528C191.532 667.528 156.263 702.851 156.001 746.526C155.74 702.851 120.471 667.528 77.0029 667.528C77.002 667.528 77.001 667.528 77 667.528V667.525C77.001 667.525 77.002 667.525 77.0029 667.525Z" fill="#F3694C"/>
<path d="M231 667.526H308.5C308.5 708.682 275.136 742.046 233.98 742.046H231V667.526Z" fill="#F5F5F5"/>
<path d="M308.498 742.049L308.498 667.529L311.478 667.529C352.634 667.529 385.998 700.892 385.998 742.049L308.498 742.049Z" fill="#F5F5F5"/>
<path d="M311.6 748.007H386C386 789.097 352.69 822.527 311.6 822.527V748.007Z" fill="#F5F5F5"/>
<path d="M305.401 748.007H231.001C231.001 789.097 264.311 822.527 305.401 822.527V748.007Z" fill="#F3694C"/>
<circle cx="136.401" cy="392.6" r="18.5996" fill="#F5F5F5"/>
<circle r="18.5996" transform="matrix(-1 0 0 1 18.5996 451.505)" fill="#F3694C"/>
<circle cx="136.401" cy="510.399" r="18.5996" fill="#F3694C"/>
<rect x="0.00244141" y="374" width="102.298" height="37.1992" fill="#F3694C"/>
<rect width="102.298" height="37.1992" transform="matrix(-1 0 0 1 154.998 432.905)" fill="#F5F5F5"/>
<rect x="0.00244141" y="491.799" width="102.298" height="37.1992" fill="#F5F5F5"/>
<path d="M311 512.5L156 512.5C156 469.698 190.698 435 233.5 435C276.302 435 311 469.698 311 512.5Z" fill="#F3694C"/>
<path d="M311 589.999L156 589.999C156 547.196 190.698 512.499 233.5 512.499C276.302 512.499 311 547.196 311 589.999Z" fill="#F5F5F5"/>
<path d="M403.468 535L381.5 595.411L359.533 535H403.468Z" stroke="#F3694C" stroke-width="8"/>
<path d="M453.415 609.584L391.285 604.036L438.992 562.985L453.415 609.584Z" stroke="#F5F5F5" stroke-width="8"/>
<path d="M440.958 651.562L403.331 679.229L387.837 616.148L440.958 651.562Z" stroke="#F5F5F5" stroke-width="8"/>
<path d="M358.394 679.203L321.971 651.609L374.95 616.29L358.394 679.203Z" stroke="#F5F5F5" stroke-width="8"/>
<path d="M309.605 606.957L323.938 562.857L371.344 603.649L309.605 606.957Z" stroke="#F5F5F5" stroke-width="8"/>
</g>
<path d="M103.64 93.4H121.88V98.32H109.56V106.04H120.08V111H109.56V123H103.64V93.4ZM126.558 100.6H132.398V123H126.558V100.6ZM129.518 97C128.505 97 127.665 96.7067 126.998 96.12C126.332 95.5067 125.998 94.7333 125.998 93.8C125.998 92.84 126.332 92.0667 126.998 91.48C127.665 90.8933 128.505 90.6 129.518 90.6C130.532 90.6 131.358 90.8933 131.998 91.48C132.665 92.0667 132.998 92.84 132.998 93.8C132.998 94.7333 132.665 95.5067 131.998 96.12C131.358 96.7067 130.532 97 129.518 97ZM138.707 100.6H143.507L143.907 103.56H144.067C145.054 102.6 146.134 101.773 147.307 101.08C148.48 100.387 149.827 100.04 151.347 100.04C153.774 100.04 155.534 100.84 156.627 102.44C157.72 104.013 158.267 106.213 158.267 109.04V123H152.387V109.76C152.387 108.027 152.134 106.813 151.627 106.12C151.147 105.427 150.347 105.08 149.227 105.08C148.294 105.08 147.494 105.293 146.827 105.72C146.16 106.147 145.4 106.773 144.547 107.6V123H138.707V100.6ZM172.212 123.56C170.825 123.56 169.559 123.293 168.412 122.76C167.292 122.227 166.332 121.453 165.532 120.44C164.732 119.427 164.119 118.2 163.692 116.76C163.265 115.32 163.052 113.68 163.052 111.84C163.052 110 163.305 108.36 163.812 106.92C164.345 105.453 165.052 104.213 165.932 103.2C166.812 102.187 167.812 101.413 168.932 100.88C170.079 100.32 171.252 100.04 172.452 100.04C173.732 100.04 174.799 100.267 175.652 100.72C176.505 101.147 177.332 101.733 178.132 102.48L177.892 98.96V91.08H183.772V123H179.012L178.532 120.68H178.412C177.585 121.48 176.639 122.16 175.572 122.72C174.505 123.28 173.385 123.56 172.212 123.56ZM173.732 118.72C174.505 118.72 175.225 118.547 175.892 118.2C176.585 117.853 177.252 117.253 177.892 116.4V106.56C177.199 105.947 176.505 105.52 175.812 105.28C175.119 105.013 174.425 104.88 173.732 104.88C173.092 104.88 172.492 105.027 171.932 105.32C171.372 105.613 170.879 106.053 170.452 106.64C170.052 107.227 169.719 107.947 169.452 108.8C169.212 109.653 169.092 110.64 169.092 111.76C169.092 114.107 169.492 115.853 170.292 117C171.092 118.147 172.239 118.72 173.732 118.72ZM207.857 132H202.057L205.177 123.12L196.497 100.6H202.417L205.977 111C206.323 112.013 206.643 113.053 206.937 114.12C207.23 115.16 207.537 116.227 207.857 117.32H208.057C208.323 116.28 208.59 115.227 208.857 114.16C209.123 113.093 209.39 112.04 209.657 111L212.737 100.6H218.377L210.617 123.64L207.857 132ZM231.465 123.56C230.052 123.56 228.692 123.293 227.385 122.76C226.105 122.227 224.972 121.467 223.985 120.48C222.999 119.467 222.199 118.24 221.585 116.8C220.999 115.333 220.705 113.68 220.705 111.84C220.705 109.973 220.999 108.307 221.585 106.84C222.199 105.373 222.999 104.147 223.985 103.16C224.972 102.147 226.105 101.373 227.385 100.84C228.692 100.307 230.052 100.04 231.465 100.04C232.852 100.04 234.199 100.307 235.505 100.84C236.812 101.373 237.959 102.147 238.945 103.16C239.932 104.147 240.719 105.373 241.305 106.84C241.919 108.307 242.225 109.973 242.225 111.84C242.225 113.68 241.919 115.333 241.305 116.8C240.719 118.24 239.932 119.467 238.945 120.48C237.959 121.467 236.812 122.227 235.505 122.76C234.199 123.293 232.852 123.56 231.465 123.56ZM231.465 118.76C232.985 118.76 234.159 118.133 234.985 116.88C235.812 115.627 236.225 113.947 236.225 111.84C236.225 109.707 235.812 108.013 234.985 106.76C234.159 105.48 232.985 104.84 231.465 104.84C229.945 104.84 228.772 105.48 227.945 106.76C227.119 108.013 226.705 109.707 226.705 111.84C226.705 113.947 227.119 115.627 227.945 116.88C228.772 118.133 229.945 118.76 231.465 118.76ZM253.784 123.56C251.384 123.56 249.638 122.773 248.544 121.2C247.451 119.6 246.904 117.4 246.904 114.6V100.6H252.784V113.84C252.784 115.6 253.024 116.827 253.504 117.52C254.011 118.187 254.811 118.52 255.904 118.52C256.838 118.52 257.638 118.307 258.304 117.88C258.971 117.453 259.691 116.733 260.464 115.72V100.6H266.344V123H261.544L261.104 119.8H260.944C259.984 120.947 258.931 121.867 257.784 122.56C256.664 123.227 255.331 123.56 253.784 123.56ZM272.613 100.6H277.413L277.813 104.56H277.973C278.8 103.093 279.773 101.973 280.893 101.2C282.013 100.427 283.16 100.04 284.333 100.04C284.946 100.04 285.453 100.093 285.853 100.2C286.253 100.28 286.626 100.387 286.973 100.52L285.933 105.6C285.56 105.467 285.186 105.373 284.813 105.32C284.466 105.267 284.066 105.24 283.613 105.24C282.733 105.24 281.813 105.573 280.853 106.24C279.893 106.88 279.093 108.013 278.453 109.64V123H272.613V100.6ZM103.64 138.4H109.68L118.28 154.16L121.24 160.56H121.44C121.28 159.013 121.107 157.32 120.92 155.48C120.76 153.64 120.68 151.88 120.68 150.2V138.4H126.28V168H120.28L111.72 152.16L108.72 145.8H108.52C108.653 147.4 108.8 149.093 108.96 150.88C109.147 152.667 109.24 154.413 109.24 156.12V168H103.64V138.4ZM142.841 168.56C141.268 168.56 139.801 168.293 138.441 167.76C137.108 167.227 135.934 166.467 134.921 165.48C133.934 164.467 133.148 163.24 132.561 161.8C132.001 160.333 131.721 158.68 131.721 156.84C131.721 155.027 132.014 153.4 132.601 151.96C133.188 150.493 133.961 149.253 134.921 148.24C135.908 147.2 137.028 146.413 138.281 145.88C139.534 145.32 140.828 145.04 142.161 145.04C143.708 145.04 145.054 145.307 146.201 145.84C147.374 146.373 148.348 147.12 149.121 148.08C149.921 149.04 150.521 150.173 150.921 151.48C151.321 152.787 151.521 154.213 151.521 155.76C151.521 156.293 151.494 156.813 151.441 157.32C151.388 157.8 151.321 158.173 151.241 158.44H137.441C137.681 160.28 138.348 161.68 139.441 162.64C140.561 163.573 141.961 164.04 143.641 164.04C144.574 164.04 145.441 163.907 146.241 163.64C147.068 163.373 147.881 162.987 148.681 162.48L150.681 166.08C149.561 166.853 148.321 167.467 146.961 167.92C145.628 168.347 144.254 168.56 142.841 168.56ZM146.481 154.56C146.481 153.04 146.134 151.84 145.441 150.96C144.748 150.053 143.681 149.6 142.241 149.6C141.068 149.6 140.014 150.027 139.081 150.88C138.148 151.707 137.574 152.933 137.361 154.56H146.481ZM154.283 145.6H160.163L162.603 156.68C162.816 157.773 163.003 158.853 163.163 159.92C163.323 160.987 163.51 162.08 163.723 163.2H163.883C164.096 162.08 164.31 160.987 164.523 159.92C164.736 158.827 164.99 157.747 165.283 156.68L167.963 145.6H173.203L176.003 156.68C176.27 157.773 176.51 158.853 176.723 159.92C176.936 160.987 177.163 162.08 177.403 163.2H177.603C177.816 162.08 178.003 160.987 178.163 159.92C178.323 158.853 178.51 157.773 178.723 156.68L181.163 145.6H186.603L181.083 168H174.163L171.803 158.24C171.563 157.173 171.336 156.12 171.123 155.08C170.936 154.04 170.736 152.92 170.523 151.72H170.323C170.11 152.92 169.91 154.053 169.723 155.12C169.536 156.16 169.323 157.2 169.083 158.24L166.803 168H160.083L154.283 145.6ZM200.437 138.4H206.357V168H200.437V138.4ZM213.16 145.6H217.96L218.36 148.56H218.52C219.507 147.6 220.587 146.773 221.76 146.08C222.933 145.387 224.28 145.04 225.8 145.04C228.227 145.04 229.987 145.84 231.08 147.44C232.173 149.013 232.72 151.213 232.72 154.04V168H226.84V154.76C226.84 153.027 226.587 151.813 226.08 151.12C225.6 150.427 224.8 150.08 223.68 150.08C222.747 150.08 221.947 150.293 221.28 150.72C220.613 151.147 219.853 151.773 219 152.6V168H213.16V145.6ZM245.185 168.56C243.665 168.56 242.145 168.267 240.625 167.68C239.105 167.093 237.785 166.333 236.665 165.4L239.345 161.72C240.358 162.493 241.345 163.093 242.305 163.52C243.292 163.947 244.305 164.16 245.345 164.16C246.465 164.16 247.278 163.947 247.785 163.52C248.318 163.067 248.585 162.493 248.585 161.8C248.585 161.373 248.452 161.013 248.185 160.72C247.918 160.4 247.558 160.107 247.105 159.84C246.678 159.573 246.185 159.333 245.625 159.12C245.065 158.907 244.492 158.68 243.905 158.44C243.185 158.173 242.465 157.867 241.745 157.52C241.025 157.147 240.372 156.707 239.785 156.2C239.198 155.667 238.718 155.053 238.345 154.36C237.972 153.667 237.785 152.853 237.785 151.92C237.785 150.907 237.985 149.987 238.385 149.16C238.785 148.307 239.345 147.573 240.065 146.96C240.785 146.347 241.652 145.88 242.665 145.56C243.705 145.213 244.852 145.04 246.105 145.04C247.758 145.04 249.212 145.333 250.465 145.92C251.718 146.48 252.812 147.107 253.745 147.8L251.105 151.36C250.305 150.8 249.505 150.347 248.705 150C247.932 149.627 247.118 149.44 246.265 149.44C245.252 149.44 244.505 149.64 244.025 150.04C243.545 150.44 243.305 150.96 243.305 151.6C243.305 152 243.425 152.347 243.665 152.64C243.932 152.933 244.278 153.2 244.705 153.44C245.132 153.68 245.612 153.907 246.145 154.12C246.705 154.307 247.278 154.507 247.865 154.72C248.612 155.013 249.345 155.333 250.065 155.68C250.812 156.027 251.478 156.453 252.065 156.96C252.678 157.467 253.172 158.093 253.545 158.84C253.918 159.56 254.105 160.44 254.105 161.48C254.105 162.467 253.905 163.387 253.505 164.24C253.132 165.093 252.572 165.84 251.825 166.48C251.078 167.12 250.145 167.627 249.025 168C247.932 168.373 246.652 168.56 245.185 168.56ZM258.59 145.6H264.43V168H258.59V145.6ZM261.55 142C260.536 142 259.696 141.707 259.03 141.12C258.363 140.507 258.03 139.733 258.03 138.8C258.03 137.84 258.363 137.067 259.03 136.48C259.696 135.893 260.536 135.6 261.55 135.6C262.563 135.6 263.39 135.893 264.03 136.48C264.696 137.067 265.03 137.84 265.03 138.8C265.03 139.733 264.696 140.507 264.03 141.12C263.39 141.707 262.563 142 261.55 142ZM278.618 177.72C277.285 177.72 276.045 177.6 274.898 177.36C273.778 177.147 272.791 176.8 271.938 176.32C271.111 175.84 270.458 175.24 269.978 174.52C269.498 173.8 269.258 172.947 269.258 171.96C269.258 171.027 269.538 170.16 270.098 169.36C270.658 168.587 271.445 167.907 272.458 167.32V167.12C271.871 166.747 271.378 166.267 270.978 165.68C270.605 165.067 270.418 164.293 270.418 163.36C270.418 162.507 270.658 161.72 271.138 161C271.645 160.253 272.231 159.64 272.898 159.16V159C272.125 158.44 271.431 157.653 270.818 156.64C270.231 155.627 269.938 154.467 269.938 153.16C269.938 151.853 270.178 150.693 270.658 149.68C271.165 148.667 271.831 147.813 272.658 147.12C273.511 146.427 274.471 145.907 275.538 145.56C276.631 145.213 277.778 145.04 278.978 145.04C279.591 145.04 280.191 145.093 280.778 145.2C281.365 145.307 281.885 145.44 282.338 145.6H290.418V149.92H286.578C286.871 150.293 287.111 150.787 287.298 151.4C287.511 151.987 287.618 152.627 287.618 153.32C287.618 154.573 287.391 155.68 286.938 156.64C286.485 157.573 285.871 158.36 285.098 159C284.325 159.64 283.405 160.12 282.338 160.44C281.298 160.76 280.178 160.92 278.978 160.92C278.525 160.92 278.045 160.88 277.538 160.8C277.058 160.693 276.578 160.56 276.098 160.4C275.778 160.667 275.538 160.947 275.378 161.24C275.218 161.507 275.138 161.867 275.138 162.32C275.138 162.933 275.391 163.4 275.898 163.72C276.405 164.013 277.325 164.16 278.658 164.16H282.458C285.178 164.16 287.245 164.6 288.658 165.48C290.071 166.36 290.778 167.787 290.778 169.76C290.778 170.88 290.498 171.92 289.938 172.88C289.378 173.867 288.565 174.72 287.498 175.44C286.458 176.16 285.178 176.72 283.658 177.12C282.165 177.52 280.485 177.72 278.618 177.72ZM278.978 157.28C279.965 157.28 280.791 156.933 281.458 156.24C282.125 155.52 282.458 154.493 282.458 153.16C282.458 151.827 282.125 150.813 281.458 150.12C280.818 149.4 279.991 149.04 278.978 149.04C277.965 149.04 277.125 149.4 276.458 150.12C275.791 150.813 275.458 151.827 275.458 153.16C275.458 154.493 275.791 155.52 276.458 156.24C277.151 156.933 277.991 157.28 278.978 157.28ZM279.498 174C281.178 174 282.538 173.68 283.578 173.04C284.645 172.4 285.178 171.64 285.178 170.76C285.178 169.96 284.858 169.427 284.218 169.16C283.578 168.893 282.658 168.76 281.458 168.76H278.738C278.045 168.76 277.445 168.733 276.938 168.68C276.458 168.627 276.018 168.547 275.618 168.44C274.631 169.24 274.138 170.107 274.138 171.04C274.138 171.973 274.618 172.693 275.578 173.2C276.538 173.733 277.845 174 279.498 174ZM294.605 136.08H300.445V144.12L300.205 148.32C301.112 147.467 302.125 146.707 303.245 146.04C304.392 145.373 305.725 145.04 307.245 145.04C309.672 145.04 311.432 145.84 312.525 147.44C313.619 149.013 314.165 151.213 314.165 154.04V168H308.285V154.76C308.285 153.027 308.032 151.813 307.525 151.12C307.045 150.427 306.245 150.08 305.125 150.08C304.192 150.08 303.392 150.293 302.725 150.72C302.059 151.147 301.299 151.773 300.445 152.6V168H294.605V136.08ZM328.391 168.56C327.058 168.56 325.925 168.36 324.991 167.96C324.058 167.56 323.298 167 322.711 166.28C322.125 165.533 321.698 164.64 321.431 163.6C321.165 162.56 321.031 161.413 321.031 160.16V150.24H317.871V145.88L321.311 145.6L321.991 139.6H326.911V145.6H332.431V150.24H326.911V160.16C326.911 162.667 327.925 163.92 329.951 163.92C330.325 163.92 330.711 163.88 331.111 163.8C331.511 163.693 331.858 163.573 332.151 163.44L333.111 167.72C332.498 167.933 331.805 168.12 331.031 168.28C330.258 168.467 329.378 168.56 328.391 168.56Z" fill="white"/>
<path d="M613.418 708.723V717.961C613.418 718.944 613.2 719.833 612.764 720.627C612.334 721.415 611.68 722.04 610.801 722.502C609.928 722.964 608.828 723.195 607.5 723.195C605.612 723.195 604.173 722.714 603.184 721.75C602.194 720.786 601.699 719.51 601.699 717.922V708.723H604.717V717.463C604.717 718.641 604.958 719.468 605.439 719.943C605.921 720.419 606.634 720.656 607.578 720.656C608.242 720.656 608.779 720.542 609.189 720.314C609.606 720.087 609.912 719.735 610.107 719.26C610.303 718.785 610.4 718.179 610.4 717.443V708.723H613.418ZM629.58 723H625.732L619.521 712.199H619.434C619.46 712.648 619.482 713.101 619.502 713.557C619.521 714.012 619.541 714.468 619.561 714.924C619.58 715.373 619.6 715.826 619.619 716.281V723H616.914V708.723H620.732L626.934 719.416H627.002C626.989 718.973 626.973 718.534 626.953 718.098C626.934 717.661 626.914 717.225 626.895 716.789C626.882 716.353 626.868 715.917 626.855 715.48V708.723H629.58V723ZM633.184 723V708.723H636.211V723H633.184ZM645.869 711.037C645.29 711.037 644.775 711.151 644.326 711.379C643.883 711.6 643.509 711.923 643.203 712.346C642.904 712.769 642.676 713.28 642.52 713.879C642.363 714.478 642.285 715.152 642.285 715.9C642.285 716.91 642.409 717.772 642.656 718.488C642.91 719.198 643.301 719.742 643.828 720.119C644.355 720.49 645.036 720.676 645.869 720.676C646.449 720.676 647.028 720.611 647.607 720.48C648.193 720.35 648.828 720.165 649.512 719.924V722.463C648.88 722.723 648.258 722.909 647.646 723.02C647.035 723.137 646.348 723.195 645.586 723.195C644.115 723.195 642.904 722.893 641.953 722.287C641.009 721.675 640.309 720.822 639.854 719.729C639.398 718.628 639.17 717.346 639.17 715.881C639.17 714.8 639.316 713.811 639.609 712.912C639.902 712.014 640.332 711.236 640.898 710.578C641.465 709.921 642.165 709.413 642.998 709.055C643.831 708.697 644.788 708.518 645.869 708.518C646.579 708.518 647.288 708.609 647.998 708.791C648.714 708.967 649.398 709.211 650.049 709.523L649.072 711.984C648.538 711.73 648.001 711.509 647.461 711.32C646.921 711.132 646.39 711.037 645.869 711.037ZM665.518 715.842C665.518 716.942 665.381 717.945 665.107 718.85C664.834 719.748 664.417 720.523 663.857 721.174C663.304 721.825 662.601 722.326 661.748 722.678C660.895 723.023 659.886 723.195 658.721 723.195C657.555 723.195 656.546 723.023 655.693 722.678C654.84 722.326 654.134 721.825 653.574 721.174C653.021 720.523 652.607 719.745 652.334 718.84C652.061 717.935 651.924 716.929 651.924 715.822C651.924 714.344 652.165 713.059 652.646 711.965C653.135 710.865 653.883 710.012 654.893 709.406C655.902 708.801 657.184 708.498 658.74 708.498C660.29 708.498 661.562 708.801 662.559 709.406C663.561 710.012 664.303 710.865 664.785 711.965C665.273 713.065 665.518 714.357 665.518 715.842ZM655.098 715.842C655.098 716.838 655.221 717.697 655.469 718.42C655.723 719.136 656.117 719.689 656.65 720.08C657.184 720.464 657.874 720.656 658.721 720.656C659.58 720.656 660.277 720.464 660.811 720.08C661.344 719.689 661.732 719.136 661.973 718.42C662.22 717.697 662.344 716.838 662.344 715.842C662.344 714.344 662.064 713.166 661.504 712.307C660.944 711.447 660.023 711.018 658.74 711.018C657.887 711.018 657.191 711.213 656.65 711.604C656.117 711.988 655.723 712.541 655.469 713.264C655.221 713.98 655.098 714.839 655.098 715.842ZM672.637 708.723C673.932 708.723 675 708.879 675.84 709.191C676.686 709.504 677.314 709.976 677.725 710.607C678.135 711.239 678.34 712.036 678.34 713C678.34 713.651 678.216 714.221 677.969 714.709C677.721 715.197 677.396 715.611 676.992 715.949C676.589 716.288 676.152 716.564 675.684 716.779L679.883 723H676.523L673.115 717.521H671.504V723H668.477V708.723H672.637ZM672.422 711.203H671.504V715.061H672.48C673.483 715.061 674.199 714.895 674.629 714.562C675.065 714.224 675.283 713.729 675.283 713.078C675.283 712.401 675.049 711.919 674.58 711.633C674.118 711.346 673.398 711.203 672.422 711.203ZM694.346 723H690.498L684.287 712.199H684.199C684.225 712.648 684.248 713.101 684.268 713.557C684.287 714.012 684.307 714.468 684.326 714.924C684.346 715.373 684.365 715.826 684.385 716.281V723H681.68V708.723H685.498L691.699 719.416H691.768C691.755 718.973 691.738 718.534 691.719 718.098C691.699 717.661 691.68 717.225 691.66 716.789C691.647 716.353 691.634 715.917 691.621 715.48V708.723H694.346V723Z" fill="white"/>
<mask id="path-26-inside-1_656_7961" fill="white">
<path d="M716.75 118.497C709.086 118.497 701.594 120.77 695.221 125.028C688.849 129.285 683.882 135.337 680.95 142.418C678.017 149.498 677.249 157.29 678.745 164.806C680.24 172.323 683.93 179.228 689.349 184.647C694.769 190.066 701.673 193.756 709.19 195.252C716.707 196.747 724.498 195.979 731.578 193.047C738.659 190.114 744.711 185.147 748.969 178.775C753.226 172.402 755.499 164.911 755.499 157.247L716.75 157.247V118.497Z"/>
</mask>
<path d="M716.75 118.497C709.086 118.497 701.594 120.77 695.221 125.028C688.849 129.285 683.882 135.337 680.95 142.418C678.017 149.498 677.249 157.29 678.745 164.806C680.24 172.323 683.93 179.228 689.349 184.647C694.769 190.066 701.673 193.756 709.19 195.252C716.707 196.747 724.498 195.979 731.578 193.047C738.659 190.114 744.711 185.147 748.969 178.775C753.226 172.402 755.499 164.911 755.499 157.247L716.75 157.247V118.497Z" stroke="#F5F5F5" stroke-width="16" mask="url(#path-26-inside-1_656_7961)"/>
<mask id="path-27-inside-2_656_7961" fill="white">
<path d="M794.25 118.499C786.587 118.499 779.095 116.226 772.722 111.969C766.35 107.711 761.383 101.659 758.451 94.5783C755.518 87.4977 754.75 79.7065 756.245 72.1898C757.741 64.6731 761.431 57.7686 766.85 52.3494C772.27 46.9302 779.174 43.2397 786.691 41.7445C794.208 40.2494 801.999 41.0167 809.079 43.9496C816.16 46.8825 822.212 51.8491 826.47 58.2215C830.727 64.5938 833 72.0856 833 79.7496L794.25 79.7495V118.499Z"/>
</mask>
<path d="M794.25 118.499C786.587 118.499 779.095 116.226 772.722 111.969C766.35 107.711 761.383 101.659 758.451 94.5783C755.518 87.4977 754.75 79.7065 756.245 72.1898C757.741 64.6731 761.431 57.7686 766.85 52.3494C772.27 46.9302 779.174 43.2397 786.691 41.7445C794.208 40.2494 801.999 41.0167 809.079 43.9496C816.16 46.8825 822.212 51.8491 826.47 58.2215C830.727 64.5938 833 72.0856 833 79.7496L794.25 79.7495V118.499Z" stroke="#F5F5F5" stroke-width="16" mask="url(#path-27-inside-2_656_7961)"/>
<mask id="path-28-inside-3_656_7961" fill="white">
<path d="M794.25 195.996C801.913 195.996 809.405 193.724 815.778 189.466C822.15 185.208 827.117 179.156 830.049 172.075C832.982 164.995 833.75 157.204 832.255 149.687C830.759 142.17 827.069 135.266 821.65 129.847C816.23 124.427 809.326 120.737 801.809 119.242C794.293 117.747 786.501 118.514 779.421 121.447C772.34 124.38 766.288 129.346 762.03 135.719C757.773 142.091 755.5 149.583 755.5 157.247H794.25V195.996Z"/>
</mask>
<path d="M794.25 195.996C801.913 195.996 809.405 193.724 815.778 189.466C822.15 185.208 827.117 179.156 830.049 172.075C832.982 164.995 833.75 157.204 832.255 149.687C830.759 142.17 827.069 135.266 821.65 129.847C816.23 124.427 809.326 120.737 801.809 119.242C794.293 117.747 786.501 118.514 779.421 121.447C772.34 124.38 766.288 129.346 762.03 135.719C757.773 142.091 755.5 149.583 755.5 157.247H794.25V195.996Z" stroke="#F3694C" stroke-width="16" mask="url(#path-28-inside-3_656_7961)"/>
<mask id="path-29-inside-4_656_7961" fill="white">
<path d="M716.75 41C724.414 41 731.906 43.2726 738.279 47.5304C744.651 51.7883 749.618 57.8401 752.55 64.9207C755.483 72.0013 756.251 79.7925 754.755 87.3092C753.26 94.8258 749.57 101.73 744.151 107.15C738.731 112.569 731.827 116.259 724.31 117.754C716.793 119.25 709.002 118.482 701.922 115.549C694.841 112.617 688.789 107.65 684.531 101.278C680.274 94.9052 678.001 87.4134 678.001 79.7494L716.75 79.7495V41Z"/>
</mask>
<path d="M716.75 41C724.414 41 731.906 43.2726 738.279 47.5304C744.651 51.7883 749.618 57.8401 752.55 64.9207C755.483 72.0013 756.251 79.7925 754.755 87.3092C753.26 94.8258 749.57 101.73 744.151 107.15C738.731 112.569 731.827 116.259 724.31 117.754C716.793 119.25 709.002 118.482 701.922 115.549C694.841 112.617 688.789 107.65 684.531 101.278C680.274 94.9052 678.001 87.4134 678.001 79.7494L716.75 79.7495V41Z" stroke="#F5F5F5" stroke-width="16" mask="url(#path-29-inside-4_656_7961)"/>
</g>
<defs>
<linearGradient id="paint0_linear_656_7961" x1="405" y1="0" x2="405" y2="823" gradientUnits="userSpaceOnUse">
<stop offset="0.529167" stop-color="#0420BF"/>
<stop offset="1" stop-opacity="0"/>
</linearGradient>
<clipPath id="clip0_656_7961">
<rect width="810" height="823" fill="white"/>
</clipPath>
<clipPath id="clip1_656_7961">
<rect width="382" height="823" fill="white"/>
</clipPath>
</defs>
</svg>
