<svg width="161" height="19" viewBox="0 0 161 19" fill="none" xmlns="http://www.w3.org/2000/svg">
<path d="M10.835 10.1267H18.9194V18.228H17.6704C13.8953 18.228 10.835 15.1676 10.835 11.3925V10.1267Z" fill="#0420BF"/>
<path d="M25.9932 8.10156L34.0776 8.10156V0.00030899L32.8286 0.00030899C29.0535 0.00030899 25.9932 3.06064 25.9932 6.83575V8.10156Z" fill="#0420BF"/>
<path d="M142.207 8.10156L150.291 8.10156V0.00030899L149.042 0.00030899C145.267 0.00030899 142.207 3.06064 142.207 6.83575V8.10156Z" fill="#0420BF"/>
<path d="M59.3416 8.10156V0.00030899H58.0926C54.3175 0.00030899 51.2571 3.06064 51.2571 6.83575V8.10156L59.3416 8.10156Z" fill="#0420BF"/>
<path d="M99.7634 8.10156V0.00030899H98.5145C94.7393 0.00030899 91.679 3.06064 91.679 6.83575V8.10156L99.7634 8.10156Z" fill="#0420BF"/>
<path d="M101.784 10.1267V18.228H103.033C106.809 18.228 109.869 15.1676 109.869 11.3925V10.1267H101.784Z" fill="#0420BF"/>
<path d="M99.7634 10.1267V18.228H98.5145C94.7393 18.228 91.679 15.1676 91.679 11.3925V10.1267H99.7634Z" fill="#0420BF"/>
<path d="M101.784 8.10156V0.00030899H103.033C106.809 0.00030899 109.869 3.06064 109.869 6.83575V8.10156L101.784 8.10156Z" fill="#0420BF"/>
<path d="M128.297 8.10156C132.072 8.10156 135.133 5.04123 135.133 1.26612V0.00030899H133.884C130.109 0.00030899 127.048 3.06064 127.048 6.83575V8.10156H128.297Z" fill="#F3694C"/>
<path d="M83.3562 8.10156C79.5811 8.10156 76.5208 5.04123 76.5208 1.26612V0.00030899H77.7697C81.5448 0.00030899 84.6052 3.06064 84.6052 6.83575V8.10156H83.3562Z" fill="#0420BF"/>
<path d="M77.77 18.2283C81.5451 18.2283 84.6055 15.1679 84.6055 11.3928V10.127H83.3565C79.5814 10.127 76.521 13.1873 76.521 16.9625V18.2283H77.77Z" fill="#0420BF"/>
<path d="M10.835 0H18.9194V8.10125H10.835V0Z" fill="#0420BF"/>
<path d="M25.9932 10.1267H34.0776V18.228H25.9932V10.1267Z" fill="#0420BF"/>
<path d="M142.207 10.1267H150.291V18.228H142.207V10.1267Z" fill="#0420BF"/>
<path d="M36.0989 10.1267H44.1833V18.228H36.0989V10.1267Z" fill="#0420BF"/>
<path d="M152.312 10.1267H160.397V18.228H152.312V10.1267Z" fill="#0420BF"/>
<path d="M51.2571 10.1267H59.3415V18.228H51.2571V10.1267Z" fill="#0420BF"/>
<path d="M116.943 0H125.027V8.10125H116.943V0Z" fill="#0420BF"/>
<path d="M116.943 10.1267H125.027V18.228H116.943V10.1267Z" fill="#0420BF"/>
<path d="M36.0989 0H37.3478C41.123 0 44.1833 3.06033 44.1833 6.83544V8.10125H36.0989V0Z" fill="#0420BF"/>
<path d="M152.312 0H153.561C157.336 0 160.397 3.06033 160.397 6.83544V8.10125H152.312V0Z" fill="#0420BF"/>
<path d="M0.729492 0H8.8139V8.10125H0.729492V0Z" fill="#0420BF"/>
<path d="M0.729492 10.1267H8.8139V18.228H7.56494C3.78982 18.228 0.729492 15.1676 0.729492 11.3925V10.1267Z" fill="#0420BF"/>
<path d="M74.4998 8.10156V0.00030899H73.2508C69.4757 0.00030899 66.4153 3.06064 66.4153 6.83575V8.10156L74.4998 8.10156Z" fill="#0420BF"/>
<path d="M74.4998 10.1267V18.228H73.2508C69.4757 18.228 66.4153 15.1676 66.4153 11.3925V10.1267H74.4998Z" fill="#0420BF"/>
</svg>
