<svg width="24" height="24" viewBox="0 0 24 24" fill="none" xmlns="http://www.w3.org/2000/svg">
<path fill-rule="evenodd" clip-rule="evenodd" d="M17.3444 21.8489C17.0989 21.9502 16.8356 22.0016 16.57 22C12.7277 21.9093 9.06075 20.3739 6.30003 17.7C3.62611 14.9393 2.09076 11.2723 2.00003 7.43002C1.9985 7.16443 2.04988 6.90119 2.15118 6.65567C2.25248 6.41015 2.40167 6.18726 2.59003 6.00002L5.29003 3.28002C5.4774 3.09377 5.73085 2.98923 5.99503 2.98923C6.25922 2.98923 6.51267 3.09377 6.70003 3.28002L10.7 7.28002C10.8863 7.46738 10.9908 7.72083 10.9908 7.98502C10.9908 8.24921 10.8863 8.50266 10.7 8.69002L9.11003 10.29C9.40766 11.3969 9.95115 12.4223 10.7 13.29C11.5663 14.0409 12.5923 14.5847 13.7 14.88L15.3 13.29C15.4874 13.1038 15.7408 12.9992 16.005 12.9992C16.2692 12.9992 16.5227 13.1038 16.71 13.29L20.71 17.29C20.8963 17.4774 21.0008 17.7308 21.0008 17.995C21.0008 18.2592 20.8963 18.5127 20.71 18.7L18 21.41C17.8128 21.5984 17.5899 21.7476 17.3444 21.8489ZM8.59003 8.00002L6.00003 5.41002L4.00003 7.41002C4.08564 10.7311 5.41295 13.8995 7.72003 16.29C10.1095 18.5912 13.2738 19.9146 16.59 20L18.59 18L16 15.41L14.71 16.73C14.5926 16.8469 14.4479 16.9327 14.2891 16.9799C14.1303 17.027 13.9622 17.0339 13.8 17C12.1291 16.6279 10.5804 15.8364 9.30003 14.7C8.16514 13.4187 7.3738 11.8704 7.00003 10.2C6.96987 10.0353 6.98153 9.86574 7.03395 9.70675C7.08636 9.54776 7.17785 9.40447 7.30003 9.29002L8.59003 8.00002Z" fill="#F3694C"/>
<path d="M20 11H22C22.026 9.81102 21.8109 8.62908 21.3678 7.52543C20.9247 6.42177 20.2627 5.41926 19.4217 4.57831C18.5808 3.73736 17.5783 3.07538 16.4746 2.63227C15.371 2.18916 14.189 1.97409 13 2.00002V4.00002C13.9279 3.96792 14.8525 4.12703 15.7163 4.46745C16.5801 4.80788 17.3647 5.32234 18.0212 5.97886C18.6777 6.63538 19.1922 7.41992 19.5326 8.28372C19.873 9.14752 20.0321 10.0721 20 11Z" fill="#F3694C"/>
<path d="M13 8C15.1 8 16 8.9 16 11H18C18 7.78 16.22 6 13 6V8Z" fill="#F3694C"/>
</svg>
