<svg width="58" height="59" viewBox="0 0 58 59" fill="none" xmlns="http://www.w3.org/2000/svg">
<path d="M13.1818 31.6382C10.5747 31.6382 8.02613 32.4113 5.85839 33.8598C3.69065 35.3083 2.00111 37.3672 1.00341 39.776C0.00570615 42.1848 -0.255338 44.8354 0.253284 47.3925C0.761907 49.9497 2.01735 52.2986 3.86086 54.1422C5.70437 55.9858 8.05315 57.2413 10.6102 57.75C13.1672 58.2586 15.8176 57.9976 18.2263 56.9998C20.6349 56.0021 22.6937 54.3124 24.1421 52.1446C25.5905 49.9767 26.3636 47.428 26.3636 44.8207L13.1818 44.8207L13.1818 31.6382Z" fill="#F5F5F5"/>
<path d="M44.8182 26.3651C42.2111 26.3651 39.6625 25.592 37.4948 24.1435C35.327 22.6949 33.6375 20.6361 32.6398 18.2273C31.6421 15.8185 31.381 13.1679 31.8896 10.6108C32.3983 8.05359 33.6537 5.70469 35.4972 3.86107C37.3407 2.01746 39.6895 0.761942 42.2466 0.253292C44.8036 -0.255357 47.454 0.00570547 49.8627 1.00347C52.2713 2.00123 54.33 3.69087 55.7785 5.85874C57.2269 8.0266 58 10.5753 58 13.1826L44.8182 13.1826L44.8182 26.3651Z" fill="#F5F5F5"/>
<path d="M44.8181 58.0033C47.4252 58.0033 49.9737 57.2302 52.1415 55.7816C54.3092 54.3331 55.9988 52.2743 56.9965 49.8655C57.9942 47.4567 58.2552 44.8061 57.7466 42.2489C57.238 39.6918 55.9825 37.3429 54.139 35.4993C52.2955 33.6556 49.9467 32.4001 47.3897 31.8915C44.8327 31.3828 42.1822 31.6439 39.7736 32.6416C37.3649 33.6394 35.3062 35.329 33.8578 37.4969C32.4093 39.6648 31.6362 42.2135 31.6362 44.8207L44.8181 44.8207L44.8181 58.0033Z" fill="#F3694C"/>
<path d="M13.182 -3.8147e-06C15.7891 -3.70073e-06 18.3376 0.773141 20.5054 2.22166C22.6731 3.67018 24.3627 5.72902 25.3604 8.13782C26.3581 10.5466 26.6191 13.1972 26.1105 15.7544C25.6019 18.3115 24.3464 20.6604 22.5029 22.504C20.6594 24.3477 18.3106 25.6032 15.7536 26.1118C13.1966 26.6205 10.5461 26.3594 8.13748 25.3617C5.72881 24.3639 3.67009 22.6743 2.22166 20.5064C0.773224 18.3385 0.000126758 15.7898 0.0001297 13.1825L13.1819 13.1826L13.182 -3.8147e-06Z" fill="#F5F5F5"/>
</svg>
