<svg width="14" height="14" viewBox="0 0 14 14" fill="none" xmlns="http://www.w3.org/2000/svg">
<path d="M7 0C10.8661 0 14 3.1339 14 7C14 10.8661 10.8661 14 7 14C3.1339 14 0 10.8661 0 7C0 3.1339 3.1339 0 7 0ZM7 0.9765C5.40247 0.9765 3.87037 1.61112 2.74074 2.74074C1.61112 3.87037 0.9765 5.40247 0.9765 7C0.9765 8.59753 1.61112 10.1296 2.74074 11.2593C3.87037 12.3889 5.40247 13.0235 7 13.0235C8.59753 13.0235 10.1296 12.3889 11.2593 11.2593C12.3889 10.1296 13.0235 8.59753 13.0235 7C13.0235 5.40247 12.3889 3.87037 11.2593 2.74074C10.1296 1.61112 8.59753 0.9765 7 0.9765ZM6.8985 5.047C7.168 5.047 7.3864 5.2661 7.3864 5.5356V10.8262C7.38162 10.9525 7.32808 11.072 7.23704 11.1597C7.146 11.2473 7.02453 11.2963 6.89815 11.2963C6.77177 11.2963 6.6503 11.2473 6.55926 11.1597C6.46822 11.072 6.41468 10.9525 6.4099 10.8262V5.5349C6.4099 5.2654 6.6283 5.047 6.8985 5.047ZM6.9181 3.094C7.09076 3.094 7.25634 3.16259 7.37843 3.28467C7.50051 3.40676 7.5691 3.57234 7.5691 3.745C7.5691 3.91766 7.50051 4.08324 7.37843 4.20533C7.25634 4.32741 7.09076 4.396 6.9181 4.396C6.74544 4.396 6.57986 4.32741 6.45777 4.20533C6.33569 4.08324 6.2671 3.91766 6.2671 3.745C6.2671 3.57234 6.33569 3.40676 6.45777 3.28467C6.57986 3.16259 6.74544 3.094 6.9181 3.094Z" fill="#999999"/>
</svg>
