<svg width="45" height="14" viewBox="0 0 45 14" fill="none" xmlns="http://www.w3.org/2000/svg">
<path d="M8.6543 5.91406V9.71484C8.51302 9.90169 8.29199 10.1068 7.99121 10.3301C7.69499 10.5488 7.30078 10.738 6.80859 10.8975C6.31641 11.057 5.70345 11.1367 4.96973 11.1367C4.34538 11.1367 3.77344 11.0319 3.25391 10.8223C2.73438 10.6081 2.28548 10.2959 1.90723 9.88574C1.53353 9.47559 1.24414 8.97656 1.03906 8.38867C0.833984 7.79622 0.731445 7.12174 0.731445 6.36523V5.6748C0.731445 4.92285 0.82487 4.25293 1.01172 3.66504C1.20312 3.07259 1.47656 2.57129 1.83203 2.16113C2.1875 1.75098 2.61589 1.44108 3.11719 1.23145C3.62305 1.01725 4.19499 0.910156 4.83301 0.910156C5.64876 0.910156 6.32324 1.04688 6.85645 1.32031C7.39421 1.58919 7.80892 1.96289 8.10059 2.44141C8.39225 2.91992 8.57682 3.4668 8.6543 4.08203H6.97266C6.91797 3.73568 6.81087 3.42578 6.65137 3.15234C6.49642 2.87891 6.27311 2.66471 5.98145 2.50977C5.69434 2.35026 5.32064 2.27051 4.86035 2.27051C4.46387 2.27051 4.11523 2.3457 3.81445 2.49609C3.51367 2.64648 3.26302 2.86751 3.0625 3.15918C2.86654 3.45085 2.71842 3.80632 2.61816 4.22559C2.5179 4.64486 2.46777 5.12337 2.46777 5.66113V6.36523C2.46777 6.91211 2.52474 7.39746 2.63867 7.82129C2.75716 8.24512 2.92578 8.60286 3.14453 8.89453C3.36784 9.1862 3.639 9.40723 3.95801 9.55762C4.27702 9.70345 4.63704 9.77637 5.03809 9.77637C5.43001 9.77637 5.7513 9.74447 6.00195 9.68066C6.2526 9.6123 6.45085 9.53255 6.59668 9.44141C6.74707 9.3457 6.86328 9.25456 6.94531 9.16797V7.19238H4.87402V5.91406H8.6543ZM10.0762 7.38379V7.22656C10.0762 6.69336 10.1536 6.19889 10.3086 5.74316C10.4635 5.28288 10.6868 4.88411 10.9785 4.54688C11.2747 4.20508 11.6348 3.94076 12.0586 3.75391C12.487 3.5625 12.9701 3.4668 13.5078 3.4668C14.0501 3.4668 14.5332 3.5625 14.957 3.75391C15.3854 3.94076 15.7477 4.20508 16.0439 4.54688C16.3402 4.88411 16.5658 5.28288 16.7207 5.74316C16.8757 6.19889 16.9531 6.69336 16.9531 7.22656V7.38379C16.9531 7.91699 16.8757 8.41146 16.7207 8.86719C16.5658 9.32292 16.3402 9.72168 16.0439 10.0635C15.7477 10.4007 15.3877 10.665 14.9639 10.8564C14.54 11.0433 14.0592 11.1367 13.5215 11.1367C12.9792 11.1367 12.4938 11.0433 12.0654 10.8564C11.6416 10.665 11.2816 10.4007 10.9854 10.0635C10.6891 9.72168 10.4635 9.32292 10.3086 8.86719C10.1536 8.41146 10.0762 7.91699 10.0762 7.38379ZM11.7236 7.22656V7.38379C11.7236 7.71647 11.7578 8.03092 11.8262 8.32715C11.8945 8.62337 12.0016 8.88314 12.1475 9.10645C12.2933 9.32975 12.4801 9.50521 12.708 9.63281C12.9359 9.76042 13.207 9.82422 13.5215 9.82422C13.8268 9.82422 14.0911 9.76042 14.3145 9.63281C14.5423 9.50521 14.7292 9.32975 14.875 9.10645C15.0208 8.88314 15.1279 8.62337 15.1963 8.32715C15.2692 8.03092 15.3057 7.71647 15.3057 7.38379V7.22656C15.3057 6.89844 15.2692 6.58854 15.1963 6.29688C15.1279 6.00065 15.0186 5.73861 14.8682 5.51074C14.7223 5.28288 14.5355 5.10514 14.3076 4.97754C14.0843 4.84538 13.8177 4.7793 13.5078 4.7793C13.1979 4.7793 12.929 4.84538 12.7012 4.97754C12.4779 5.10514 12.2933 5.28288 12.1475 5.51074C12.0016 5.73861 11.8945 6.00065 11.8262 6.29688C11.7578 6.58854 11.7236 6.89844 11.7236 7.22656ZM18.0195 7.38379V7.22656C18.0195 6.69336 18.097 6.19889 18.252 5.74316C18.4069 5.28288 18.6302 4.88411 18.9219 4.54688C19.2181 4.20508 19.5781 3.94076 20.002 3.75391C20.4303 3.5625 20.9134 3.4668 21.4512 3.4668C21.9935 3.4668 22.4766 3.5625 22.9004 3.75391C23.3288 3.94076 23.6911 4.20508 23.9873 4.54688C24.2835 4.88411 24.5091 5.28288 24.6641 5.74316C24.819 6.19889 24.8965 6.69336 24.8965 7.22656V7.38379C24.8965 7.91699 24.819 8.41146 24.6641 8.86719C24.5091 9.32292 24.2835 9.72168 23.9873 10.0635C23.6911 10.4007 23.3311 10.665 22.9072 10.8564C22.4834 11.0433 22.0026 11.1367 21.4648 11.1367C20.9225 11.1367 20.4372 11.0433 20.0088 10.8564C19.585 10.665 19.2249 10.4007 18.9287 10.0635C18.6325 9.72168 18.4069 9.32292 18.252 8.86719C18.097 8.41146 18.0195 7.91699 18.0195 7.38379ZM19.667 7.22656V7.38379C19.667 7.71647 19.7012 8.03092 19.7695 8.32715C19.8379 8.62337 19.945 8.88314 20.0908 9.10645C20.2367 9.32975 20.4235 9.50521 20.6514 9.63281C20.8792 9.76042 21.1504 9.82422 21.4648 9.82422C21.7702 9.82422 22.0345 9.76042 22.2578 9.63281C22.4857 9.50521 22.6725 9.32975 22.8184 9.10645C22.9642 8.88314 23.0713 8.62337 23.1396 8.32715C23.2126 8.03092 23.249 7.71647 23.249 7.38379V7.22656C23.249 6.89844 23.2126 6.58854 23.1396 6.29688C23.0713 6.00065 22.9619 5.73861 22.8115 5.51074C22.6657 5.28288 22.4788 5.10514 22.251 4.97754C22.0277 4.84538 21.7611 4.7793 21.4512 4.7793C21.1413 4.7793 20.8724 4.84538 20.6445 4.97754C20.4212 5.10514 20.2367 5.28288 20.0908 5.51074C19.945 5.73861 19.8379 6.00065 19.7695 6.29688C19.7012 6.58854 19.667 6.89844 19.667 7.22656ZM31.0146 3.60352H32.5117V10.7949C32.5117 11.4603 32.3704 12.0254 32.0879 12.4902C31.8053 12.9551 31.4111 13.3083 30.9053 13.5498C30.3994 13.7959 29.8138 13.9189 29.1484 13.9189C28.8659 13.9189 28.5514 13.8779 28.2051 13.7959C27.8633 13.7139 27.5306 13.5817 27.207 13.3994C26.888 13.2217 26.6214 12.987 26.4072 12.6953L27.1797 11.7246C27.444 12.0391 27.7357 12.2692 28.0547 12.415C28.3737 12.5609 28.7087 12.6338 29.0596 12.6338C29.4378 12.6338 29.7591 12.5632 30.0234 12.4219C30.2923 12.2852 30.4997 12.0824 30.6455 11.8135C30.7913 11.5446 30.8643 11.2165 30.8643 10.8291V5.27832L31.0146 3.60352ZM25.9902 7.38379V7.24023C25.9902 6.67969 26.0586 6.16927 26.1953 5.70898C26.332 5.24414 26.528 4.84538 26.7832 4.5127C27.0384 4.17546 27.3483 3.91797 27.7129 3.74023C28.0775 3.55794 28.4899 3.4668 28.9502 3.4668C29.4287 3.4668 29.8366 3.55339 30.1738 3.72656C30.5156 3.89974 30.8005 4.14811 31.0283 4.47168C31.2562 4.79069 31.4339 5.1735 31.5615 5.62012C31.6937 6.06217 31.7917 6.55436 31.8555 7.09668V7.55469C31.7962 8.08333 31.696 8.56641 31.5547 9.00391C31.4134 9.44141 31.2266 9.81966 30.9941 10.1387C30.7617 10.4577 30.4746 10.7038 30.1328 10.877C29.7956 11.0501 29.3968 11.1367 28.9365 11.1367C28.4854 11.1367 28.0775 11.0433 27.7129 10.8564C27.3529 10.6696 27.043 10.4076 26.7832 10.0703C26.528 9.73307 26.332 9.33659 26.1953 8.88086C26.0586 8.42057 25.9902 7.92155 25.9902 7.38379ZM27.6377 7.24023V7.38379C27.6377 7.72103 27.6696 8.03548 27.7334 8.32715C27.8018 8.61882 27.9043 8.8763 28.041 9.09961C28.1823 9.31836 28.36 9.49154 28.5742 9.61914C28.793 9.74219 29.0505 9.80371 29.3467 9.80371C29.734 9.80371 30.0508 9.72168 30.2969 9.55762C30.5475 9.39355 30.7389 9.17253 30.8711 8.89453C31.0078 8.61198 31.1035 8.29753 31.1582 7.95117V6.71387C31.1309 6.44499 31.0739 6.19434 30.9873 5.96191C30.9053 5.72949 30.7936 5.52669 30.6523 5.35352C30.5111 5.17578 30.3333 5.03906 30.1191 4.94336C29.9049 4.8431 29.652 4.79297 29.3604 4.79297C29.0641 4.79297 28.8066 4.85677 28.5879 4.98438C28.3691 5.11198 28.1891 5.28743 28.0479 5.51074C27.9111 5.73405 27.8086 5.99382 27.7402 6.29004C27.6719 6.58626 27.6377 6.90299 27.6377 7.24023ZM35.9844 0.5V11H34.3301V0.5H35.9844ZM41.0498 11.1367C40.5029 11.1367 40.0085 11.0479 39.5664 10.8701C39.1289 10.6878 38.7552 10.4349 38.4453 10.1113C38.14 9.78776 37.9053 9.40723 37.7412 8.96973C37.5771 8.53223 37.4951 8.06055 37.4951 7.55469V7.28125C37.4951 6.70247 37.5794 6.17839 37.748 5.70898C37.9167 5.23958 38.1514 4.83854 38.4521 4.50586C38.7529 4.16862 39.1084 3.91113 39.5186 3.7334C39.9287 3.55566 40.373 3.4668 40.8516 3.4668C41.3802 3.4668 41.8428 3.55566 42.2393 3.7334C42.6357 3.91113 42.9639 4.16178 43.2236 4.48535C43.488 4.80436 43.6839 5.1849 43.8115 5.62695C43.9437 6.06901 44.0098 6.55664 44.0098 7.08984V7.79395H38.2949V6.61133H42.3828V6.48145C42.3737 6.18522 42.3145 5.90723 42.2051 5.64746C42.1003 5.3877 41.9385 5.17806 41.7197 5.01855C41.501 4.85905 41.2093 4.7793 40.8447 4.7793C40.5713 4.7793 40.3275 4.83854 40.1133 4.95703C39.9036 5.07096 39.7282 5.2373 39.5869 5.45605C39.4456 5.6748 39.3363 5.93913 39.2588 6.24902C39.1859 6.55436 39.1494 6.89844 39.1494 7.28125V7.55469C39.1494 7.87826 39.1927 8.17904 39.2793 8.45703C39.3704 8.73047 39.5026 8.96973 39.6758 9.1748C39.849 9.37988 40.0586 9.54167 40.3047 9.66016C40.5508 9.77409 40.8311 9.83105 41.1455 9.83105C41.542 9.83105 41.8952 9.7513 42.2051 9.5918C42.515 9.43229 42.7839 9.20671 43.0117 8.91504L43.8799 9.75586C43.7204 9.98828 43.513 10.2116 43.2578 10.4258C43.0026 10.6354 42.6904 10.8063 42.3213 10.9385C41.9567 11.0706 41.5329 11.1367 41.0498 11.1367Z" fill="#757575"/>
</svg>
