<svg width="34" height="34" viewBox="0 0 34 34" fill="none" xmlns="http://www.w3.org/2000/svg">
<rect width="34" height="34" rx="2" fill="white"/>
<path fill-rule="evenodd" clip-rule="evenodd" d="M25.64 17.2046C25.64 16.5664 25.5827 15.9527 25.4764 15.3636H17V18.845H21.8436C21.635 19.97 21.0009 20.9232 20.0477 21.5614V23.8196H22.9564C24.6582 22.2527 25.64 19.9455 25.64 17.2046Z" fill="#4285F4"/>
<path fill-rule="evenodd" clip-rule="evenodd" d="M17 26C19.43 26 21.4673 25.1941 22.9564 23.8195L20.0477 21.5613C19.2418 22.1013 18.2109 22.4204 17 22.4204C14.6559 22.4204 12.6718 20.8372 11.9641 18.71H8.95728V21.0418C10.4382 23.9831 13.4818 26 17 26Z" fill="#34A853"/>
<path fill-rule="evenodd" clip-rule="evenodd" d="M11.9641 18.7099C11.7841 18.1699 11.6818 17.5931 11.6818 16.9999C11.6818 16.4068 11.7841 15.8299 11.9641 15.2899V12.9581H8.95727C8.34773 14.1731 8 15.5477 8 16.9999C8 18.4522 8.34773 19.8268 8.95727 21.0418L11.9641 18.7099Z" fill="#FBBC05"/>
<path fill-rule="evenodd" clip-rule="evenodd" d="M17 11.5795C18.3214 11.5795 19.5077 12.0336 20.4405 12.9255L23.0218 10.3441C21.4632 8.89182 19.4259 8 17 8C13.4818 8 10.4382 10.0168 8.95728 12.9582L11.9641 15.29C12.6718 13.1627 14.6559 11.5795 17 11.5795Z" fill="#EA4335"/>
</svg>
