<svg width="106" height="43" viewBox="0 0 106 43" fill="none" xmlns="http://www.w3.org/2000/svg">
<g filter="url(#filter0_dd_851_10521)">
<rect x="1" y="1" width="104" height="40" rx="2" fill="white"/>
<path d="M60.6543 20.9141V24.7148C60.513 24.9017 60.292 25.1068 59.9912 25.3301C59.695 25.5488 59.3008 25.738 58.8086 25.8975C58.3164 26.057 57.7035 26.1367 56.9697 26.1367C56.3454 26.1367 55.7734 26.0319 55.2539 25.8223C54.7344 25.6081 54.2855 25.2959 53.9072 24.8857C53.5335 24.4756 53.2441 23.9766 53.0391 23.3887C52.834 22.7962 52.7314 22.1217 52.7314 21.3652V20.6748C52.7314 19.9229 52.8249 19.2529 53.0117 18.665C53.2031 18.0726 53.4766 17.5713 53.832 17.1611C54.1875 16.751 54.6159 16.4411 55.1172 16.2314C55.623 16.0173 56.195 15.9102 56.833 15.9102C57.6488 15.9102 58.3232 16.0469 58.8564 16.3203C59.3942 16.5892 59.8089 16.9629 60.1006 17.4414C60.3923 17.9199 60.5768 18.4668 60.6543 19.082H58.9727C58.918 18.7357 58.8109 18.4258 58.6514 18.1523C58.4964 17.8789 58.2731 17.6647 57.9814 17.5098C57.6943 17.3503 57.3206 17.2705 56.8604 17.2705C56.4639 17.2705 56.1152 17.3457 55.8145 17.4961C55.5137 17.6465 55.263 17.8675 55.0625 18.1592C54.8665 18.4508 54.7184 18.8063 54.6182 19.2256C54.5179 19.6449 54.4678 20.1234 54.4678 20.6611V21.3652C54.4678 21.9121 54.5247 22.3975 54.6387 22.8213C54.7572 23.2451 54.9258 23.6029 55.1445 23.8945C55.3678 24.1862 55.639 24.4072 55.958 24.5576C56.277 24.7035 56.637 24.7764 57.0381 24.7764C57.43 24.7764 57.7513 24.7445 58.002 24.6807C58.2526 24.6123 58.4508 24.5326 58.5967 24.4414C58.7471 24.3457 58.8633 24.2546 58.9453 24.168V22.1924H56.874V20.9141H60.6543ZM62.0762 22.3838V22.2266C62.0762 21.6934 62.1536 21.1989 62.3086 20.7432C62.4635 20.2829 62.6868 19.8841 62.9785 19.5469C63.2747 19.2051 63.6348 18.9408 64.0586 18.7539C64.487 18.5625 64.9701 18.4668 65.5078 18.4668C66.0501 18.4668 66.5332 18.5625 66.957 18.7539C67.3854 18.9408 67.7477 19.2051 68.0439 19.5469C68.3402 19.8841 68.5658 20.2829 68.7207 20.7432C68.8757 21.1989 68.9531 21.6934 68.9531 22.2266V22.3838C68.9531 22.917 68.8757 23.4115 68.7207 23.8672C68.5658 24.3229 68.3402 24.7217 68.0439 25.0635C67.7477 25.4007 67.3877 25.665 66.9639 25.8564C66.54 26.0433 66.0592 26.1367 65.5215 26.1367C64.9792 26.1367 64.4938 26.0433 64.0654 25.8564C63.6416 25.665 63.2816 25.4007 62.9854 25.0635C62.6891 24.7217 62.4635 24.3229 62.3086 23.8672C62.1536 23.4115 62.0762 22.917 62.0762 22.3838ZM63.7236 22.2266V22.3838C63.7236 22.7165 63.7578 23.0309 63.8262 23.3271C63.8945 23.6234 64.0016 23.8831 64.1475 24.1064C64.2933 24.3298 64.4801 24.5052 64.708 24.6328C64.9359 24.7604 65.207 24.8242 65.5215 24.8242C65.8268 24.8242 66.0911 24.7604 66.3145 24.6328C66.5423 24.5052 66.7292 24.3298 66.875 24.1064C67.0208 23.8831 67.1279 23.6234 67.1963 23.3271C67.2692 23.0309 67.3057 22.7165 67.3057 22.3838V22.2266C67.3057 21.8984 67.2692 21.5885 67.1963 21.2969C67.1279 21.0007 67.0186 20.7386 66.8682 20.5107C66.7223 20.2829 66.5355 20.1051 66.3076 19.9775C66.0843 19.8454 65.8177 19.7793 65.5078 19.7793C65.1979 19.7793 64.929 19.8454 64.7012 19.9775C64.4779 20.1051 64.2933 20.2829 64.1475 20.5107C64.0016 20.7386 63.8945 21.0007 63.8262 21.2969C63.7578 21.5885 63.7236 21.8984 63.7236 22.2266ZM70.0195 22.3838V22.2266C70.0195 21.6934 70.097 21.1989 70.252 20.7432C70.4069 20.2829 70.6302 19.8841 70.9219 19.5469C71.2181 19.2051 71.5781 18.9408 72.002 18.7539C72.4303 18.5625 72.9134 18.4668 73.4512 18.4668C73.9935 18.4668 74.4766 18.5625 74.9004 18.7539C75.3288 18.9408 75.6911 19.2051 75.9873 19.5469C76.2835 19.8841 76.5091 20.2829 76.6641 20.7432C76.819 21.1989 76.8965 21.6934 76.8965 22.2266V22.3838C76.8965 22.917 76.819 23.4115 76.6641 23.8672C76.5091 24.3229 76.2835 24.7217 75.9873 25.0635C75.6911 25.4007 75.3311 25.665 74.9072 25.8564C74.4834 26.0433 74.0026 26.1367 73.4648 26.1367C72.9225 26.1367 72.4372 26.0433 72.0088 25.8564C71.585 25.665 71.2249 25.4007 70.9287 25.0635C70.6325 24.7217 70.4069 24.3229 70.252 23.8672C70.097 23.4115 70.0195 22.917 70.0195 22.3838ZM71.667 22.2266V22.3838C71.667 22.7165 71.7012 23.0309 71.7695 23.3271C71.8379 23.6234 71.945 23.8831 72.0908 24.1064C72.2367 24.3298 72.4235 24.5052 72.6514 24.6328C72.8792 24.7604 73.1504 24.8242 73.4648 24.8242C73.7702 24.8242 74.0345 24.7604 74.2578 24.6328C74.4857 24.5052 74.6725 24.3298 74.8184 24.1064C74.9642 23.8831 75.0713 23.6234 75.1396 23.3271C75.2126 23.0309 75.249 22.7165 75.249 22.3838V22.2266C75.249 21.8984 75.2126 21.5885 75.1396 21.2969C75.0713 21.0007 74.9619 20.7386 74.8115 20.5107C74.6657 20.2829 74.4788 20.1051 74.251 19.9775C74.0277 19.8454 73.7611 19.7793 73.4512 19.7793C73.1413 19.7793 72.8724 19.8454 72.6445 19.9775C72.4212 20.1051 72.2367 20.2829 72.0908 20.5107C71.945 20.7386 71.8379 21.0007 71.7695 21.2969C71.7012 21.5885 71.667 21.8984 71.667 22.2266ZM83.0146 18.6035H84.5117V25.7949C84.5117 26.4603 84.3704 27.0254 84.0879 27.4902C83.8053 27.9551 83.4111 28.3083 82.9053 28.5498C82.3994 28.7959 81.8138 28.9189 81.1484 28.9189C80.8659 28.9189 80.5514 28.8779 80.2051 28.7959C79.8633 28.7139 79.5306 28.5817 79.207 28.3994C78.888 28.2217 78.6214 27.987 78.4072 27.6953L79.1797 26.7246C79.444 27.0391 79.7357 27.2692 80.0547 27.415C80.3737 27.5609 80.7087 27.6338 81.0596 27.6338C81.4378 27.6338 81.7591 27.5632 82.0234 27.4219C82.2923 27.2852 82.4997 27.0824 82.6455 26.8135C82.7913 26.5446 82.8643 26.2165 82.8643 25.8291V20.2783L83.0146 18.6035ZM77.9902 22.3838V22.2402C77.9902 21.6797 78.0586 21.1693 78.1953 20.709C78.332 20.2441 78.528 19.8454 78.7832 19.5127C79.0384 19.1755 79.3483 18.918 79.7129 18.7402C80.0775 18.5579 80.4899 18.4668 80.9502 18.4668C81.4287 18.4668 81.8366 18.5534 82.1738 18.7266C82.5156 18.8997 82.8005 19.1481 83.0283 19.4717C83.2562 19.7907 83.4339 20.1735 83.5615 20.6201C83.6937 21.0622 83.7917 21.5544 83.8555 22.0967V22.5547C83.7962 23.0833 83.696 23.5664 83.5547 24.0039C83.4134 24.4414 83.2266 24.8197 82.9941 25.1387C82.7617 25.4577 82.4746 25.7038 82.1328 25.877C81.7956 26.0501 81.3968 26.1367 80.9365 26.1367C80.4854 26.1367 80.0775 26.0433 79.7129 25.8564C79.3529 25.6696 79.043 25.4076 78.7832 25.0703C78.528 24.7331 78.332 24.3366 78.1953 23.8809C78.0586 23.4206 77.9902 22.9215 77.9902 22.3838ZM79.6377 22.2402V22.3838C79.6377 22.721 79.6696 23.0355 79.7334 23.3271C79.8018 23.6188 79.9043 23.8763 80.041 24.0996C80.1823 24.3184 80.36 24.4915 80.5742 24.6191C80.793 24.7422 81.0505 24.8037 81.3467 24.8037C81.734 24.8037 82.0508 24.7217 82.2969 24.5576C82.5475 24.3936 82.7389 24.1725 82.8711 23.8945C83.0078 23.612 83.1035 23.2975 83.1582 22.9512V21.7139C83.1309 21.445 83.0739 21.1943 82.9873 20.9619C82.9053 20.7295 82.7936 20.5267 82.6523 20.3535C82.5111 20.1758 82.3333 20.0391 82.1191 19.9434C81.9049 19.8431 81.652 19.793 81.3604 19.793C81.0641 19.793 80.8066 19.8568 80.5879 19.9844C80.3691 20.112 80.1891 20.2874 80.0479 20.5107C79.9111 20.734 79.8086 20.9938 79.7402 21.29C79.6719 21.5863 79.6377 21.903 79.6377 22.2402ZM87.9844 15.5V26H86.3301V15.5H87.9844ZM93.0498 26.1367C92.5029 26.1367 92.0085 26.0479 91.5664 25.8701C91.1289 25.6878 90.7552 25.4349 90.4453 25.1113C90.14 24.7878 89.9053 24.4072 89.7412 23.9697C89.5771 23.5322 89.4951 23.0605 89.4951 22.5547V22.2812C89.4951 21.7025 89.5794 21.1784 89.748 20.709C89.9167 20.2396 90.1514 19.8385 90.4521 19.5059C90.7529 19.1686 91.1084 18.9111 91.5186 18.7334C91.9287 18.5557 92.373 18.4668 92.8516 18.4668C93.3802 18.4668 93.8428 18.5557 94.2393 18.7334C94.6357 18.9111 94.9639 19.1618 95.2236 19.4854C95.488 19.8044 95.6839 20.1849 95.8115 20.627C95.9437 21.069 96.0098 21.5566 96.0098 22.0898V22.7939H90.2949V21.6113H94.3828V21.4814C94.3737 21.1852 94.3145 20.9072 94.2051 20.6475C94.1003 20.3877 93.9385 20.1781 93.7197 20.0186C93.501 19.859 93.2093 19.7793 92.8447 19.7793C92.5713 19.7793 92.3275 19.8385 92.1133 19.957C91.9036 20.071 91.7282 20.2373 91.5869 20.4561C91.4456 20.6748 91.3363 20.9391 91.2588 21.249C91.1859 21.5544 91.1494 21.8984 91.1494 22.2812V22.5547C91.1494 22.8783 91.1927 23.179 91.2793 23.457C91.3704 23.7305 91.5026 23.9697 91.6758 24.1748C91.849 24.3799 92.0586 24.5417 92.3047 24.6602C92.5508 24.7741 92.8311 24.8311 93.1455 24.8311C93.542 24.8311 93.8952 24.7513 94.2051 24.5918C94.515 24.4323 94.7839 24.2067 95.0117 23.915L95.8799 24.7559C95.7204 24.9883 95.513 25.2116 95.2578 25.4258C95.0026 25.6354 94.6904 25.8063 94.3213 25.9385C93.9567 26.0706 93.5329 26.1367 93.0498 26.1367Z" fill="#757575"/>
</g>
<defs>
<filter id="filter0_dd_851_10521" x="0" y="0" width="106" height="43" filterUnits="userSpaceOnUse" color-interpolation-filters="sRGB">
<feFlood flood-opacity="0" result="BackgroundImageFix"/>
<feColorMatrix in="SourceAlpha" type="matrix" values="0 0 0 0 0 0 0 0 0 0 0 0 0 0 0 0 0 0 127 0" result="hardAlpha"/>
<feOffset dy="1"/>
<feGaussianBlur stdDeviation="0.5"/>
<feColorMatrix type="matrix" values="0 0 0 0 0 0 0 0 0 0 0 0 0 0 0 0 0 0 0.168 0"/>
<feBlend mode="normal" in2="BackgroundImageFix" result="effect1_dropShadow_851_10521"/>
<feColorMatrix in="SourceAlpha" type="matrix" values="0 0 0 0 0 0 0 0 0 0 0 0 0 0 0 0 0 0 127 0" result="hardAlpha"/>
<feOffset/>
<feGaussianBlur stdDeviation="0.5"/>
<feColorMatrix type="matrix" values="0 0 0 0 0 0 0 0 0 0 0 0 0 0 0 0 0 0 0.084 0"/>
<feBlend mode="normal" in2="effect1_dropShadow_851_10521" result="effect2_dropShadow_851_10521"/>
<feBlend mode="normal" in="SourceGraphic" in2="effect2_dropShadow_851_10521" result="shape"/>
</filter>
</defs>
</svg>
