<svg width="160" height="18" viewBox="0 0 160 18" fill="none" xmlns="http://www.w3.org/2000/svg">
<path d="M10.127 9.99991H18.2282V17.9997H16.9624C13.1873 17.9997 10.127 14.9394 10.127 11.1643V9.99991Z" fill="#0420BF"/>
<path d="M25.3164 8.00009L33.4177 8.00009V0.000288963H32.1518C28.3767 0.000288963 25.3164 3.06062 25.3164 6.83573V8.00009Z" fill="#0420BF"/>
<path d="M141.772 8.00009L149.873 8.00009V0.000288963H148.607C144.832 0.000288963 141.772 3.06062 141.772 6.83573V8.00009Z" fill="#0420BF"/>
<path d="M58.7344 8.00009V0.000288963H57.4686C53.6935 0.000288963 50.6331 3.06062 50.6331 6.83573V8.00009L58.7344 8.00009Z" fill="#0420BF"/>
<path d="M99.2402 8.00009V0.000288963H97.9744C94.1993 0.000288963 91.139 3.06062 91.139 6.83573V8.00009L99.2402 8.00009Z" fill="#0420BF"/>
<path d="M101.266 9.99991V17.9997H102.531C106.307 17.9997 109.367 14.9394 109.367 11.1643V9.99991H101.266Z" fill="#0420BF"/>
<path d="M99.2402 9.99991V17.9997H97.9744C94.1993 17.9997 91.139 14.9394 91.139 11.1643V9.99991H99.2402Z" fill="#0420BF"/>
<path d="M101.266 8.00009V0.000288963H102.531C106.307 0.000288963 109.367 3.06062 109.367 6.83573V8.00009L101.266 8.00009Z" fill="#0420BF"/>
<path d="M127.848 8.00009C131.623 8.00009 134.684 4.93976 134.684 1.16465V0.000288963H133.418C129.643 0.000288963 126.582 3.06062 126.582 6.83573V8.00009H127.848Z" fill="#F3694C"/>
<path d="M82.7847 8.00009C79.0095 8.00009 75.9492 4.93976 75.9492 1.16465V0.000288963H77.215C80.9901 0.000288963 84.0505 3.06062 84.0505 6.83573V8.00009H82.7847Z" fill="#0420BF"/>
<path d="M77.2153 18C80.9905 18 84.0508 14.9397 84.0508 11.1646V10.0002H82.785C79.0099 10.0002 75.9495 13.0605 75.9495 16.8356V18H77.2153Z" fill="#0420BF"/>
<path d="M10.127 0H18.2282V7.9998H10.127V0Z" fill="#0420BF"/>
<path d="M25.3164 9.99991H33.4177V17.9997H25.3164V9.99991Z" fill="#0420BF"/>
<path d="M141.772 9.99991H149.873V17.9997H141.772V9.99991Z" fill="#0420BF"/>
<path d="M35.4429 9.99991H43.5441V17.9997H35.4429V9.99991Z" fill="#0420BF"/>
<path d="M151.898 9.99991H160V17.9997H151.898V9.99991Z" fill="#0420BF"/>
<path d="M50.6328 9.99991H58.7341V17.9997H50.6328V9.99991Z" fill="#0420BF"/>
<path d="M116.456 0H124.557V7.9998H116.456V0Z" fill="#0420BF"/>
<path d="M116.456 9.99991H124.557V17.9997H116.456V9.99991Z" fill="#0420BF"/>
<path d="M35.4429 0H36.7087C40.4838 0 43.5441 3.06033 43.5441 6.83544V7.9998H35.4429V0Z" fill="#0420BF"/>
<path d="M151.898 0H153.164C156.939 0 160 3.06033 160 6.83544V7.9998H151.898V0Z" fill="#0420BF"/>
<path d="M0 0H8.10125V7.9998H0V0Z" fill="#0420BF"/>
<path d="M0 9.99991H8.10125V17.9997H6.83544C3.06033 17.9997 0 14.9394 0 11.1643V9.99991Z" fill="#0420BF"/>
<path d="M73.9238 8.00009V0.000288963H72.658C68.8829 0.000288963 65.8226 3.06062 65.8226 6.83573V8.00009L73.9238 8.00009Z" fill="#0420BF"/>
<path d="M73.9238 9.99991V17.9997H72.658C68.8829 17.9997 65.8226 14.9394 65.8226 11.1643V9.99991H73.9238Z" fill="#0420BF"/>
</svg>
