<svg width="12" height="14" viewBox="0 0 12 14" fill="none" xmlns="http://www.w3.org/2000/svg">
<path d="M11.878 6.45733C11.7209 5.68956 11.4139 4.96032 10.9747 4.31133C10.5431 3.67285 9.99315 3.12294 9.35467 2.69133C8.7056 2.25221 7.97638 1.94526 7.20867 1.78799C6.8054 1.70621 6.39481 1.666 5.98333 1.66799V0.333328L3.33333 2.33333L5.98333 4.33333V3.00133C6.306 2.99999 6.62867 3.03066 6.94 3.09466C7.53668 3.21693 8.10345 3.45547 8.608 3.79666C9.10558 4.13216 9.53384 4.56041 9.86933 5.05799C10.3902 5.82815 10.668 6.7369 10.6667 7.66666C10.6666 8.29058 10.5419 8.90821 10.3 9.48333C10.1824 9.76036 10.0386 10.0256 9.87067 10.2753C9.70207 10.5236 9.51057 10.7555 9.29867 10.968C8.65333 11.6121 7.83407 12.054 6.94133 12.2393C6.32048 12.3647 5.68085 12.3647 5.06 12.2393C4.46304 12.1169 3.89603 11.8782 3.39133 11.5367C2.89432 11.2015 2.46653 10.7737 2.13133 10.2767C1.61104 9.50569 1.33314 8.59677 1.33333 7.66666H0C0.000709447 8.86246 0.357924 10.0309 1.026 11.0227C1.4579 11.6601 2.00724 12.2094 2.64467 12.6413C3.63508 13.3116 4.80407 13.6689 6 13.6667C6.40618 13.6666 6.81133 13.6258 7.20933 13.5447C7.97649 13.3863 8.70527 13.0794 9.35467 12.6413C9.67352 12.4265 9.9707 12.1811 10.242 11.9087C10.5137 11.6362 10.7592 11.3389 10.9753 11.0207C11.6451 10.0305 12.0021 8.86205 12 7.66666C12 7.26048 11.9591 6.85533 11.878 6.45733Z" fill="#7D7D7D"/>
</svg>
