<svg width="33" height="34" viewBox="0 0 33 34" fill="none" xmlns="http://www.w3.org/2000/svg">
<g clip-path="url(#clip0_1005_9597)">
<path d="M33.0001 17.098C33.0001 8.20599 25.8361 0.997986 17.0001 0.997986C8.16009 0.999986 0.996094 8.20599 0.996094 17.1C0.996094 25.134 6.84809 31.794 14.4961 33.002V21.752H10.4361V17.1H14.5001V13.55C14.5001 9.51599 16.8901 7.28799 20.5441 7.28799C22.2961 7.28799 24.1261 7.60199 24.1261 7.60199V11.562H22.1081C20.1221 11.562 19.5021 12.804 19.5021 14.078V17.098H23.9381L23.2301 21.75H19.5001V33C27.1481 31.792 33.0001 25.132 33.0001 17.098Z" fill="#395B9A"/>
</g>
<defs>
<clipPath id="clip0_1005_9597">
<rect width="33" height="34" fill="white"/>
</clipPath>
</defs>
</svg>
