<svg width="32" height="32" viewBox="0 0 32 32" fill="none" xmlns="http://www.w3.org/2000/svg">
<circle cx="16" cy="16" r="16" fill="#FAE101"/>
<path d="M16.001 8.28571C20.9715 8.28571 25.001 11.4263 25.001 15.3014C25.001 19.1757 20.9715 22.3163 16.001 22.3163C15.506 22.3165 15.0116 22.285 14.5207 22.222L10.7424 24.6931C10.313 24.9203 10.1613 24.8954 10.3378 24.3391L11.1024 21.1866C8.63383 19.9351 7.00098 17.7666 7.00098 15.3014C7.00098 11.4271 11.0304 8.28571 16.001 8.28571ZM21.0641 15.1943L22.3241 13.9737C22.3968 13.8982 22.4374 13.7974 22.4373 13.6926C22.4371 13.5878 22.3963 13.4871 22.3234 13.4118C22.2506 13.3364 22.1513 13.2923 22.0465 13.2888C21.9418 13.2852 21.8397 13.3224 21.7618 13.3926L20.1093 14.992V13.6703C20.1093 13.563 20.0666 13.4601 19.9908 13.3842C19.9149 13.3083 19.812 13.2657 19.7047 13.2657C19.5974 13.2657 19.4945 13.3083 19.4186 13.3842C19.3427 13.4601 19.3001 13.563 19.3001 13.6703V15.862C19.285 15.9245 19.285 15.9898 19.3001 16.0523V17.2857C19.3001 17.393 19.3427 17.4959 19.4186 17.5718C19.4945 17.6477 19.5974 17.6903 19.7047 17.6903C19.812 17.6903 19.9149 17.6477 19.9908 17.5718C20.0666 17.4959 20.1093 17.393 20.1093 17.2857V16.1174L20.4753 15.7634L21.6993 17.506C21.7298 17.5495 21.7687 17.5866 21.8135 17.6151C21.8584 17.6436 21.9085 17.6629 21.9608 17.6721C22.0132 17.6812 22.0669 17.68 22.1188 17.6684C22.1707 17.6568 22.2198 17.6351 22.2633 17.6046C22.3068 17.574 22.3438 17.5352 22.3723 17.4903C22.4008 17.4454 22.4202 17.3953 22.4294 17.343C22.4385 17.2906 22.4373 17.2369 22.4257 17.1851C22.4141 17.1332 22.3924 17.0841 22.3618 17.0406L21.0641 15.1934V15.1943ZM18.5287 16.8434H17.2773V13.6831C17.2725 13.5792 17.2278 13.481 17.1525 13.4092C17.0773 13.3373 16.9772 13.2972 16.8731 13.2972C16.769 13.2972 16.669 13.3373 16.5937 13.4092C16.5184 13.481 16.4738 13.5792 16.469 13.6831V17.248C16.469 17.4708 16.649 17.6526 16.8727 17.6526H18.5287C18.636 17.6526 18.7389 17.6099 18.8148 17.5341C18.8906 17.4582 18.9333 17.3553 18.9333 17.248C18.9333 17.1407 18.8906 17.0378 18.8148 16.9619C18.7389 16.886 18.636 16.8434 18.5287 16.8434ZM13.5084 15.9074L14.105 14.4443L14.6518 15.9074H13.5084ZM15.671 16.3257L15.6727 16.312C15.6725 16.2101 15.6336 16.112 15.5638 16.0377L14.6673 13.6377C14.6297 13.5233 14.5581 13.4232 14.4621 13.3506C14.366 13.278 14.2501 13.2364 14.1298 13.2314C14.0087 13.2309 13.8902 13.2673 13.7902 13.3357C13.6902 13.4041 13.6135 13.5014 13.5701 13.6146L12.1464 17.1074C12.1263 17.1566 12.1161 17.2093 12.1164 17.2624C12.1166 17.3155 12.1274 17.3681 12.1479 17.4171C12.1685 17.4661 12.1985 17.5105 12.2363 17.5479C12.274 17.5853 12.3188 17.6149 12.368 17.635C12.4172 17.6551 12.4698 17.6653 12.523 17.665C12.5761 17.6648 12.6287 17.654 12.6777 17.6335C12.7266 17.6129 12.7711 17.5829 12.8085 17.5451C12.8459 17.5074 12.8755 17.4626 12.8955 17.4134L13.1784 16.7166H14.9527L15.209 17.4023C15.2264 17.4535 15.2539 17.5008 15.2899 17.5412C15.326 17.5816 15.3697 17.6144 15.4186 17.6376C15.4675 17.6608 15.5206 17.6739 15.5747 17.6763C15.6288 17.6786 15.6828 17.67 15.7335 17.6511C15.7842 17.6322 15.8306 17.6032 15.87 17.566C15.9093 17.5288 15.9408 17.4841 15.9625 17.4346C15.9843 17.385 15.9958 17.3315 15.9966 17.2774C15.9973 17.2233 15.9871 17.1696 15.9667 17.1194L15.671 16.3257ZM12.8235 13.6874C12.8235 13.5803 12.781 13.4775 12.7054 13.4016C12.6297 13.3258 12.527 13.2831 12.4198 13.2828H9.6384C9.53111 13.2828 9.4282 13.3255 9.35233 13.4013C9.27646 13.4772 9.23383 13.5801 9.23383 13.6874C9.23383 13.7947 9.27646 13.8976 9.35233 13.9735C9.4282 14.0494 9.53111 14.092 9.6384 14.092H10.6327V17.2943C10.6327 17.4016 10.6753 17.5045 10.7512 17.5804C10.8271 17.6562 10.93 17.6988 11.0373 17.6988C11.1446 17.6988 11.2475 17.6562 11.3233 17.5804C11.3992 17.5045 11.4418 17.4016 11.4418 17.2943V14.092H12.419C12.5263 14.092 12.6292 14.0494 12.7051 13.9735C12.7809 13.8976 12.8235 13.7947 12.8235 13.6874Z" fill="#3C1E1E"/>
</svg>
