<svg width="32" height="32" viewBox="0 0 32 32" fill="none" xmlns="http://www.w3.org/2000/svg">
<path d="M16 0C7.16774 0 0 7.16774 0 16C0 24.8323 7.16774 32 16 32C24.8323 32 32 24.8323 32 16C32 7.16774 24.8323 0 16 0ZM11.4387 24C9.31698 24 7.28215 23.1571 5.78186 21.6569C4.28156 20.1566 3.43871 18.1217 3.43871 16C3.43871 13.8783 4.28156 11.8434 5.78186 10.3431C7.28215 8.84286 9.31698 8 11.4387 8C13.4581 8 15.3161 8.70968 16.7935 10.0839L14.6258 12.1871C13.7742 11.3548 12.6065 10.9548 11.4387 10.9548C8.67097 10.9548 6.45806 13.2452 6.45806 15.9935C6.45806 18.7419 8.66452 21.0323 11.4387 21.0323C13.5419 21.0323 15.6258 19.8 15.9613 17.5935H11.4387V14.8452H18.9806C19.0639 15.2854 19.1049 15.7326 19.1032 16.1806C19.1032 20.7484 16.0387 24 11.4387 24ZM26.2903 17.1484V19.4387H24V17.1484H21.7097V14.8581H24V12.5677H26.2903V14.8581H28.5613V17.1484H26.2903Z" fill="#CA5442"/>
</svg>
