<svg width="19" height="9" viewBox="0 0 19 9" fill="none" xmlns="http://www.w3.org/2000/svg">
<path d="M3.6127 8.13C3.23936 8.13 2.8927 8.07667 2.5727 7.97C2.2527 7.86333 1.9727 7.68667 1.7327 7.44C1.49936 7.18667 1.31603 6.86 1.1827 6.46C1.04936 6.06 0.982695 5.56333 0.982695 4.97V0.67H1.9127V5C1.9127 5.44 1.95603 5.81 2.0427 6.11C2.12936 6.40333 2.24936 6.64 2.4027 6.82C2.55603 7 2.73603 7.13 2.9427 7.21C3.14936 7.28333 3.3727 7.32 3.6127 7.32C3.85936 7.32 4.08936 7.28333 4.3027 7.21C4.51603 7.13 4.69936 7 4.8527 6.82C5.0127 6.64 5.13603 6.40333 5.2227 6.11C5.31603 5.81 5.3627 5.44 5.3627 5V0.67H6.2527V4.97C6.2527 5.56333 6.18603 6.06 6.0527 6.46C5.91936 6.86 5.7327 7.18667 5.4927 7.44C5.25936 7.68667 4.97936 7.86333 4.6527 7.97C4.3327 8.07667 3.98603 8.13 3.6127 8.13ZM9.14973 4.14H10.3797C10.9597 4.14 11.3997 4.02667 11.6997 3.8C12.0064 3.56667 12.1597 3.21 12.1597 2.73C12.1597 2.24333 12.0064 1.90333 11.6997 1.71C11.3997 1.51667 10.9597 1.42 10.3797 1.42H9.14973V4.14ZM12.2497 8L10.4697 4.89H9.14973V8H8.21973V0.67H10.5197C10.8931 0.67 11.2364 0.706666 11.5497 0.779999C11.8631 0.846666 12.1331 0.963333 12.3597 1.13C12.5864 1.29 12.7631 1.50333 12.8897 1.77C13.0164 2.03 13.0797 2.35 13.0797 2.73C13.0797 3.30333 12.9264 3.76 12.6197 4.1C12.3197 4.44 11.9197 4.67 11.4197 4.79L13.2997 8H12.2497ZM14.5674 0.67H15.4974V7.21H18.6974V8H14.5674V0.67Z" fill="black"/>
</svg>
