<svg width="44" height="9" viewBox="0 0 44 9" fill="none" xmlns="http://www.w3.org/2000/svg">
<path d="M0.00488283 0.67H4.23488V1.45H0.934883V3.93H3.73488V4.71H0.934883V8H0.00488283V0.67ZM6.3016 8.13C6.07493 8.13 5.86494 8.09333 5.6716 8.02C5.47827 7.94667 5.3116 7.84333 5.1716 7.71C5.0316 7.57 4.9216 7.40333 4.8416 7.21C4.7616 7.01 4.7216 6.78667 4.7216 6.54C4.7216 5.84 5.00827 5.34 5.5816 5.04C6.1616 4.73333 6.98827 4.57333 8.0616 4.56C8.0616 4.38667 8.04494 4.21667 8.0116 4.05C7.97827 3.88333 7.91827 3.73667 7.8316 3.61C7.7516 3.48333 7.63827 3.38333 7.4916 3.31C7.34494 3.23 7.1616 3.19 6.9416 3.19C6.6216 3.19 6.31493 3.24333 6.0216 3.35C5.72827 3.45 5.47493 3.57333 5.2616 3.72L4.9016 3.07C5.15493 2.91 5.4716 2.76333 5.8516 2.63C6.23827 2.49667 6.6516 2.43 7.0916 2.43C7.41827 2.43 7.7016 2.48333 7.9416 2.59C8.1816 2.69667 8.37494 2.85 8.5216 3.05C8.67494 3.24333 8.78827 3.47667 8.8616 3.75C8.93494 4.02333 8.9716 4.32667 8.9716 4.66V8H8.2216L8.1416 7.42H8.1116C7.8516 7.63333 7.56827 7.80667 7.2616 7.94C6.9616 8.06667 6.6416 8.13 6.3016 8.13ZM6.5616 7.4C6.82827 7.4 7.07827 7.35333 7.3116 7.26C7.54494 7.16667 7.79494 7.00333 8.0616 6.77V5.16C7.5816 5.19333 7.1816 5.24333 6.8616 5.31C6.54827 5.37 6.29827 5.45333 6.1116 5.56C5.92494 5.66667 5.79494 5.79667 5.7216 5.95C5.64827 6.09667 5.6116 6.27333 5.6116 6.48C5.6116 6.79333 5.7016 7.02667 5.8816 7.18C6.0616 7.32667 6.28827 7.4 6.5616 7.4ZM12.8461 8.13C12.4861 8.13 12.1495 8.06667 11.8361 7.94C11.5295 7.81333 11.2595 7.63 11.0261 7.39C10.7995 7.14333 10.6195 6.84667 10.4861 6.5C10.3595 6.14667 10.2961 5.74333 10.2961 5.29C10.2961 4.83667 10.3661 4.43333 10.5061 4.08C10.6528 3.72667 10.8461 3.42667 11.0861 3.18C11.3261 2.93333 11.6028 2.74667 11.9161 2.62C12.2361 2.49333 12.5695 2.43 12.9161 2.43C13.2761 2.43 13.5828 2.49333 13.8361 2.62C14.0895 2.74667 14.3128 2.89667 14.5061 3.07L14.0361 3.68C13.8761 3.53333 13.7095 3.41667 13.5361 3.33C13.3628 3.23667 13.1661 3.19 12.9461 3.19C12.6995 3.19 12.4728 3.24 12.2661 3.34C12.0595 3.44 11.8795 3.58333 11.7261 3.77C11.5795 3.95667 11.4628 4.18 11.3761 4.44C11.2895 4.69333 11.2461 4.97667 11.2461 5.29C11.2461 5.60333 11.2861 5.89 11.3661 6.15C11.4461 6.40333 11.5595 6.62 11.7061 6.8C11.8595 6.98 12.0361 7.12 12.2361 7.22C12.4428 7.32 12.6728 7.37 12.9261 7.37C13.1795 7.37 13.4128 7.32 13.6261 7.22C13.8395 7.11333 14.0328 6.98333 14.2061 6.83L14.5961 7.44C14.3561 7.66 14.0861 7.83 13.7861 7.95C13.4861 8.07 13.1728 8.13 12.8461 8.13ZM17.7399 8.13C17.3799 8.13 17.0399 8.06667 16.7199 7.94C16.4065 7.81333 16.1332 7.63 15.8999 7.39C15.6665 7.14333 15.4799 6.84333 15.3399 6.49C15.2065 6.13667 15.1399 5.73667 15.1399 5.29C15.1399 4.85 15.2065 4.45333 15.3399 4.1C15.4799 3.74667 15.6632 3.44667 15.8899 3.2C16.1165 2.95333 16.3765 2.76333 16.6699 2.63C16.9699 2.49667 17.2765 2.43 17.5899 2.43C17.9365 2.43 18.2432 2.49 18.5099 2.61C18.7765 2.73 18.9999 2.90333 19.1799 3.13C19.3665 3.35 19.5065 3.61667 19.5999 3.93C19.6999 4.24333 19.7499 4.59333 19.7499 4.98C19.7499 5.08 19.7465 5.17667 19.7399 5.27C19.7332 5.35667 19.7232 5.43333 19.7099 5.5H16.0499C16.0832 6.08667 16.2599 6.55 16.5799 6.89C16.9065 7.23 17.3299 7.4 17.8499 7.4C18.1165 7.4 18.3599 7.36333 18.5799 7.29C18.7999 7.21 19.0099 7.10333 19.2099 6.97L19.5399 7.57C19.2999 7.72333 19.0332 7.85667 18.7399 7.97C18.4465 8.07667 18.1132 8.13 17.7399 8.13ZM18.9499 4.85C18.9499 4.29667 18.8299 3.87667 18.5899 3.59C18.3565 3.30333 18.0265 3.16 17.5999 3.16C17.4065 3.16 17.2199 3.2 17.0399 3.28C16.8665 3.35333 16.7099 3.46333 16.5699 3.61C16.4299 3.75 16.3132 3.92667 16.2199 4.14C16.1265 4.34667 16.0665 4.58333 16.0399 4.85H18.9499ZM23.477 8.13C23.2237 8.13 22.9603 8.07 22.687 7.95C22.4203 7.83 22.167 7.66 21.927 7.44H21.897L21.817 8H21.087V0.0399994H21.997V2.22L21.967 3.2C22.2137 2.98667 22.4837 2.80667 22.777 2.66C23.0703 2.50667 23.367 2.43 23.667 2.43C24.0203 2.43 24.3303 2.49667 24.597 2.63C24.8703 2.76333 25.097 2.95 25.277 3.19C25.4637 3.43 25.6037 3.72 25.697 4.06C25.7903 4.4 25.837 4.77667 25.837 5.19C25.837 5.65667 25.7703 6.07333 25.637 6.44C25.5103 6.80667 25.337 7.11667 25.117 7.37C24.9037 7.61667 24.6537 7.80667 24.367 7.94C24.087 8.06667 23.7903 8.13 23.477 8.13ZM23.327 7.37C23.5537 7.37 23.7603 7.32 23.947 7.22C24.1403 7.12 24.307 6.98 24.447 6.8C24.587 6.61333 24.6937 6.38667 24.767 6.12C24.847 5.85333 24.887 5.55 24.887 5.21C24.887 4.91 24.8603 4.63667 24.807 4.39C24.7537 4.14333 24.6703 3.93333 24.557 3.76C24.4437 3.58 24.297 3.44333 24.117 3.35C23.937 3.25 23.717 3.2 23.457 3.2C23.2237 3.2 22.987 3.26333 22.747 3.39C22.507 3.51667 22.257 3.70333 21.997 3.95V6.8C22.237 7.01333 22.4737 7.16333 22.707 7.25C22.9403 7.33 23.147 7.37 23.327 7.37ZM29.3786 8.13C29.0453 8.13 28.7253 8.06667 28.4186 7.94C28.1186 7.81333 27.852 7.63 27.6186 7.39C27.3853 7.14333 27.1986 6.84667 27.0586 6.5C26.9253 6.14667 26.8586 5.74333 26.8586 5.29C26.8586 4.83667 26.9253 4.43333 27.0586 4.08C27.1986 3.72667 27.3853 3.42667 27.6186 3.18C27.852 2.93333 28.1186 2.74667 28.4186 2.62C28.7253 2.49333 29.0453 2.43 29.3786 2.43C29.712 2.43 30.0286 2.49333 30.3286 2.62C30.6353 2.74667 30.9053 2.93333 31.1386 3.18C31.372 3.42667 31.5553 3.72667 31.6886 4.08C31.8286 4.43333 31.8986 4.83667 31.8986 5.29C31.8986 5.74333 31.8286 6.14667 31.6886 6.5C31.5553 6.84667 31.372 7.14333 31.1386 7.39C30.9053 7.63 30.6353 7.81333 30.3286 7.94C30.0286 8.06667 29.712 8.13 29.3786 8.13ZM29.3786 7.37C29.612 7.37 29.8253 7.32 30.0186 7.22C30.212 7.12 30.3786 6.98 30.5186 6.8C30.6586 6.62 30.7653 6.40333 30.8386 6.15C30.9186 5.89 30.9586 5.60333 30.9586 5.29C30.9586 4.97667 30.9186 4.69333 30.8386 4.44C30.7653 4.18 30.6586 3.95667 30.5186 3.77C30.3786 3.58333 30.212 3.44 30.0186 3.34C29.8253 3.24 29.612 3.19 29.3786 3.19C29.1453 3.19 28.932 3.24 28.7386 3.34C28.5453 3.44 28.3786 3.58333 28.2386 3.77C28.1053 3.95667 27.9986 4.18 27.9186 4.44C27.8453 4.69333 27.8086 4.97667 27.8086 5.29C27.8086 5.60333 27.8453 5.89 27.9186 6.15C27.9986 6.40333 28.1053 6.62 28.2386 6.8C28.3786 6.98 28.5453 7.12 28.7386 7.22C28.932 7.32 29.1453 7.37 29.3786 7.37ZM35.4431 8.13C35.1098 8.13 34.7898 8.06667 34.4831 7.94C34.1831 7.81333 33.9164 7.63 33.6831 7.39C33.4498 7.14333 33.2631 6.84667 33.1231 6.5C32.9898 6.14667 32.9231 5.74333 32.9231 5.29C32.9231 4.83667 32.9898 4.43333 33.1231 4.08C33.2631 3.72667 33.4498 3.42667 33.6831 3.18C33.9164 2.93333 34.1831 2.74667 34.4831 2.62C34.7898 2.49333 35.1098 2.43 35.4431 2.43C35.7764 2.43 36.0931 2.49333 36.3931 2.62C36.6998 2.74667 36.9698 2.93333 37.2031 3.18C37.4364 3.42667 37.6198 3.72667 37.7531 4.08C37.8931 4.43333 37.9631 4.83667 37.9631 5.29C37.9631 5.74333 37.8931 6.14667 37.7531 6.5C37.6198 6.84667 37.4364 7.14333 37.2031 7.39C36.9698 7.63 36.6998 7.81333 36.3931 7.94C36.0931 8.06667 35.7764 8.13 35.4431 8.13ZM35.4431 7.37C35.6764 7.37 35.8898 7.32 36.0831 7.22C36.2764 7.12 36.4431 6.98 36.5831 6.8C36.7231 6.62 36.8298 6.40333 36.9031 6.15C36.9831 5.89 37.0231 5.60333 37.0231 5.29C37.0231 4.97667 36.9831 4.69333 36.9031 4.44C36.8298 4.18 36.7231 3.95667 36.5831 3.77C36.4431 3.58333 36.2764 3.44 36.0831 3.34C35.8898 3.24 35.6764 3.19 35.4431 3.19C35.2098 3.19 34.9964 3.24 34.8031 3.34C34.6098 3.44 34.4431 3.58333 34.3031 3.77C34.1698 3.95667 34.0631 4.18 33.9831 4.44C33.9098 4.69333 33.8731 4.97667 33.8731 5.29C33.8731 5.60333 33.9098 5.89 33.9831 6.15C34.0631 6.40333 34.1698 6.62 34.3031 6.8C34.4431 6.98 34.6098 7.12 34.8031 7.22C34.9964 7.32 35.2098 7.37 35.4431 7.37ZM39.3975 0.0399994H40.2975V5.44H40.3175L42.6475 2.57H43.6575L41.8375 4.75L43.8975 8H42.9075L41.3175 5.38L40.2975 6.57V8H39.3975V0.0399994Z" fill="black"/>
</svg>
