<svg width="40" height="40" viewBox="0 0 40 40" fill="none" xmlns="http://www.w3.org/2000/svg">
<circle cx="20" cy="20" r="19.25" stroke="#4A73F3" stroke-width="1.5"/>
<path d="M26.5039 23.909C25.7674 23.909 25.0879 24.1463 24.5556 24.5426L19.2016 20.9855C19.2912 20.5335 19.2912 20.0705 19.2016 19.6186L24.5556 16.0614C25.0879 16.4577 25.7674 16.695 26.5039 16.695C28.2145 16.695 29.6047 15.4183 29.6047 13.8473C29.6047 12.2764 28.2145 10.9997 26.5039 10.9997C24.7933 10.9997 23.4031 12.2764 23.4031 13.8473C23.4031 14.1226 23.4444 14.386 23.5245 14.6376L18.4393 18.0192C17.6848 17.1008 16.4858 16.5052 15.1344 16.5052C12.8501 16.5052 11 18.2042 11 20.302C11 22.3998 12.8501 24.0989 15.1344 24.0989C16.4858 24.0989 17.6848 23.5033 18.4393 22.5849L23.5245 25.9665C23.4444 26.218 23.4031 26.4838 23.4031 26.7567C23.4031 28.3276 24.7933 29.6043 26.5039 29.6043C28.2145 29.6043 29.6047 28.3276 29.6047 26.7567C29.6047 25.1857 28.2145 23.909 26.5039 23.909ZM26.5039 12.6134C27.2455 12.6134 27.8475 13.1663 27.8475 13.8473C27.8475 14.5284 27.2455 15.0813 26.5039 15.0813C25.7623 15.0813 25.1602 14.5284 25.1602 13.8473C25.1602 13.1663 25.7623 12.6134 26.5039 12.6134ZM15.1344 22.3903C13.8811 22.3903 12.8605 21.4529 12.8605 20.302C12.8605 19.1511 13.8811 18.2137 15.1344 18.2137C16.3876 18.2137 17.4083 19.1511 17.4083 20.302C17.4083 21.4529 16.3876 22.3903 15.1344 22.3903ZM26.5039 27.9907C25.7623 27.9907 25.1602 27.4378 25.1602 26.7567C25.1602 26.0756 25.7623 25.5227 26.5039 25.5227C27.2455 25.5227 27.8475 26.0756 27.8475 26.7567C27.8475 27.4378 27.2455 27.9907 26.5039 27.9907Z" fill="#4A73F3"/>
</svg>
