<svg width="29" height="9" viewBox="0 0 29 9" fill="none" xmlns="http://www.w3.org/2000/svg">
<path d="M0.332031 0.67H1.26203V4.35H1.29203L4.35203 0.67H5.39203L3.10203 3.46L5.75203 8H4.71203L2.52203 4.18L1.26203 5.68V8H0.332031V0.67ZM7.95688 8.13C7.73021 8.13 7.52021 8.09333 7.32688 8.02C7.13354 7.94667 6.96688 7.84333 6.82688 7.71C6.68688 7.57 6.57688 7.40333 6.49688 7.21C6.41688 7.01 6.37688 6.78667 6.37688 6.54C6.37688 5.84 6.66354 5.34 7.23688 5.04C7.81688 4.73333 8.64354 4.57333 9.71688 4.56C9.71688 4.38667 9.70021 4.21667 9.66688 4.05C9.63354 3.88333 9.57354 3.73667 9.48688 3.61C9.40688 3.48333 9.29354 3.38333 9.14688 3.31C9.00021 3.23 8.81688 3.19 8.59688 3.19C8.27688 3.19 7.97021 3.24333 7.67688 3.35C7.38354 3.45 7.13021 3.57333 6.91688 3.72L6.55688 3.07C6.81021 2.91 7.12688 2.76333 7.50688 2.63C7.89354 2.49667 8.30688 2.43 8.74688 2.43C9.07354 2.43 9.35688 2.48333 9.59688 2.59C9.83688 2.69667 10.0302 2.85 10.1769 3.05C10.3302 3.24333 10.4435 3.47667 10.5169 3.75C10.5902 4.02333 10.6269 4.32667 10.6269 4.66V8H9.87688L9.79688 7.42H9.76688C9.50688 7.63333 9.22354 7.80667 8.91688 7.94C8.61688 8.06667 8.29688 8.13 7.95688 8.13ZM8.21688 7.4C8.48354 7.4 8.73354 7.35333 8.96688 7.26C9.20021 7.16667 9.45021 7.00333 9.71688 6.77V5.16C9.23688 5.19333 8.83688 5.24333 8.51688 5.31C8.20354 5.37 7.95354 5.45333 7.76688 5.56C7.58021 5.66667 7.45021 5.79667 7.37688 5.95C7.30354 6.09667 7.26687 6.27333 7.26687 6.48C7.26687 6.79333 7.35688 7.02667 7.53688 7.18C7.71688 7.32667 7.94354 7.4 8.21688 7.4ZM12.3614 0.0399994H13.2614V5.44H13.2814L15.6114 2.57H16.6214L14.8014 4.75L16.8614 8H15.8714L14.2814 5.38L13.2614 6.57V8H12.3614V0.0399994ZM19.119 8.13C18.8923 8.13 18.6823 8.09333 18.489 8.02C18.2957 7.94667 18.129 7.84333 17.989 7.71C17.849 7.57 17.739 7.40333 17.659 7.21C17.579 7.01 17.539 6.78667 17.539 6.54C17.539 5.84 17.8257 5.34 18.399 5.04C18.979 4.73333 19.8057 4.57333 20.879 4.56C20.879 4.38667 20.8623 4.21667 20.829 4.05C20.7957 3.88333 20.7357 3.73667 20.649 3.61C20.569 3.48333 20.4557 3.38333 20.309 3.31C20.1623 3.23 19.979 3.19 19.759 3.19C19.439 3.19 19.1323 3.24333 18.839 3.35C18.5457 3.45 18.2923 3.57333 18.079 3.72L17.719 3.07C17.9723 2.91 18.289 2.76333 18.669 2.63C19.0557 2.49667 19.469 2.43 19.909 2.43C20.2357 2.43 20.519 2.48333 20.759 2.59C20.999 2.69667 21.1923 2.85 21.339 3.05C21.4923 3.24333 21.6057 3.47667 21.679 3.75C21.7523 4.02333 21.789 4.32667 21.789 4.66V8H21.039L20.959 7.42H20.929C20.669 7.63333 20.3857 7.80667 20.079 7.94C19.779 8.06667 19.459 8.13 19.119 8.13ZM19.379 7.4C19.6457 7.4 19.8957 7.35333 20.129 7.26C20.3623 7.16667 20.6123 7.00333 20.879 6.77V5.16C20.399 5.19333 19.999 5.24333 19.679 5.31C19.3657 5.37 19.1157 5.45333 18.929 5.56C18.7423 5.66667 18.6123 5.79667 18.539 5.95C18.4657 6.09667 18.429 6.27333 18.429 6.48C18.429 6.79333 18.519 7.02667 18.699 7.18C18.879 7.32667 19.1057 7.4 19.379 7.4ZM25.6335 8.13C25.3002 8.13 24.9802 8.06667 24.6735 7.94C24.3735 7.81333 24.1068 7.63 23.8735 7.39C23.6402 7.14333 23.4535 6.84667 23.3135 6.5C23.1802 6.14667 23.1135 5.74333 23.1135 5.29C23.1135 4.83667 23.1802 4.43333 23.3135 4.08C23.4535 3.72667 23.6402 3.42667 23.8735 3.18C24.1068 2.93333 24.3735 2.74667 24.6735 2.62C24.9802 2.49333 25.3002 2.43 25.6335 2.43C25.9668 2.43 26.2835 2.49333 26.5835 2.62C26.8902 2.74667 27.1602 2.93333 27.3935 3.18C27.6268 3.42667 27.8102 3.72667 27.9435 4.08C28.0835 4.43333 28.1535 4.83667 28.1535 5.29C28.1535 5.74333 28.0835 6.14667 27.9435 6.5C27.8102 6.84667 27.6268 7.14333 27.3935 7.39C27.1602 7.63 26.8902 7.81333 26.5835 7.94C26.2835 8.06667 25.9668 8.13 25.6335 8.13ZM25.6335 7.37C25.8668 7.37 26.0802 7.32 26.2735 7.22C26.4668 7.12 26.6335 6.98 26.7735 6.8C26.9135 6.62 27.0202 6.40333 27.0935 6.15C27.1735 5.89 27.2135 5.60333 27.2135 5.29C27.2135 4.97667 27.1735 4.69333 27.0935 4.44C27.0202 4.18 26.9135 3.95667 26.7735 3.77C26.6335 3.58333 26.4668 3.44 26.2735 3.34C26.0802 3.24 25.8668 3.19 25.6335 3.19C25.4002 3.19 25.1868 3.24 24.9935 3.34C24.8002 3.44 24.6335 3.58333 24.4935 3.77C24.3602 3.95667 24.2535 4.18 24.1735 4.44C24.1002 4.69333 24.0635 4.97667 24.0635 5.29C24.0635 5.60333 24.1002 5.89 24.1735 6.15C24.2535 6.40333 24.3602 6.62 24.4935 6.8C24.6335 6.98 24.8002 7.12 24.9935 7.22C25.1868 7.32 25.4002 7.37 25.6335 7.37Z" fill="black"/>
</svg>
