<svg width="41" height="11" viewBox="0 0 41 11" fill="none" xmlns="http://www.w3.org/2000/svg">
<path d="M4.02355 8.13C3.54355 8.13 3.10022 8.04667 2.69355 7.88C2.28689 7.70667 1.93689 7.45667 1.64355 7.13C1.35689 6.80333 1.13022 6.40667 0.963555 5.94C0.803555 5.46667 0.723555 4.93333 0.723555 4.34C0.723555 3.74667 0.806888 3.21667 0.973555 2.75C1.14022 2.27667 1.37355 1.87667 1.67355 1.55C1.97355 1.21667 2.32689 0.963333 2.73355 0.79C3.14689 0.616666 3.59689 0.53 4.08355 0.53C4.33689 0.53 4.57022 0.556666 4.78355 0.61C4.99689 0.663333 5.19022 0.733333 5.36355 0.819999C5.53689 0.9 5.69022 0.996666 5.82355 1.11C5.96356 1.21667 6.08689 1.32667 6.19355 1.44L5.69355 2.04C5.50689 1.84667 5.29022 1.68333 5.04355 1.55C4.79689 1.41 4.48355 1.34 4.10355 1.34C3.73689 1.34 3.40355 1.41 3.10355 1.55C2.80355 1.68333 2.54689 1.88 2.33355 2.14C2.12689 2.39333 1.96355 2.70333 1.84355 3.07C1.73022 3.43667 1.67355 3.85 1.67355 4.31C1.67355 4.77 1.72689 5.18667 1.83355 5.56C1.94022 5.93333 2.09689 6.25 2.30355 6.51C2.51022 6.77 2.76355 6.97 3.06355 7.11C3.37022 7.25 3.72022 7.32 4.11355 7.32C4.38022 7.32 4.63022 7.28333 4.86356 7.21C5.10355 7.13 5.29689 7.02333 5.44355 6.89V4.97H3.89355V4.2H6.29355V7.28C6.06022 7.52667 5.74689 7.73 5.35355 7.89C4.96689 8.05 4.52355 8.13 4.02355 8.13ZM10.0681 8.13C9.73475 8.13 9.41475 8.06667 9.10809 7.94C8.80809 7.81333 8.54142 7.63 8.30809 7.39C8.07475 7.14333 7.88809 6.84667 7.74809 6.5C7.61475 6.14667 7.54809 5.74333 7.54809 5.29C7.54809 4.83667 7.61475 4.43333 7.74809 4.08C7.88809 3.72667 8.07475 3.42667 8.30809 3.18C8.54142 2.93333 8.80809 2.74667 9.10809 2.62C9.41475 2.49333 9.73475 2.43 10.0681 2.43C10.4014 2.43 10.7181 2.49333 11.0181 2.62C11.3248 2.74667 11.5948 2.93333 11.8281 3.18C12.0614 3.42667 12.2448 3.72667 12.3781 4.08C12.5181 4.43333 12.5881 4.83667 12.5881 5.29C12.5881 5.74333 12.5181 6.14667 12.3781 6.5C12.2448 6.84667 12.0614 7.14333 11.8281 7.39C11.5948 7.63 11.3248 7.81333 11.0181 7.94C10.7181 8.06667 10.4014 8.13 10.0681 8.13ZM10.0681 7.37C10.3014 7.37 10.5148 7.32 10.7081 7.22C10.9014 7.12 11.0681 6.98 11.2081 6.8C11.3481 6.62 11.4548 6.40333 11.5281 6.15C11.6081 5.89 11.6481 5.60333 11.6481 5.29C11.6481 4.97667 11.6081 4.69333 11.5281 4.44C11.4548 4.18 11.3481 3.95667 11.2081 3.77C11.0681 3.58333 10.9014 3.44 10.7081 3.34C10.5148 3.24 10.3014 3.19 10.0681 3.19C9.83475 3.19 9.62142 3.24 9.42809 3.34C9.23475 3.44 9.06809 3.58333 8.92809 3.77C8.79475 3.95667 8.68809 4.18 8.60809 4.44C8.53475 4.69333 8.49809 4.97667 8.49809 5.29C8.49809 5.60333 8.53475 5.89 8.60809 6.15C8.68809 6.40333 8.79475 6.62 8.92809 6.8C9.06809 6.98 9.23475 7.12 9.42809 7.22C9.62142 7.32 9.83475 7.37 10.0681 7.37ZM16.1325 8.13C15.7992 8.13 15.4792 8.06667 15.1725 7.94C14.8725 7.81333 14.6059 7.63 14.3725 7.39C14.1392 7.14333 13.9525 6.84667 13.8125 6.5C13.6792 6.14667 13.6125 5.74333 13.6125 5.29C13.6125 4.83667 13.6792 4.43333 13.8125 4.08C13.9525 3.72667 14.1392 3.42667 14.3725 3.18C14.6059 2.93333 14.8725 2.74667 15.1725 2.62C15.4792 2.49333 15.7992 2.43 16.1325 2.43C16.4659 2.43 16.7825 2.49333 17.0825 2.62C17.3892 2.74667 17.6592 2.93333 17.8925 3.18C18.1259 3.42667 18.3092 3.72667 18.4425 4.08C18.5825 4.43333 18.6525 4.83667 18.6525 5.29C18.6525 5.74333 18.5825 6.14667 18.4425 6.5C18.3092 6.84667 18.1259 7.14333 17.8925 7.39C17.6592 7.63 17.3892 7.81333 17.0825 7.94C16.7825 8.06667 16.4659 8.13 16.1325 8.13ZM16.1325 7.37C16.3659 7.37 16.5792 7.32 16.7725 7.22C16.9659 7.12 17.1325 6.98 17.2725 6.8C17.4125 6.62 17.5192 6.40333 17.5925 6.15C17.6725 5.89 17.7125 5.60333 17.7125 5.29C17.7125 4.97667 17.6725 4.69333 17.5925 4.44C17.5192 4.18 17.4125 3.95667 17.2725 3.77C17.1325 3.58333 16.9659 3.44 16.7725 3.34C16.5792 3.24 16.3659 3.19 16.1325 3.19C15.8992 3.19 15.6859 3.24 15.4925 3.34C15.2992 3.44 15.1325 3.58333 14.9925 3.77C14.8592 3.95667 14.7525 4.18 14.6725 4.44C14.5992 4.69333 14.5625 4.97667 14.5625 5.29C14.5625 5.60333 14.5992 5.89 14.6725 6.15C14.7525 6.40333 14.8592 6.62 14.9925 6.8C15.1325 6.98 15.2992 7.12 15.4925 7.22C15.6859 7.32 15.8992 7.37 16.1325 7.37ZM21.917 10.5C21.5837 10.5 21.277 10.4667 20.997 10.4C20.7237 10.34 20.487 10.2467 20.287 10.12C20.0937 10 19.9403 9.84667 19.827 9.66C19.7203 9.48 19.667 9.27333 19.667 9.04C19.667 8.80667 19.737 8.58333 19.877 8.37C20.0237 8.16333 20.2237 7.97667 20.477 7.81V7.77C20.3303 7.68333 20.2103 7.56667 20.117 7.42C20.0237 7.27333 19.977 7.09333 19.977 6.88C19.977 6.65333 20.0437 6.45333 20.177 6.28C20.3103 6.10667 20.447 5.97 20.587 5.87V5.83C20.407 5.68333 20.2437 5.48667 20.097 5.24C19.9503 4.98667 19.877 4.69667 19.877 4.37C19.877 4.07 19.9303 3.80333 20.037 3.57C20.1503 3.33 20.3003 3.12667 20.487 2.96C20.6737 2.78667 20.8903 2.65667 21.137 2.57C21.3837 2.47667 21.6437 2.43 21.917 2.43C22.0703 2.43 22.2103 2.44667 22.337 2.48C22.4703 2.50667 22.5837 2.53667 22.677 2.57H24.567V3.27H23.457C23.5903 3.39667 23.697 3.55667 23.777 3.75C23.857 3.94333 23.897 4.15667 23.897 4.39C23.897 4.68333 23.8437 4.94667 23.737 5.18C23.637 5.40667 23.497 5.60333 23.317 5.77C23.137 5.93667 22.927 6.06333 22.687 6.15C22.447 6.23667 22.1903 6.28 21.917 6.28C21.6303 6.28 21.3603 6.21667 21.107 6.09C21.007 6.17667 20.9237 6.27 20.857 6.37C20.7903 6.46333 20.757 6.58667 20.757 6.74C20.757 6.91333 20.8237 7.05667 20.957 7.17C21.0903 7.27667 21.3403 7.33 21.707 7.33H22.767C23.4003 7.33 23.8737 7.43333 24.187 7.64C24.5003 7.84667 24.657 8.17333 24.657 8.62C24.657 8.87333 24.5937 9.11333 24.467 9.34C24.3403 9.56667 24.157 9.76667 23.917 9.94C23.677 10.1133 23.387 10.25 23.047 10.35C22.7137 10.45 22.337 10.5 21.917 10.5ZM21.917 5.66C22.0703 5.66 22.217 5.63 22.357 5.57C22.497 5.51 22.617 5.42333 22.717 5.31C22.8237 5.19667 22.907 5.06333 22.967 4.91C23.0337 4.75 23.067 4.57 23.067 4.37C23.067 3.97 22.9537 3.66 22.727 3.44C22.507 3.21333 22.237 3.1 21.917 3.1C21.597 3.1 21.3237 3.21333 21.097 3.44C20.8703 3.66 20.757 3.97 20.757 4.37C20.757 4.57 20.787 4.75 20.847 4.91C20.9137 5.06333 20.997 5.19667 21.097 5.31C21.2037 5.42333 21.327 5.51 21.467 5.57C21.607 5.63 21.757 5.66 21.917 5.66ZM22.047 9.88C22.307 9.88 22.5437 9.84667 22.757 9.78C22.9703 9.72 23.1503 9.63667 23.297 9.53C23.4503 9.43 23.567 9.31 23.647 9.17C23.7337 9.03667 23.777 8.9 23.777 8.76C23.777 8.50667 23.6803 8.33 23.487 8.23C23.3003 8.13667 23.027 8.09 22.667 8.09H21.727C21.627 8.09 21.5137 8.08333 21.387 8.07C21.267 8.05667 21.147 8.03333 21.027 8C20.8337 8.14 20.6903 8.28667 20.597 8.44C20.5103 8.6 20.467 8.76 20.467 8.92C20.467 9.21333 20.6037 9.44667 20.877 9.62C21.157 9.79333 21.547 9.88 22.047 9.88ZM25.7218 8V0.0399994H26.6318V8H25.7218ZM30.6461 8.13C30.2861 8.13 29.9461 8.06667 29.6261 7.94C29.3128 7.81333 29.0395 7.63 28.8061 7.39C28.5728 7.14333 28.3861 6.84333 28.2461 6.49C28.1128 6.13667 28.0461 5.73667 28.0461 5.29C28.0461 4.85 28.1128 4.45333 28.2461 4.1C28.3861 3.74667 28.5695 3.44667 28.7961 3.2C29.0228 2.95333 29.2828 2.76333 29.5761 2.63C29.8761 2.49667 30.1828 2.43 30.4961 2.43C30.8428 2.43 31.1495 2.49 31.4161 2.61C31.6828 2.73 31.9061 2.90333 32.0861 3.13C32.2728 3.35 32.4128 3.61667 32.5061 3.93C32.6061 4.24333 32.6561 4.59333 32.6561 4.98C32.6561 5.08 32.6528 5.17667 32.6461 5.27C32.6395 5.35667 32.6295 5.43333 32.6161 5.5H28.9561C28.9895 6.08667 29.1661 6.55 29.4861 6.89C29.8128 7.23 30.2361 7.4 30.7561 7.4C31.0228 7.4 31.2661 7.36333 31.4861 7.29C31.7061 7.21 31.9161 7.10333 32.1161 6.97L32.4461 7.57C32.2061 7.72333 31.9395 7.85667 31.6461 7.97C31.3528 8.07667 31.0195 8.13 30.6461 8.13ZM31.8561 4.85C31.8561 4.29667 31.7361 3.87667 31.4961 3.59C31.2628 3.30333 30.9328 3.16 30.5061 3.16C30.3128 3.16 30.1261 3.2 29.9461 3.28C29.7728 3.35333 29.6161 3.46333 29.4761 3.61C29.3361 3.75 29.2195 3.92667 29.1261 4.14C29.0328 4.34667 28.9728 4.58333 28.9461 4.85H31.8561ZM37.7196 4.65H35.6896V3.97H37.7196V1.79H38.4496V3.97H40.4796V4.65H38.4496V6.84H37.7196V4.65Z" fill="black"/>
</svg>
