<svg width="19" height="9" viewBox="0 0 19 9" fill="none" xmlns="http://www.w3.org/2000/svg">
<path d="M0.0878906 0.67H1.01789V7.21H4.21789V8H0.0878906V0.67ZM5.42781 2.57H6.33781V8H5.42781V2.57ZM5.88781 1.45C5.70781 1.45 5.55781 1.39667 5.43781 1.29C5.31781 1.17667 5.25781 1.03333 5.25781 0.86C5.25781 0.673333 5.31781 0.53 5.43781 0.43C5.55781 0.323333 5.70781 0.269999 5.88781 0.269999C6.06781 0.269999 6.21781 0.323333 6.33781 0.43C6.45781 0.53 6.51781 0.673333 6.51781 0.86C6.51781 1.03333 6.45781 1.17667 6.33781 1.29C6.21781 1.39667 6.06781 1.45 5.88781 1.45ZM8.18172 2.57H8.93172L9.01172 3.35H9.04172C9.30172 3.09667 9.57505 2.88 9.86172 2.7C10.1551 2.52 10.4884 2.43 10.8617 2.43C11.4351 2.43 11.8551 2.61 12.1217 2.97C12.3884 3.33 12.5217 3.86 12.5217 4.56V8H11.6117V4.68C11.6117 4.16667 11.5284 3.79667 11.3617 3.57C11.2017 3.34333 10.9417 3.23 10.5817 3.23C10.3017 3.23 10.0517 3.3 9.83172 3.44C9.61172 3.58 9.36505 3.78667 9.09172 4.06V8H8.18172V2.57ZM16.485 8.13C16.125 8.13 15.785 8.06667 15.465 7.94C15.1517 7.81333 14.8783 7.63 14.645 7.39C14.4117 7.14333 14.225 6.84333 14.085 6.49C13.9517 6.13667 13.885 5.73667 13.885 5.29C13.885 4.85 13.9517 4.45333 14.085 4.1C14.225 3.74667 14.4083 3.44667 14.635 3.2C14.8617 2.95333 15.1217 2.76333 15.415 2.63C15.715 2.49667 16.0217 2.43 16.335 2.43C16.6817 2.43 16.9883 2.49 17.255 2.61C17.5217 2.73 17.745 2.90333 17.925 3.13C18.1117 3.35 18.2517 3.61667 18.345 3.93C18.445 4.24333 18.495 4.59333 18.495 4.98C18.495 5.08 18.4917 5.17667 18.485 5.27C18.4783 5.35667 18.4683 5.43333 18.455 5.5H14.795C14.8283 6.08667 15.005 6.55 15.325 6.89C15.6517 7.23 16.075 7.4 16.595 7.4C16.8617 7.4 17.105 7.36333 17.325 7.29C17.545 7.21 17.755 7.10333 17.955 6.97L18.285 7.57C18.045 7.72333 17.7783 7.85667 17.485 7.97C17.1917 8.07667 16.8583 8.13 16.485 8.13ZM17.695 4.85C17.695 4.29667 17.575 3.87667 17.335 3.59C17.1017 3.30333 16.7717 3.16 16.345 3.16C16.1517 3.16 15.965 3.2 15.785 3.28C15.6117 3.35333 15.455 3.46333 15.315 3.61C15.175 3.75 15.0583 3.92667 14.965 4.14C14.8717 4.34667 14.8117 4.58333 14.785 4.85H17.695Z" fill="black"/>
</svg>
