<svg width="32" height="32" viewBox="0 0 32 32" fill="none" xmlns="http://www.w3.org/2000/svg">
<circle cx="16" cy="16" r="16" fill="#18BC03"/>
<g clip-path="url(#clip0_1005_9603)">
<path d="M15.9996 6.85712C21.6709 6.85712 26.2853 10.6011 26.2853 15.204C26.2853 17.0464 25.5717 18.705 24.0803 20.3391C21.9229 22.8231 17.0976 25.8484 15.9996 26.3113C14.9324 26.7613 15.0559 26.058 15.1047 25.7803L15.1086 25.7571L15.2552 24.8764C15.2899 24.6141 15.3259 24.2065 15.2217 23.9468C15.106 23.6601 14.6509 23.511 14.3166 23.439C9.37301 22.7871 5.71387 19.3298 5.71387 15.204C5.71387 10.6011 10.3296 6.85712 15.9996 6.85712ZM12.1707 16.7391H10.21V13.1803C10.21 13.1273 10.1891 13.0765 10.1517 13.0389C10.1144 13.0013 10.0637 12.98 10.0107 12.9797H9.28815C9.26181 12.9797 9.23573 12.9849 9.2114 12.995C9.18706 13.005 9.16495 13.0198 9.14633 13.0384C9.1277 13.0571 9.11293 13.0792 9.10285 13.1035C9.09277 13.1278 9.08758 13.1539 9.08758 13.1803V17.6623C9.08758 17.715 9.10944 17.7651 9.14415 17.7998V17.8011L9.14672 17.8037L9.1493 17.8063C9.18658 17.8421 9.23642 17.862 9.28815 17.8615H12.1707C12.2813 17.8615 12.37 17.7715 12.37 17.661V16.941C12.3702 16.9146 12.3652 16.8885 12.3552 16.8641C12.3453 16.8397 12.3307 16.8175 12.3122 16.7988C12.2937 16.78 12.2717 16.7651 12.2474 16.7549C12.2231 16.7446 12.1971 16.7393 12.1707 16.7391ZM13.1877 12.9797C13.1345 12.9797 13.0835 13.0008 13.0459 13.0384C13.0083 13.076 12.9872 13.1271 12.9872 13.1803V17.6623C12.9872 17.7728 13.0772 17.8615 13.1877 17.8615H13.9103C14.0209 17.8615 14.1096 17.7715 14.1096 17.6623V13.1803C14.1096 13.1273 14.0886 13.0765 14.0513 13.0389C14.014 13.0013 13.9633 12.98 13.9103 12.9797H13.1877ZM18.1544 12.9797C18.1012 12.9797 18.0502 13.0008 18.0126 13.0384C17.975 13.076 17.9539 13.1271 17.9539 13.1803V15.8417L15.9006 13.0697C15.8954 13.0629 15.8898 13.0565 15.8839 13.0504V13.0491C15.8798 13.0446 15.8755 13.0403 15.871 13.0363L15.8672 13.0324C15.8627 13.0282 15.858 13.0243 15.853 13.0208H15.8517L15.8453 13.0157L15.8414 13.0131C15.8394 13.0116 15.8373 13.0103 15.835 13.0093L15.8247 13.0028H15.8222L15.8183 13.0003L15.8054 12.9951L15.8003 12.9925C15.7961 12.991 15.7918 12.9897 15.7874 12.9887H15.7849L15.781 12.9874L15.7694 12.9848H15.7617L15.7579 12.9835H15.7527L15.7502 12.9823H15.0122C14.9592 12.9823 14.9084 13.0032 14.8708 13.0405C14.8332 13.0779 14.8119 13.1286 14.8116 13.1815V17.6635C14.8116 17.7741 14.9016 17.8628 15.0122 17.8628H15.7322C15.844 17.8628 15.934 17.7728 15.934 17.6635V15.0021L17.9912 17.7793C18.0048 17.7984 18.0218 17.8149 18.0413 17.8281L18.0426 17.8294L18.0554 17.8371L18.0606 17.8397C18.0639 17.8416 18.0673 17.8433 18.0709 17.8448L18.0799 17.8487L18.0863 17.8513C18.0905 17.8527 18.0948 17.854 18.0992 17.8551H18.103C18.1197 17.8599 18.137 17.8625 18.1544 17.8628H18.8744C18.9863 17.8628 19.0763 17.7728 19.0763 17.6635V13.1803C19.0763 13.1271 19.0552 13.076 19.0175 13.0384C18.9799 13.0008 18.9289 12.9797 18.8757 12.9797H18.1544ZM23.0594 13.9015V13.1815C23.0596 13.1552 23.0546 13.1291 23.0447 13.1047C23.0347 13.0803 23.0201 13.0581 23.0016 13.0393C22.9831 13.0206 22.9611 13.0057 22.9368 12.9954C22.9125 12.9852 22.8865 12.9799 22.8602 12.9797H19.9776C19.9257 12.9798 19.8759 13 19.8387 13.0363H19.8374L19.8362 13.0388L19.8336 13.0427C19.7977 13.0795 19.7774 13.1288 19.777 13.1803V17.6623C19.777 17.715 19.7989 17.7651 19.8336 17.7998L19.8362 17.8037L19.8387 17.8063C19.8761 17.842 19.9259 17.8618 19.9776 17.8615H22.8602C22.9707 17.8615 23.0594 17.7715 23.0594 17.661V16.941C23.0596 16.9146 23.0546 16.8885 23.0447 16.8641C23.0347 16.8397 23.0201 16.8175 23.0016 16.7988C22.9831 16.78 22.9611 16.7651 22.9368 16.7549C22.9125 16.7446 22.8865 16.7393 22.8602 16.7391H20.8982V15.9818H22.8589C22.9694 15.9818 23.0582 15.8918 23.0582 15.7813V15.0613C23.0583 15.0349 23.0533 15.0088 23.0434 14.9844C23.0335 14.96 23.0188 14.9378 23.0003 14.9191C22.9818 14.9003 22.9598 14.8854 22.9355 14.8752C22.9113 14.8649 22.8852 14.8596 22.8589 14.8594H20.8982V14.1021H22.8589C22.9694 14.1021 23.0582 14.0121 23.0582 13.9015H23.0594Z" fill="white"/>
</g>
<defs>
<clipPath id="clip0_1005_9603">
<rect width="20.5714" height="20.5714" fill="white" transform="translate(5.71387 6.85712)"/>
</clipPath>
</defs>
</svg>
