<svg width="34" height="9" viewBox="0 0 34 9" fill="none" xmlns="http://www.w3.org/2000/svg">
<path d="M2.97727 1.45H0.757266V0.67H6.12727V1.45H3.90727V8H2.97727V1.45ZM6.32273 2.57H7.25273L8.06273 5.71C8.11607 5.97 8.1694 6.22667 8.22273 6.48C8.27607 6.72667 8.3294 6.97667 8.38273 7.23H8.43273C8.49273 6.97667 8.5494 6.72333 8.60273 6.47C8.66273 6.21667 8.7294 5.96333 8.80273 5.71L9.64273 2.57H10.5327L11.3827 5.71C11.4494 5.97 11.5127 6.22667 11.5727 6.48C11.6327 6.72667 11.6961 6.97667 11.7627 7.23H11.8027C11.8627 6.97667 11.9194 6.72667 11.9727 6.48C12.0261 6.22667 12.0827 5.97 12.1427 5.71L12.9427 2.57H13.8027L12.3427 8H11.2427L10.4527 5.07C10.3794 4.81667 10.3161 4.56333 10.2627 4.31C10.2094 4.05667 10.1494 3.79 10.0827 3.51H10.0327C9.97273 3.79 9.91273 4.06 9.85273 4.32C9.7994 4.57333 9.73607 4.83 9.66273 5.09L8.90273 8H7.83273L6.32273 2.57ZM14.9903 2.57H15.9003V8H14.9903V2.57ZM15.4503 1.45C15.2703 1.45 15.1203 1.39667 15.0003 1.29C14.8803 1.17667 14.8203 1.03333 14.8203 0.86C14.8203 0.673333 14.8803 0.53 15.0003 0.43C15.1203 0.323333 15.2703 0.269999 15.4503 0.269999C15.6303 0.269999 15.7803 0.323333 15.9003 0.43C16.0203 0.53 16.0803 0.673333 16.0803 0.86C16.0803 1.03333 16.0203 1.17667 15.9003 1.29C15.7803 1.39667 15.6303 1.45 15.4503 1.45ZM19.4542 8.13C19.1609 8.13 18.9142 8.08667 18.7142 8C18.5209 7.91333 18.3642 7.79333 18.2442 7.64C18.1242 7.48 18.0376 7.29 17.9842 7.07C17.9309 6.84333 17.9042 6.59333 17.9042 6.32V3.31H17.0942V2.62L17.9442 2.57L18.0542 1.05H18.8142V2.57H20.2842V3.31H18.8142V6.34C18.8142 6.68 18.8742 6.94 18.9942 7.12C19.1142 7.3 19.3342 7.39 19.6542 7.39C19.7476 7.39 19.8509 7.37667 19.9642 7.35C20.0776 7.31667 20.1809 7.28333 20.2742 7.25L20.4542 7.93C20.3009 7.98333 20.1376 8.03 19.9642 8.07C19.7909 8.11 19.6209 8.13 19.4542 8.13ZM22.9991 8.13C22.7058 8.13 22.4591 8.08667 22.2591 8C22.0658 7.91333 21.9091 7.79333 21.7891 7.64C21.6691 7.48 21.5825 7.29 21.5291 7.07C21.4758 6.84333 21.4491 6.59333 21.4491 6.32V3.31H20.6391V2.62L21.4891 2.57L21.5991 1.05H22.3591V2.57H23.8291V3.31H22.3591V6.34C22.3591 6.68 22.4191 6.94 22.5391 7.12C22.6591 7.3 22.8791 7.39 23.1991 7.39C23.2925 7.39 23.3958 7.37667 23.5091 7.35C23.6225 7.31667 23.7258 7.28333 23.8191 7.25L23.9991 7.93C23.8458 7.98333 23.6825 8.03 23.5091 8.07C23.3358 8.11 23.1658 8.13 22.9991 8.13ZM27.2487 8.13C26.8887 8.13 26.5487 8.06667 26.2287 7.94C25.9153 7.81333 25.642 7.63 25.4087 7.39C25.1753 7.14333 24.9887 6.84333 24.8487 6.49C24.7153 6.13667 24.6487 5.73667 24.6487 5.29C24.6487 4.85 24.7153 4.45333 24.8487 4.1C24.9887 3.74667 25.172 3.44667 25.3987 3.2C25.6253 2.95333 25.8853 2.76333 26.1787 2.63C26.4787 2.49667 26.7853 2.43 27.0987 2.43C27.4453 2.43 27.752 2.49 28.0187 2.61C28.2853 2.73 28.5087 2.90333 28.6887 3.13C28.8753 3.35 29.0153 3.61667 29.1087 3.93C29.2087 4.24333 29.2587 4.59333 29.2587 4.98C29.2587 5.08 29.2553 5.17667 29.2487 5.27C29.242 5.35667 29.232 5.43333 29.2187 5.5H25.5587C25.592 6.08667 25.7687 6.55 26.0887 6.89C26.4153 7.23 26.8387 7.4 27.3587 7.4C27.6253 7.4 27.8687 7.36333 28.0887 7.29C28.3087 7.21 28.5187 7.10333 28.7187 6.97L29.0487 7.57C28.8087 7.72333 28.542 7.85667 28.2487 7.97C27.9553 8.07667 27.622 8.13 27.2487 8.13ZM28.4587 4.85C28.4587 4.29667 28.3387 3.87667 28.0987 3.59C27.8653 3.30333 27.5353 3.16 27.1087 3.16C26.9153 3.16 26.7287 3.2 26.5487 3.28C26.3753 3.35333 26.2187 3.46333 26.0787 3.61C25.9387 3.75 25.822 3.92667 25.7287 4.14C25.6353 4.34667 25.5753 4.58333 25.5487 4.85H28.4587ZM30.5958 2.57H31.3458L31.4258 3.56H31.4558C31.6491 3.21333 31.8758 2.94 32.1358 2.74C32.4024 2.53333 32.6891 2.43 32.9958 2.43C33.1158 2.43 33.2191 2.44 33.3058 2.46C33.3991 2.47333 33.4891 2.50333 33.5758 2.55L33.4058 3.35C33.3124 3.31667 33.2291 3.29333 33.1558 3.28C33.0824 3.26667 32.9891 3.26 32.8758 3.26C32.7624 3.26 32.6424 3.28333 32.5158 3.33C32.3958 3.37 32.2758 3.44 32.1558 3.54C32.0358 3.63333 31.9191 3.76 31.8058 3.92C31.6924 4.08 31.5924 4.27667 31.5058 4.51V8H30.5958V2.57Z" fill="black"/>
</svg>
